<svg version="1.2" xmlns="http://www.w3.org/2000/svg" viewBox="0 0 48 48" width="48" height="48">
	<defs>
		<clipPath clipPathUnits="userSpaceOnUse" id="cp1">
			<path d="m0 0h48v48h-48z"/>
		</clipPath>
	</defs>
	<style>
		.s0 { fill: #ffffff } 
	</style>
	<g id="Clip-Path" clip-path="url(#cp1)">
		<g>
			<path class="s0" d="m43.58 37.41q-1.08 2.51-2.58 4.64-2.03 2.9-3.32 4.02-1.99 1.82-4.27 1.88-1.65 0-3.95-0.95-2.31-0.94-4.25-0.93-2.03-0.01-4.37 0.93-2.33 0.95-3.77 1-2.19 0.09-4.37-1.93-1.39-1.22-3.48-4.16-2.24-3.15-3.68-7.31-1.54-4.49-1.54-8.7 0-4.83 2.09-8.32 1.64-2.8 4.37-4.42 2.73-1.62 5.91-1.67 1.74 0 4.57 1.07 2.83 1.06 3.63 1.06 0.6 0 4.02-1.25 3.23-1.17 5.46-0.97 6.06 0.48 9.09 4.78-5.41 3.29-5.36 9.19 0.05 4.59 3.33 7.63 1.48 1.41 3.32 2.18-0.4 1.16-0.85 2.23zm-9.26-36.45q0 3.6-2.62 6.72c-2.11 2.46-4.66 3.89-7.43 3.66q-0.06-0.43-0.06-0.91c0-2.3 1.01-4.77 2.79-6.78q1.33-1.53 3.39-2.55 2.05-1 3.88-1.1 0.05 0.48 0.05 0.96z"/>
		</g>
	</g>
</svg>