<svg width="21" height="8" viewBox="0 0 21 8" fill="none" xmlns="http://www.w3.org/2000/svg">
<path d="M0 4.39999C0 2.19999 1.5 0.399994 3.5 0.399994C4.3 0.399994 4.9 0.799994 5.2 1.39999L4.2 2.19999C4 1.79999 3.7 1.59999 3.3 1.59999C2.2 1.59999 1.3 2.89999 1.3 4.39999C1.3 5.39999 1.7 5.99999 2.7 5.99999C3.1 5.99999 3.5 5.79999 3.8 5.49999L4.4 6.39999C4 6.79999 3.3 7.19999 2.4 7.19999C0.900001 7.19999 0 6.09999 0 4.39999Z" fill="#0A0A08"/>
<path d="M5.5 5.29999C5.5 3.39999 6.8 1.89999 8.1 1.89999C8.5 1.89999 9 2.19999 9.2 2.59999L9.4 2.09999H10.5L9.5 7.09999H8.4V6.49999C7.9 6.99999 7.4 7.29999 6.8 7.29999C6 7.19999 5.5 6.49999 5.5 5.29999ZM8.5 5.29999L8.9 3.49999C8.7 3.19999 8.5 2.99999 8.2 2.99999C7.5 2.99999 6.9 3.89999 6.9 5.09999C6.9 5.69999 7.1 5.99999 7.5 5.99999C7.8 5.99999 8.2 5.89999 8.5 5.29999Z" fill="#0A0A08"/>
<path d="M10.7 6.19999L11.5 5.49999C11.8 5.89999 12.2 6.09999 12.6 6.09999C13 6.09999 13.3 5.89999 13.3 5.59999C13.3 5.29999 13 5.19999 12.4 4.89999C11.8 4.59999 11.4 4.09999 11.4 3.49999C11.4 2.59999 12.3 1.89999 13.3 1.89999C14 1.89999 14.5 2.19999 14.9 2.69999L14.2 3.39999C14 3.19999 13.7 2.89999 13.3 2.89999C12.9 2.89999 12.7 3.09999 12.7 3.39999C12.7 3.69999 13.1 3.89999 13.5 4.09999C14.1 4.39999 14.5 4.79999 14.5 5.49999C14.5 6.49999 13.6 7.09999 12.4 7.09999C11.9 7.19999 11.1 6.79999 10.7 6.19999Z" fill="#0A0A08"/>
<path d="M16.7 0H18.1L17.7 1.8L17.5 2.6C17.9 2.2 18.5 1.9 19.1 1.9C19.9 1.9 20.3 2.3 20.3 3.2C20.3 3.4 20.3 3.7 20.2 3.9L19.6 7H18.1L18.7 4.1C18.7 3.9 18.8 3.8 18.8 3.6C18.8 3.3 18.6 3.1 18.3 3.1C18 3.1 17.7 3.3 17.3 3.7L16.7 7H15.3L16.7 0Z" fill="#0A0A08"/>
</svg>
