<svg width="25" height="8" viewBox="0 0 25 8" fill="none" xmlns="http://www.w3.org/2000/svg">
<path d="M8.83109 7.57122L10.0954 0.151681H12.1178L10.8525 7.57122H8.83109ZM18.159 0.311624C17.7584 0.161307 17.1305 0 16.3465 0C14.3481 0 12.9406 1.00631 12.9285 2.44857C12.9173 3.51469 13.9335 4.10947 14.7005 4.46434C15.4878 4.82812 15.7524 5.06 15.7486 5.3847C15.7435 5.88207 15.12 6.10918 14.5386 6.10918C13.7293 6.10918 13.2992 5.99673 12.635 5.71982L12.3744 5.60191L12.0906 7.26281C12.563 7.47002 13.4364 7.64937 14.3434 7.65869C16.4692 7.65869 17.8493 6.66386 17.865 5.12367C17.8725 4.27961 17.3338 3.63738 16.167 3.10778C15.4601 2.76455 15.0272 2.53551 15.0318 2.18796C15.0318 1.87956 15.3982 1.54978 16.1901 1.54978C16.8513 1.53951 17.3304 1.68372 17.7037 1.83404L17.8849 1.91966L18.159 0.311624ZM23.3632 0.151567H21.8005C21.3164 0.151567 20.9541 0.28369 20.7415 0.766855L17.7381 7.56633H19.8617C19.8617 7.56633 20.2088 6.65211 20.2874 6.45135C20.5194 6.45135 22.5825 6.45453 22.8774 6.45453C22.9379 6.71431 23.1234 7.56633 23.1234 7.56633H25L23.3632 0.151339V0.151567ZM20.8838 4.94266C21.0511 4.51517 21.6896 2.86855 21.6896 2.86855C21.6777 2.8883 21.8556 2.43898 21.9577 2.16041L22.0943 2.8001C22.0943 2.8001 22.4816 4.57119 22.5625 4.94254H20.8838V4.94266ZM7.11428 0.151567L5.13436 5.21138L4.92344 4.18315C4.55481 2.99783 3.40645 1.71363 2.12262 1.07071L3.93305 7.55939L6.07276 7.557L9.25661 0.151491L7.11428 0.151453" fill="#0E4595"/>
<path d="M3.2869 0.151306H0.0258487L0 0.305678C2.53707 0.919828 4.21575 2.404 4.91275 4.18752L4.20366 0.777926C4.08128 0.308103 3.72622 0.167869 3.28698 0.151495" fill="#F2AE14"/>
</svg>
