<svg width="45" height="8" viewBox="0 0 45 8" fill="none" xmlns="http://www.w3.org/2000/svg">
<path d="M5.49803 2.49161L4.76943 3.22022L4.733 3.25665L4.50167 3.48798L4.33044 3.66102L4.09911 3.89235L4.06268 3.92696L3.9625 4.02897L3.92607 4.06357L3.58545 4.4042L3.54902 4.43881C3.44947 4.53821 3.33669 4.62341 3.21386 4.692C3.15523 4.72479 3.09436 4.75339 3.03171 4.77761C2.89062 4.83228 2.74193 4.86485 2.5909 4.87415C2.4994 4.88234 2.40735 4.88234 2.31585 4.87415C2.11606 4.85243 1.92274 4.79046 1.74754 4.692C1.66821 4.65093 1.5947 4.59947 1.52896 4.53899L1.48707 4.49709L0.159185 3.15646L0.131862 3.12914C0.108211 3.10356 0.0874425 3.07547 0.0699309 3.04535C0.0243668 2.96811 0.000456272 2.88002 0.000713533 2.79034C-0.000237844 2.77639 -0.000237844 2.76239 0.000713533 2.74844C0.000713533 2.72659 0.000713533 2.70473 0.000713533 2.68469V2.66101C0.018518 2.59479 0.0494939 2.53284 0.091789 2.47886C0.102966 2.46466 0.11514 2.45126 0.128219 2.43879L0.151899 2.41511L1.58178 1.00344L2.43789 0.149149C2.52899 0.0579034 2.65136 0.0046926 2.78022 0.000295846C2.90908 -0.00410091 3.03479 0.0406451 3.13189 0.12547L5.49803 2.49161Z" fill="#005BAA"/>
<path d="M2.92424 5.66832C2.80902 5.6679 2.69528 5.64242 2.5909 5.59364L2.31949 5.32406L2.2521 5.25849L2.24117 5.24573L2.11549 5.12005L1.48342 4.4807L1.52532 4.52259C1.59151 4.58386 1.66564 4.63593 1.74572 4.67742C1.92091 4.77589 2.11424 4.83785 2.31403 4.85957C2.40553 4.86776 2.49758 4.86776 2.58908 4.85957C2.74011 4.85027 2.88879 4.81771 3.02988 4.76303C3.09254 4.73882 3.15341 4.71021 3.21203 4.67742C3.33486 4.60884 3.44764 4.52364 3.54719 4.42423L3.58362 4.38962L3.92425 4.049L3.96068 4.01439L4.06086 3.91239L4.09729 3.87778L4.32862 3.64645L4.49984 3.4734L4.73664 3.25482L4.77307 3.21839L6.23939 1.76118L6.84048 1.09269L6.87327 1.06172C6.96203 0.973296 7.08222 0.923645 7.20752 0.923645C7.33281 0.923645 7.453 0.973296 7.54177 1.06172L7.87328 1.39324H7.88421C7.80981 1.39014 7.73557 1.40227 7.66603 1.42889C7.59649 1.45552 7.53313 1.49607 7.47983 1.54807L6.35961 2.64097L6.34868 2.65372L4.4033 4.59181L3.68381 5.29674L3.64009 5.34227C3.54217 5.43733 3.42963 5.51605 3.30675 5.57543C3.23843 5.60858 3.16622 5.63306 3.09181 5.64829C3.04922 5.65722 3.00597 5.6627 2.96249 5.66468L2.92424 5.66832Z" fill="#ED1C24"/>
<path d="M9.66929 3.8559L9.63286 3.89233L8.04633 5.50254L6.376 7.19473C6.32409 7.24711 6.26805 7.29524 6.20842 7.33863L6.18474 7.35502C5.89436 7.5625 5.54078 7.66236 5.18476 7.63743C4.82875 7.6125 4.49253 7.46434 4.2339 7.21841L4.19019 7.19291L3.90421 6.90693L3.09728 6.1L2.8277 5.82859L2.79127 5.79034C2.83461 5.7976 2.87847 5.80125 2.92242 5.80127H2.96067C3.01216 5.79909 3.06336 5.79238 3.11367 5.78123C3.19899 5.76432 3.28168 5.73614 3.35958 5.69744C3.4938 5.63082 3.61673 5.54354 3.72388 5.43879L3.77306 5.38597L4.39238 4.77758L6.52172 2.68284L6.53265 2.66827L7.5782 1.65551C7.64612 1.59041 7.73421 1.55041 7.82794 1.54213C7.92166 1.53385 8.0154 1.55778 8.09368 1.60998L8.33777 1.85588L9.66747 3.1874C9.67934 3.19867 9.6903 3.21085 9.70026 3.22383C9.77434 3.31429 9.81219 3.42904 9.80647 3.54583C9.80075 3.66261 9.75186 3.77311 9.66929 3.8559Z" fill="#ED1C24"/>
<path d="M4.52899 2.0927C4.51014 2.11011 4.48543 2.11978 4.45977 2.11978C4.43411 2.11978 4.4094 2.11011 4.39055 2.0927C4.24093 1.94212 4.06312 1.82248 3.86726 1.74062C3.6714 1.65877 3.46134 1.61628 3.24907 1.61561C2.82036 1.61424 2.40867 1.78323 2.10456 2.08541C1.80045 2.38759 1.62884 2.79819 1.62747 3.2269C1.6261 3.65561 1.7951 4.0673 2.09727 4.37141L2.58908 4.86686C2.5896 4.87048 2.5896 4.87416 2.58908 4.87779C2.50002 4.886 2.41038 4.886 2.32132 4.87779L1.95702 4.51348C1.61885 4.1729 1.42983 3.71193 1.43154 3.23199C1.43325 2.75204 1.62554 2.29243 1.96612 1.95426C2.30671 1.6161 2.76767 1.42708 3.24762 1.42878C3.72757 1.43049 4.18718 1.62279 4.52535 1.96337C4.54185 1.98065 4.55136 2.00344 4.55204 2.02733C4.55271 2.05122 4.5445 2.07451 4.52899 2.0927Z" fill="#009EDB"/>
<path d="M5.2831 2.71202L5.14648 2.84681L4.90787 2.60637C4.89889 2.5974 4.89177 2.58675 4.88691 2.57503C4.88205 2.56331 4.87955 2.55075 4.87955 2.53806C4.87955 2.52537 4.88205 2.51281 4.88691 2.50109C4.89177 2.48937 4.89889 2.47872 4.90787 2.46976C4.91683 2.46078 4.92748 2.45366 4.9392 2.4488C4.95092 2.44394 4.96348 2.44144 4.97617 2.44144C4.98886 2.44144 5.00142 2.44394 5.01314 2.4488C5.02487 2.45366 5.03551 2.46078 5.04448 2.46976L5.2831 2.71202Z" fill="#009EDB"/>
<path d="M3.22114 4.68836C3.16259 4.72077 3.1017 4.74878 3.03899 4.77215L2.36867 4.10183C2.16543 3.89711 2.04001 3.62785 2.01407 3.34054C1.98814 3.05322 2.0633 2.76587 2.2266 2.52805C2.24132 2.50708 2.26364 2.49268 2.28881 2.48792C2.31399 2.48316 2.34002 2.48841 2.36139 2.50255C2.37182 2.50982 2.38071 2.51909 2.38755 2.52981C2.39439 2.54053 2.39904 2.5525 2.40124 2.56502C2.40344 2.57755 2.40314 2.59038 2.40037 2.60279C2.39759 2.6152 2.39239 2.62694 2.38507 2.63734C2.24742 2.83807 2.18411 3.08053 2.20605 3.32293C2.228 3.56533 2.33382 3.79248 2.50529 3.96522L3.22114 4.68836Z" fill="#009EDB"/>
<path d="M4.87507 3.11455L4.77489 3.21473L4.7421 3.24752L3.98982 2.48795C3.85215 2.34967 3.67854 2.25267 3.48862 2.20793C3.2987 2.16319 3.10004 2.17248 2.91513 2.23476C2.90278 2.24048 2.88935 2.24352 2.87575 2.24368C2.86214 2.24384 2.84865 2.24113 2.83616 2.23571C2.82368 2.23029 2.81248 2.2223 2.8033 2.21225C2.79412 2.2022 2.78717 2.19032 2.78291 2.1774C2.77864 2.16448 2.77716 2.1508 2.77855 2.13726C2.77995 2.12372 2.78419 2.11063 2.791 2.09885C2.79781 2.08706 2.80703 2.07685 2.81806 2.06888C2.8291 2.06091 2.84169 2.05537 2.85502 2.05261C3.07306 1.98113 3.30672 1.97189 3.52973 2.02595C3.75273 2.08002 3.95622 2.19523 4.11732 2.35862L4.87507 3.11455Z" fill="#009EDB"/>
<path d="M4.47252 3.51894L4.33591 3.65555L3.57998 2.89416C3.48892 2.81952 3.37332 2.78147 3.25573 2.78744C3.13814 2.79342 3.02699 2.84298 2.94396 2.92646C2.86093 3.00995 2.81198 3.12137 2.80665 3.23899C2.80132 3.35661 2.83999 3.472 2.91513 3.56265L3.40147 4.05264C3.41959 4.07075 3.42977 4.09532 3.42977 4.12094C3.42977 4.14656 3.41959 4.17113 3.40147 4.18925C3.38336 4.20737 3.35879 4.21754 3.33317 4.21754C3.30755 4.21754 3.28298 4.20737 3.26486 4.18925L2.76941 3.69926C2.6538 3.57169 2.59187 3.40443 2.59652 3.23233C2.60117 3.06023 2.67203 2.89655 2.79436 2.7754C2.91668 2.65425 3.08103 2.58497 3.25317 2.58198C3.42531 2.57899 3.59196 2.64253 3.71842 2.75937L4.47252 3.51894Z" fill="#009EDB"/>
<path d="M4.06815 3.92149L3.96797 4.02349L3.93518 4.05446L3.17561 3.29671C3.15749 3.2786 3.14732 3.25403 3.14732 3.22841C3.14732 3.20279 3.15749 3.17822 3.17561 3.1601C3.19373 3.14198 3.2183 3.13181 3.24392 3.13181C3.26954 3.13181 3.29411 3.14198 3.31222 3.1601L4.06815 3.92149Z" fill="#009EDB"/>
<path fill-rule="evenodd" clip-rule="evenodd" d="M40.0938 4.24787L37.4979 0.52621L37.2374 0.28678H39.8082L41.543 3.09693L41.6816 2.98352L42.7275 1.42512C42.8586 1.25487 42.9171 1.03975 42.8904 0.82656C42.8636 0.613372 42.7538 0.419374 42.5847 0.28678H45L42.2067 4.24367V7.11683L42.6981 7.7049H39.6821L40.1022 7.12523C40.1022 6.17171 40.0686 5.20139 40.1022 4.24787H40.0938ZM33.0495 0.28678C33.216 0.459183 33.3196 0.68261 33.3436 0.921059C33.3601 1.06344 33.3413 1.20769 33.2889 1.34111L31.3609 6.93621C31.2334 7.21731 31.0455 7.46686 30.8106 7.6671H32.9109C32.7567 7.54066 32.6524 7.36347 32.6169 7.16723C32.5789 7.02978 32.5789 6.88463 32.6169 6.74718L33.0369 5.41982H35.4858L35.8681 6.44474C35.9066 6.54731 35.9307 6.65476 35.9395 6.76398C35.9644 6.93836 35.9412 7.11624 35.8723 7.27838C35.8035 7.44052 35.6916 7.58075 35.5488 7.6839H38.8462C38.5211 7.42227 38.2537 7.09619 38.0607 6.72618L35.6496 0.265778L33.0495 0.28678ZM35.1498 4.4873H33.3982L34.2383 2.0678L35.1414 4.4873H35.1498ZM26.3665 0.290981H30.0419C30.5752 0.292091 31.0864 0.50443 31.4635 0.881523C31.8405 1.25861 32.0529 1.76974 32.054 2.30303V2.55086C32.0474 3.07905 31.8338 3.58356 31.4591 3.95589C31.0844 4.32823 30.5786 4.53865 30.0503 4.54191L29.1304 4.57131C29.4749 4.38336 29.7521 4.09241 29.923 3.73917C30.094 3.38592 30.1503 2.98807 30.0839 2.60127C30.0125 1.97959 29.6933 1.38312 29.1598 1.37051H28.8238V6.8774C28.8222 6.96591 28.8487 7.05265 28.8994 7.12523C29.0001 7.28317 29.1124 7.4334 29.2354 7.57468L29.3321 7.6923H26.4757L26.5975 7.52848C26.687 7.4106 26.7618 7.28223 26.8201 7.14623C26.857 7.06739 26.8757 6.98125 26.8747 6.8942V0.967265C26.8621 0.656426 26.5555 0.480004 26.3665 0.290981Z" fill="#005BAA"/>
<path fill-rule="evenodd" clip-rule="evenodd" d="M10.8876 0.253204H13.1937L15.1301 5.80209L16.7725 1.20672C16.8025 1.07274 16.7783 0.932344 16.7053 0.816074C16.6171 0.627051 16.5205 0.446429 16.4281 0.261606H18.1503C18.0495 0.635452 17.8982 1.0471 17.768 1.42515L15.5418 7.90235C14.8734 7.79541 14.2479 7.50452 13.7355 7.06225C13.3913 6.69189 13.142 6.24365 13.0088 5.75589L11.148 0.803473C11.074 0.614244 10.987 0.430379 10.8876 0.253204ZM20.0951 2.86173V6.82702C20.0951 6.98664 20.1329 7.01604 20.2337 7.14626L20.6874 7.73853H18.5157L18.8812 7.17986C18.9708 7.07129 19.0185 6.93417 19.0156 6.79342V1.24453L18.4065 0.253204H20.658L24.2998 4.96199V1.22352C24.3038 1.08203 24.2577 0.943683 24.1696 0.832876C24.0478 0.643853 23.9176 0.463231 23.7958 0.278408H25.9464L25.5264 0.853879C25.4256 0.979895 25.3878 1.0093 25.3878 1.17312V7.90235C24.9478 7.87955 24.5179 7.76233 24.1272 7.55867C23.7366 7.355 23.3943 7.06966 23.1237 6.72201L20.0951 2.86173Z" fill="#ED1C24"/>
</svg>
