<svg width="157" height="157" viewBox="0 0 157 157" fill="none" xmlns="http://www.w3.org/2000/svg">
<mask id="mask0_341_1279" style="mask-type:luminance" maskUnits="userSpaceOnUse" x="22" y="22" width="113" height="113">
<path d="M100.888 129.545C129.141 117.118 141.971 84.1405 129.545 55.8868C117.118 27.6332 84.1399 14.803 55.8863 27.2298C27.6326 39.6566 14.8024 72.6346 27.2292 100.888C39.656 129.142 72.634 141.972 100.888 129.545Z" fill="white"/>
</mask>
<g mask="url(#mask0_341_1279)">
<path d="M89.8849 133.085C120.091 126.736 139.431 97.1016 133.082 66.8955C126.732 36.6894 97.0983 17.3497 66.8922 23.6989C36.6861 30.0482 17.3463 59.6822 23.6956 89.8883C30.0449 120.094 59.6788 139.434 89.8849 133.085Z" fill="#F2395B"/>
</g>
<mask id="mask1_341_1279" style="mask-type:luminance" maskUnits="userSpaceOnUse" x="22" y="22" width="113" height="113">
<path d="M89.8849 133.085C120.091 126.736 139.431 97.1016 133.082 66.8955C126.732 36.6894 97.0983 17.3497 66.8922 23.6989C36.6861 30.0482 17.3463 59.6822 23.6956 89.8883C30.0449 120.094 59.6788 139.434 89.8849 133.085Z" fill="white"/>
</mask>
<g mask="url(#mask1_341_1279)">
<path d="M78.0615 37.1312C77.5375 37.0552 31.4535 30.5892 48.7185 94.9912L51.0565 90.4772C51.0565 90.4772 50.1115 106.417 58.6515 110.031C58.6515 110.031 56.5615 100.412 59.5985 100.255C59.5985 100.255 61.4945 114.386 77.1225 117.904H78.9995C94.6275 114.386 96.5235 100.255 96.5235 100.255C99.5615 100.412 97.4705 110.031 97.4705 110.031C106.011 106.418 105.066 90.4772 105.066 90.4772L107.404 94.9912C124.669 30.5892 78.5865 37.0552 78.0615 37.1312Z" fill="#F2CB03"/>
<path d="M109.802 84.604C109.098 85.183 108.253 85.567 107.298 85.489C105.97 85.382 105.061 84.34 104.088 83.5C103.358 87.129 104.149 91.659 101.615 94.599C99.232 97.364 96.932 94.705 95.53 92.403C93.064 95.557 90.714 98.989 87.091 100.899C83.383 102.855 79.093 102.733 75.043 102.27C67.807 101.442 63.973 97.243 60.647 91.22C59.268 92.66 57.556 94.905 55.519 94.743C53.601 94.592 52.773 92.404 52.305 90.847C51.89 89.471 51.727 88.054 51.479 86.645C51.272 85.473 51.269 83.327 49.838 83.92C49.097 84.228 48.49 85.239 47.759 85.674C47.415 85.879 47.064 86.024 46.707 86.139C47.256 88.917 47.937 91.847 48.767 94.945L51.105 90.431C51.105 90.431 50.16 106.371 58.7 109.985C58.7 109.985 56.61 100.366 59.647 100.209C59.647 100.209 61.543 114.339 77.171 117.858H79.048C94.676 114.338 96.572 100.209 96.572 100.209C99.61 100.366 97.519 109.985 97.519 109.985C106.06 106.372 105.115 90.431 105.115 90.431L107.453 94.945C108.44 91.268 109.209 87.834 109.802 84.604Z" fill="#E5BA03"/>
<path d="M89.877 100.087C89.877 100.087 101.034 98.3158 103.151 109.227C105.269 120.136 110.864 179.145 110.864 179.145L106.869 180.818L96.056 120.543C96.056 120.543 96.337 104.184 89.877 100.087Z" fill="#DEAF76"/>
<path d="M64.7487 100.087C64.7487 100.087 53.5917 98.3158 51.4747 109.227C49.3567 120.136 43.7617 179.145 43.7617 179.145L47.7567 180.818L58.5697 120.543C58.5697 120.543 58.2887 104.184 64.7487 100.087Z" fill="#DEAF76"/>
<path d="M65.0556 99.3914C70.7226 98.4994 78.4456 97.3524 88.0646 99.4544C92.6636 100.46 95.8366 105.538 95.7736 110.245C95.6326 120.675 97.3646 138.367 98.4696 142.983C100.665 152.153 89.6156 155.158 77.5986 154.525C65.5816 153.893 56.9016 154.478 56.7266 143.298C56.5676 133.14 56.7716 129.695 56.6936 108.763C56.6746 103.482 59.8376 100.213 65.0556 99.3914Z" fill="#FF7FC9"/>
<path d="M77.2063 104.534C80.2713 104.534 82.7553 102.049 82.7553 98.9844V91.1754C82.7553 89.9414 81.7553 88.9414 80.5213 88.9414H73.8903C72.6563 88.9414 71.6562 89.9414 71.6562 91.1754V98.9844C71.6562 102.048 74.1403 104.534 77.2063 104.534Z" fill="#DEAF76"/>
<path d="M71.6602 98.2531V92.6602H82.7602V98.5602C79.2032 99.3442 75.1752 99.2171 71.6602 98.2531Z" fill="#CA9561"/>
<path d="M103.591 59.3757C103.591 59.3757 106.135 96.0317 77.3121 95.8657C48.4291 95.6987 51.2491 58.0427 51.2491 58.0427C51.2491 58.0427 51.0931 41.5367 79.9171 40.8507C87.9041 40.6607 95.6131 44.3547 100.112 50.9557C101.706 53.2927 102.992 56.0847 103.591 59.3757Z" fill="#DEAF76"/>
<path d="M93.2999 87.1394C99.4249 82.2744 102.383 74.6494 102.529 67.0534C102.623 62.1124 101.733 57.2493 100.787 52.4023C102.049 54.1623 103.069 56.4354 103.604 59.3764C103.604 59.3764 106.148 96.0323 77.3249 95.8663C70.3509 95.8263 65.2259 93.5994 61.4629 90.2464C71.6209 94.6284 84.8929 93.8194 93.2999 87.1394Z" fill="#D0A16F"/>
<path d="M102.849 63.3268C102.849 63.3268 119.312 52.3628 118.821 71.9608C118.733 75.4408 117.324 78.8387 114.739 81.0837C111.392 83.9897 105.763 85.3507 97.5098 76.3867L102.849 63.3268Z" fill="#DEAF76"/>
<path d="M111.642 71.2306C111.226 73.6016 108.992 75.1906 106.652 74.7806C104.312 74.3696 102.753 72.1146 103.169 69.7436C103.585 67.3726 105.819 65.7826 108.159 66.1936C110.499 66.6036 112.058 68.8596 111.642 71.2306Z" fill="#CA9561"/>
<path d="M100.25 71.5547C100.25 71.5547 106.945 62.4837 112.555 68.1337C112.555 68.1337 107.082 60.4007 100.25 71.5547Z" fill="#CA9561"/>
<path d="M53.9261 62.1549C53.9261 62.1549 37.4631 51.1909 37.9541 70.7889C38.0421 74.2689 39.4511 77.6669 42.0351 79.9119C45.3821 82.8179 51.0121 84.1789 59.2641 75.2159L53.9261 62.1549Z" fill="#DEAF76"/>
<path d="M42.3504 70.5617C42.7664 72.9337 45.0004 74.5226 47.3404 74.1126C49.6804 73.7016 51.2394 71.4466 50.8234 69.0756C50.4074 66.7046 48.1734 65.1146 45.8334 65.5256C43.4944 65.9356 41.9344 68.1907 42.3504 70.5617Z" fill="#CA9561"/>
<path d="M53.7445 70.8864C53.7445 70.8864 47.0495 61.8155 41.4395 67.4655C41.4395 67.4655 46.9125 59.7324 53.7445 70.8864Z" fill="#CA9561"/>
<path d="M87.868 68.1174C87.768 71.3774 90.424 74.0934 93.8 74.1824C97.176 74.2714 99.993 71.7003 100.093 68.4413C100.192 65.1803 97.537 62.4663 94.161 62.3773C90.785 62.2863 87.968 64.8574 87.868 68.1174Z" fill="#D68A64"/>
<path d="M54.4656 68.1174C54.3656 71.3774 57.0216 74.0934 60.3976 74.1824C63.7726 74.2714 66.5896 71.7003 66.6896 68.4413C66.7886 65.1803 64.1336 62.4663 60.7576 62.3773C57.3826 62.2863 54.5646 64.8574 54.4656 68.1174Z" fill="#D68A64"/>
<path d="M95.8069 114.591C89.2219 121.973 77.4549 125.379 68.3559 120.682C65.3449 119.127 62.1119 114.789 60.3589 112.182C59.4139 110.778 58.1589 109.614 56.6939 108.766C56.6939 108.766 56.5679 133.143 56.7269 143.301C56.9019 154.481 65.5809 153.895 77.5989 154.528C89.6159 155.161 100.665 152.156 98.4699 142.986C97.5069 138.963 96.0679 125.013 95.8069 114.591Z" fill="#F255B6"/>
<path d="M69.9004 63.0677C69.9004 65.1447 70.3914 66.8297 70.9964 66.8297C71.6014 66.8297 72.0924 65.1447 72.0924 63.0677C72.0924 60.9897 71.6014 59.3047 70.9964 59.3047C70.3914 59.3047 69.9004 60.9897 69.9004 63.0677Z" fill="#181818"/>
<path d="M79.2951 64.0904C78.9631 63.8664 78.9011 63.4004 79.1711 63.1054C79.8001 62.4174 81.0441 61.3304 82.8411 61.0024C84.5021 60.7004 86.2331 61.1104 87.9961 62.2244C88.3091 62.4224 88.3811 62.8524 88.1651 63.1544L88.1301 63.2034C87.9231 63.4934 87.5301 63.5564 87.2291 63.3674C85.7841 62.4644 84.3981 62.1234 83.1031 62.3544C81.6901 62.6064 80.6851 63.4954 80.1901 64.0344C79.9731 64.2704 79.6131 64.3054 79.3471 64.1264L79.2951 64.0904Z" fill="#181818"/>
<path d="M74.6406 71.124C74.6406 73.495 75.7386 75.4171 77.0936 75.4171C78.4476 75.4171 79.5466 73.495 79.5466 71.124C79.5466 68.754 78.4486 66.832 77.0936 66.832C75.7396 66.832 74.6406 68.754 74.6406 71.124Z" fill="#181818"/>
<mask id="mask2_341_1279" style="mask-type:luminance" maskUnits="userSpaceOnUse" x="74" y="66" width="6" height="10">
<path d="M74.6406 71.124C74.6406 73.495 75.7386 75.4171 77.0936 75.4171C78.4476 75.4171 79.5466 73.495 79.5466 71.124C79.5466 68.754 78.4486 66.832 77.0936 66.832C75.7396 66.832 74.6406 68.754 74.6406 71.124Z" fill="white"/>
</mask>
<g mask="url(#mask2_341_1279)">
<path d="M74.2751 74.6523C74.2751 74.6523 73.9401 72.7803 77.2641 74.0373C77.2641 74.0373 79.834 72.3613 80.728 74.2053C80.728 74.2053 78.2911 76.7833 74.2751 74.6523Z" fill="#D04642"/>
</g>
<path d="M103.661 62.8363L102.478 64.2383L99.2101 52.4043C99.2101 52.4043 73.9291 49.6093 62.6781 51.6923L61.4631 49.0533L60.5771 52.4043L59.2641 51.6923L51.6851 60.9053C51.6851 60.9053 43.3261 36.0423 79.0001 37.1533C114.676 38.2653 103.661 62.8363 103.661 62.8363Z" fill="#F2CB03"/>
<path d="M75.0488 42.503L75.0388 42.504C74.1728 40.635 72.2928 39.332 70.0988 39.332C68.3328 39.332 66.7798 40.185 65.7828 41.485C64.7858 40.184 63.2318 39.332 61.4668 39.332C59.2728 39.332 57.3928 40.635 56.5268 42.504L56.5168 42.503C56.5168 42.503 55.7398 43.762 56.1208 45.877C56.1218 45.884 56.1238 45.892 56.1258 45.899C56.5878 48.417 58.6998 52.142 65.7798 56.454V56.458L65.7828 56.456L65.7858 56.458V56.454C72.8668 52.143 74.9778 48.417 75.4398 45.899C75.4408 45.891 75.4428 45.884 75.4448 45.877C75.8268 43.763 75.0488 42.503 75.0488 42.503Z" fill="#FF6B6B"/>
<path d="M66.0739 56.9303L65.7819 57.1343L65.4899 56.9303C58.1349 52.4513 56.0399 48.5154 55.5769 46.0004C55.1579 43.6794 56.0059 42.2703 56.0419 42.2123L56.0769 42.1563C57.0829 40.0983 59.1849 38.7773 61.4659 38.7773C63.1089 38.7773 64.6489 39.4453 65.7819 40.6333C66.9149 39.4453 68.4549 38.7773 70.0979 38.7773C72.3859 38.7773 74.4929 40.1073 75.4969 42.1753L75.5219 42.2123C75.5579 42.2713 76.4049 43.6793 75.9919 45.9763C75.5229 48.5153 73.4279 52.4523 66.0739 56.9303ZM56.8489 43.0963C56.6759 43.5433 56.4289 44.4703 56.6659 45.7803C57.0859 48.0603 59.0089 51.6174 65.7819 55.8064C72.5529 51.6184 74.4779 48.0603 74.8929 45.8013C75.1319 44.4833 74.8889 43.5523 74.7149 43.1013L74.7029 43.1033L74.5339 42.7403C73.7299 41.0093 71.9879 39.8904 70.0969 39.8904C68.5769 39.8904 67.1659 40.5963 66.2209 41.8263L65.7809 42.4003L65.3399 41.8263C64.3959 40.5963 62.9839 39.8904 61.4649 39.8904C59.5719 39.8904 57.8319 41.0093 57.0289 42.7403L56.8619 43.0993L56.8489 43.0963Z" fill="#CE4545"/>
<path d="M97.1328 42.503L97.1228 42.504C96.2568 40.635 94.3777 39.332 92.1827 39.332C90.4167 39.332 88.8637 40.185 87.8667 41.485C86.8697 40.184 85.3158 39.332 83.5508 39.332C81.3568 39.332 79.4768 40.635 78.6108 42.504L78.6007 42.503C78.6007 42.503 77.8238 43.762 78.2048 45.877C78.2068 45.884 78.2077 45.892 78.2097 45.899C78.6717 48.417 80.7837 52.142 87.8637 56.454V56.458L87.8667 56.456C87.8667 56.456 87.8688 56.458 87.8708 56.458V56.454C94.9508 52.143 97.0628 48.417 97.5248 45.899C97.5258 45.891 97.5277 45.884 97.5287 45.877C97.9097 43.763 97.1328 42.503 97.1328 42.503Z" fill="#FF6B6B"/>
<path d="M88.1579 56.9303L87.8659 57.1343L87.5739 56.9303C80.2179 52.4513 78.1239 48.5154 77.6609 46.0004C77.2419 43.6794 78.0899 42.2703 78.1259 42.2123L78.1609 42.1563C79.1669 40.0983 81.2689 38.7773 83.5499 38.7773C85.1929 38.7773 86.7329 39.4453 87.8649 40.6333C88.9979 39.4453 90.5379 38.7773 92.1809 38.7773C94.4689 38.7773 96.5769 40.1073 97.5799 42.1753L97.6049 42.2123C97.6409 42.2713 98.4879 43.6793 98.0749 45.9763C97.6079 48.5153 95.5119 52.4523 88.1579 56.9303ZM78.9339 43.0963C78.7599 43.5433 78.5139 44.4703 78.7509 45.7803C79.1709 48.0603 81.0939 51.6174 87.8659 55.8064C94.6379 51.6184 96.5619 48.0603 96.9779 45.8013C97.2169 44.4833 96.9739 43.5523 96.7999 43.1013L96.7879 43.1033L96.6199 42.7403C95.8159 41.0093 94.0739 39.8904 92.1819 39.8904C90.6629 39.8904 89.2509 40.5963 88.3069 41.8263L87.8659 42.4003L87.4259 41.8263C86.4819 40.5963 85.0699 39.8904 83.5509 39.8904C81.6579 39.8904 79.9179 41.0093 79.1149 42.7403L78.9479 43.0993L78.9339 43.0963Z" fill="#CE4545"/>
<path d="M78.6588 45.6149H74.4568C74.0268 45.6149 73.6758 45.2629 73.6758 44.8339V44.6599C73.6758 44.2299 74.0278 43.8789 74.4568 43.8789H78.6588C79.0888 43.8789 79.4398 44.2309 79.4398 44.6599V44.8339C79.4398 45.2639 79.0878 45.6149 78.6588 45.6149Z" fill="#CE4545"/>
<path d="M99.4686 42.5836H96.0876C95.6576 42.5836 95.3066 42.2317 95.3066 41.8027V41.6287C95.3066 41.1987 95.6576 40.8477 96.0876 40.8477H99.4686C99.8986 40.8477 100.25 41.1997 100.25 41.6287V41.8027C100.25 42.2317 99.8976 42.5836 99.4686 42.5836Z" fill="#CE4545"/>
<path d="M57.9091 42.5836H54.5271C54.0971 42.5836 53.7461 42.2317 53.7461 41.8027V41.6287C53.7461 41.1987 54.0981 40.8477 54.5271 40.8477H57.9091C58.3391 40.8477 58.6901 41.1997 58.6901 41.6287V41.8027C58.6901 42.2317 58.3381 42.5836 57.9091 42.5836Z" fill="#CE4545"/>
<path d="M62.1926 43.4645C62.1926 44.3535 61.4726 45.0735 60.5836 45.0735C59.6946 45.0735 58.9746 44.3535 58.9746 43.4645C58.9746 42.5755 59.6946 41.8555 60.5836 41.8555C61.4726 41.8555 62.1926 42.5755 62.1926 43.4645Z" fill="#FFF8F8"/>
<path d="M62.5401 46.4371C62.5401 46.7951 62.2501 47.0851 61.8921 47.0851C61.5341 47.0851 61.2441 46.7951 61.2441 46.4371C61.2441 46.0791 61.5351 45.7891 61.8921 45.7891C62.2501 45.7891 62.5401 46.0791 62.5401 46.4371Z" fill="#FFF8F8"/>
<path d="M84.4172 43.4645C84.4172 44.3535 83.6972 45.0735 82.8082 45.0735C81.9192 45.0735 81.1992 44.3535 81.1992 43.4645C81.1992 42.5755 81.9192 41.8555 82.8082 41.8555C83.6972 41.8555 84.4172 42.5755 84.4172 43.4645Z" fill="#FFF8F8"/>
<path d="M84.7647 46.4371C84.7647 46.7951 84.4747 47.0851 84.1167 47.0851C83.7587 47.0851 83.4688 46.7951 83.4688 46.4371C83.4688 46.0791 83.7587 45.7891 84.1167 45.7891C84.4747 45.7891 84.7647 46.0791 84.7647 46.4371Z" fill="#FFF8F8"/>
</g>
</svg>
