<svg width="112" height="112" viewBox="0 0 112 112" fill="none" xmlns="http://www.w3.org/2000/svg">
<g clip-path="url(#clip0_342_1892)">
<mask id="mask0_342_1892" style="mask-type:luminance" maskUnits="userSpaceOnUse" x="-1" y="-1" width="113" height="113">
<path d="M77.6722 4.35956C49.2734 -7.73164 16.4498 5.48826 4.35857 33.8871C-7.73264 62.2858 5.48728 95.1095 33.8861 107.201C62.2849 119.292 95.1085 106.072 107.2 77.6732C119.291 49.2744 106.071 16.4508 77.6722 4.35956Z" fill="white"/>
</mask>
<g mask="url(#mask0_342_1892)">
<path d="M110.534 66.9516C116.704 36.7084 97.1894 7.18955 66.9463 1.01931C36.7031 -5.15093 7.18425 14.364 1.01401 44.6071C-5.15623 74.8503 14.3587 104.369 44.6018 110.539C74.845 116.71 104.364 97.1947 110.534 66.9516Z" fill="#C8D93D"/>
</g>
<mask id="mask1_342_1892" style="mask-type:luminance" maskUnits="userSpaceOnUse" x="-1" y="-1" width="113" height="113">
<path d="M110.534 66.9516C116.704 36.7084 97.1894 7.18955 66.9463 1.01931C36.7031 -5.15094 7.18425 14.364 1.01401 44.6071C-5.15623 74.8503 14.3587 104.369 44.6018 110.539C74.845 116.71 104.364 97.1947 110.534 66.9516Z" fill="white"/>
</mask>
<g mask="url(#mask1_342_1892)">
<path d="M69.459 74.4594C69.459 74.4594 81.184 72.5984 83.41 84.0634C85.636 95.5294 91.515 157.543 91.515 157.543L87.317 159.301L75.953 95.9554C75.953 95.9554 76.248 78.7664 69.459 74.4594Z" fill="#DEAF76"/>
</g>
<mask id="mask2_342_1892" style="mask-type:luminance" maskUnits="userSpaceOnUse" x="-1" y="-1" width="113" height="113">
<path d="M110.534 66.9516C116.704 36.7084 97.1894 7.18955 66.9463 1.01931C36.7031 -5.15094 7.18425 14.364 1.01401 44.6071C-5.15623 74.8503 14.3587 104.369 44.6018 110.539C74.845 116.71 104.364 97.1947 110.534 66.9516Z" fill="white"/>
</mask>
<g mask="url(#mask2_342_1892)">
<path d="M42.0892 74.1024C42.0892 74.1024 30.2792 71.8034 28.0542 83.2694C25.8282 94.7354 19.9492 156.749 19.9492 156.749L24.1472 158.508L35.5112 95.1624C35.5112 95.1624 35.3002 78.4094 42.0892 74.1024Z" fill="#DEAF76"/>
</g>
<mask id="mask3_342_1892" style="mask-type:luminance" maskUnits="userSpaceOnUse" x="-1" y="-1" width="113" height="113">
<path d="M110.534 66.9516C116.704 36.7084 97.1894 7.18955 66.9463 1.01931C36.7031 -5.15094 7.18425 14.364 1.01401 44.6071C-5.15623 74.8503 14.3587 104.369 44.6018 110.539C74.845 116.71 104.364 97.1947 110.534 66.9516Z" fill="white"/>
</mask>
<g mask="url(#mask3_342_1892)">
<path d="M43.3714 73.7307C49.3264 72.7927 57.4434 71.5867 67.5534 73.7967C72.3864 74.8537 75.7214 80.1907 75.6544 85.1377C75.5064 96.0977 77.3264 114.692 78.4884 119.543C80.7954 129.181 69.1824 132.338 56.5534 131.673C43.9244 131.008 34.8034 131.623 34.6184 119.875C34.4514 109.199 34.6654 105.58 34.5844 83.5797C34.5634 78.0297 37.8874 74.5947 43.3714 73.7307Z" fill="#3398DB"/>
</g>
<mask id="mask4_342_1892" style="mask-type:luminance" maskUnits="userSpaceOnUse" x="-1" y="-1" width="113" height="113">
<path d="M110.534 66.9516C116.704 36.7084 97.1894 7.18955 66.9463 1.01931C36.7031 -5.15094 7.18425 14.364 1.01401 44.6071C-5.15623 74.8503 14.3587 104.369 44.6018 110.539C74.845 116.71 104.364 97.1947 110.534 66.9516Z" fill="white"/>
</mask>
<g mask="url(#mask4_342_1892)">
<path d="M75.953 95.9566L76.455 98.7546H85.424C84.636 92.0816 83.925 86.7176 83.41 84.0636C81.184 72.5976 69.459 74.4596 69.459 74.4596C76.248 78.7666 75.953 95.9566 75.953 95.9566Z" fill="#3398DB"/>
</g>
<mask id="mask5_342_1892" style="mask-type:luminance" maskUnits="userSpaceOnUse" x="-1" y="-1" width="113" height="113">
<path d="M110.534 66.9516C116.704 36.7084 97.1894 7.18955 66.9463 1.01931C36.7031 -5.15094 7.18425 14.364 1.01401 44.6071C-5.15623 74.8503 14.3587 104.369 44.6018 110.539C74.845 116.71 104.364 97.1947 110.534 66.9516Z" fill="white"/>
</mask>
<g mask="url(#mask5_342_1892)">
<path d="M34.8643 98.7574L35.5093 95.1614C35.5093 95.1614 35.2993 78.4084 42.0883 74.1024C42.0883 74.1024 30.2783 71.8034 28.0533 83.2694C27.5183 86.0274 26.7713 91.7154 25.9453 98.7574H34.8643Z" fill="#3398DB"/>
</g>
<mask id="mask6_342_1892" style="mask-type:luminance" maskUnits="userSpaceOnUse" x="-1" y="-1" width="113" height="113">
<path d="M110.534 66.9516C116.704 36.7084 97.1894 7.18955 66.9463 1.01931C36.7031 -5.15094 7.18425 14.364 1.01401 44.6071C-5.15623 74.8503 14.3587 104.369 44.6018 110.539C74.845 116.71 104.364 97.1947 110.534 66.9516Z" fill="white"/>
</mask>
<g mask="url(#mask6_342_1892)">
<path d="M56.1435 79.1331C59.3645 79.1331 61.9755 76.5221 61.9755 73.3001V65.0941C61.9755 63.7981 60.9245 62.7461 59.6275 62.7461H52.6585C51.3625 62.7461 50.3105 63.7971 50.3105 65.0941V73.3001C50.3115 76.5221 52.9215 79.1331 56.1435 79.1331Z" fill="#DEAF76"/>
</g>
<mask id="mask7_342_1892" style="mask-type:luminance" maskUnits="userSpaceOnUse" x="-1" y="-1" width="113" height="113">
<path d="M110.534 66.9516C116.704 36.7084 97.1894 7.18955 66.9463 1.01931C36.7031 -5.15094 7.18425 14.364 1.01401 44.6071C-5.15623 74.8503 14.3587 104.369 44.6018 110.539C74.845 116.71 104.364 97.1947 110.534 66.9516Z" fill="white"/>
</mask>
<g mask="url(#mask7_342_1892)">
<path d="M50.3145 72.5372V66.6602H61.9795V72.8612C58.2415 73.6842 54.0085 73.5512 50.3145 72.5372Z" fill="#CA9561"/>
</g>
<mask id="mask8_342_1892" style="mask-type:luminance" maskUnits="userSpaceOnUse" x="-1" y="-1" width="113" height="113">
<path d="M110.534 66.9516C116.704 36.7084 97.1894 7.18955 66.9463 1.01931C36.7031 -5.15094 7.18425 14.364 1.01401 44.6071C-5.15623 74.8503 14.3587 104.369 44.6018 110.539C74.845 116.71 104.364 97.1947 110.534 66.9516Z" fill="white"/>
</mask>
<g mask="url(#mask8_342_1892)">
<path d="M83.8693 31.6795C83.8693 31.6795 86.5433 70.2035 56.2523 70.0285C25.8983 69.8535 28.8623 30.2785 28.8623 30.2785C28.8623 30.2785 28.6983 12.9325 58.9913 12.2105C67.3853 12.0105 75.4873 15.8935 80.2153 22.8315C81.8893 25.2875 83.2403 28.2215 83.8693 31.6795Z" fill="#DEAF76"/>
</g>
<mask id="mask9_342_1892" style="mask-type:luminance" maskUnits="userSpaceOnUse" x="-1" y="-1" width="113" height="113">
<path d="M110.534 66.9516C116.704 36.7084 97.1894 7.18955 66.9463 1.01931C36.7031 -5.15094 7.18425 14.364 1.01401 44.6071C-5.15623 74.8503 14.3587 104.369 44.6018 110.539C74.845 116.71 104.364 97.1947 110.534 66.9516Z" fill="white"/>
</mask>
<g mask="url(#mask9_342_1892)">
<path d="M42.4247 19.9616C42.7987 20.0346 42.9007 20.5486 42.6457 20.7976C41.7407 21.6776 40.7017 22.2256 39.6217 22.8106C44.4707 27.5996 50.1107 29.2076 56.9057 29.4406C60.5847 29.5666 64.3527 29.3606 67.9357 28.4746C70.9687 27.7246 73.8487 26.4916 76.9097 25.8356C77.2537 25.7616 77.5057 25.9846 77.5427 26.3176C77.9097 29.6446 80.6407 32.5366 83.7047 33.2096C83.6867 32.5966 83.6627 32.2586 83.6627 32.2586C83.0337 28.7996 81.6827 25.8656 80.0087 23.4096C75.2797 16.4716 67.1787 12.5886 58.7847 12.7886C45.4627 13.1056 38.0347 16.6386 33.8887 20.4966C36.6937 19.9056 39.4787 19.3866 42.4247 19.9616Z" fill="#D0A16F"/>
</g>
<mask id="mask10_342_1892" style="mask-type:luminance" maskUnits="userSpaceOnUse" x="-1" y="-1" width="113" height="113">
<path d="M110.534 66.9516C116.704 36.7084 97.1894 7.18955 66.9463 1.01931C36.7031 -5.15094 7.18425 14.364 1.01401 44.6071C-5.15623 74.8503 14.3587 104.369 44.6018 110.539C74.845 116.71 104.364 97.1947 110.534 66.9516Z" fill="white"/>
</mask>
<g mask="url(#mask10_342_1892)">
<path d="M73.0557 60.8547C79.4917 55.7407 82.6007 47.7287 82.7547 39.7447C82.8547 34.5527 81.9187 29.4427 80.9247 24.3477C82.2507 26.1967 83.3227 28.5867 83.8847 31.6767C83.8847 31.6767 86.5587 70.2007 56.2677 70.0257C48.9377 69.9837 43.5527 67.6427 39.5977 64.1187C50.2727 68.7247 64.2207 67.8747 73.0557 60.8547Z" fill="#D0A16F"/>
</g>
<mask id="mask11_342_1892" style="mask-type:luminance" maskUnits="userSpaceOnUse" x="-1" y="-1" width="113" height="113">
<path d="M110.534 66.9516C116.704 36.7084 97.1894 7.18955 66.9463 1.01931C36.7031 -5.15094 7.18425 14.364 1.01401 44.6071C-5.15623 74.8503 14.3587 104.369 44.6018 110.539C74.845 116.71 104.364 97.1947 110.534 66.9516Z" fill="white"/>
</mask>
<g mask="url(#mask11_342_1892)">
<path d="M64.7578 33.9568C64.7988 35.8568 64.2648 37.4188 63.5668 37.4448C62.8668 37.4698 62.2678 35.9518 62.2268 34.0508C62.1858 32.1508 62.7188 30.5888 63.4188 30.5628C64.1168 30.5368 64.7168 32.0558 64.7578 33.9568Z" fill="#181818"/>
</g>
<mask id="mask12_342_1892" style="mask-type:luminance" maskUnits="userSpaceOnUse" x="-1" y="-1" width="113" height="113">
<path d="M110.534 66.9516C116.704 36.7084 97.1894 7.18955 66.9463 1.01931C36.7031 -5.15094 7.18425 14.364 1.01401 44.6071C-5.15623 74.8503 14.3587 104.369 44.6018 110.539C74.845 116.71 104.364 97.1947 110.534 66.9516Z" fill="white"/>
</mask>
<g mask="url(#mask12_342_1892)">
<path d="M50.7578 33.9578C50.7988 35.8578 50.2658 37.4198 49.5668 37.4458C48.8678 37.4718 48.2678 35.9528 48.2268 34.0518C48.1858 32.1518 48.7198 30.5898 49.4178 30.5628C50.1168 30.5378 50.7168 32.0568 50.7578 33.9578Z" fill="#181818"/>
</g>
<mask id="mask13_342_1892" style="mask-type:luminance" maskUnits="userSpaceOnUse" x="-1" y="-1" width="113" height="113">
<path d="M110.534 66.9516C116.704 36.7084 97.1894 7.18955 66.9463 1.01931C36.7031 -5.15094 7.18425 14.364 1.01401 44.6071C-5.15623 74.8503 14.3587 104.369 44.6018 110.539C74.845 116.71 104.364 97.1947 110.534 66.9516Z" fill="white"/>
</mask>
<g mask="url(#mask13_342_1892)">
<path d="M83.0915 35.8299C83.0915 35.8299 100.393 24.3079 99.8765 44.9039C99.7845 48.5619 98.3035 52.1329 95.5865 54.4919C92.0695 57.5459 86.1525 58.9759 77.4805 49.5559L83.0915 35.8299Z" fill="#DEAF76"/>
</g>
<mask id="mask14_342_1892" style="mask-type:luminance" maskUnits="userSpaceOnUse" x="-1" y="-1" width="113" height="113">
<path d="M110.534 66.9516C116.704 36.7084 97.1894 7.18955 66.9463 1.01931C36.7031 -5.15094 7.18425 14.364 1.01401 44.6071C-5.15623 74.8503 14.3587 104.369 44.6018 110.539C74.845 116.71 104.364 97.1947 110.534 66.9516Z" fill="white"/>
</mask>
<g mask="url(#mask14_342_1892)">
<path d="M92.333 44.1345C91.895 46.6265 89.5469 48.2975 87.0889 47.8655C84.6299 47.4335 82.991 45.0645 83.428 42.5715C83.866 40.0795 86.2129 38.4095 88.6719 38.8415C91.1309 39.2725 92.77 41.6425 92.333 44.1345Z" fill="#CA9561"/>
</g>
<mask id="mask15_342_1892" style="mask-type:luminance" maskUnits="userSpaceOnUse" x="-1" y="-1" width="113" height="113">
<path d="M110.534 66.9516C116.704 36.7084 97.1894 7.18955 66.9463 1.01931C36.7031 -5.15094 7.18425 14.364 1.01401 44.6071C-5.15623 74.8503 14.3587 104.369 44.6018 110.539C74.845 116.71 104.364 97.1947 110.534 66.9516Z" fill="white"/>
</mask>
<g mask="url(#mask15_342_1892)">
<path d="M80.3594 44.4759C80.3594 44.4759 87.3954 34.9419 93.2914 40.8799C93.2914 40.8799 87.5394 32.7529 80.3594 44.4759Z" fill="#CA9561"/>
</g>
<mask id="mask16_342_1892" style="mask-type:luminance" maskUnits="userSpaceOnUse" x="-1" y="-1" width="113" height="113">
<path d="M110.534 66.9516C116.704 36.7084 97.1894 7.18955 66.9463 1.01931C36.7031 -5.15094 7.18425 14.364 1.01401 44.6071C-5.15623 74.8503 14.3587 104.369 44.6018 110.539C74.845 116.71 104.364 97.1947 110.534 66.9516Z" fill="white"/>
</mask>
<g mask="url(#mask16_342_1892)">
<path d="M31.6753 34.5955C31.6753 34.5955 14.3733 23.0735 14.8903 43.6695C14.9823 47.3275 16.4623 50.8985 19.1793 53.2565C22.6963 56.3105 28.6133 57.7405 37.2853 48.3205L31.6753 34.5955Z" fill="#DEAF76"/>
</g>
<mask id="mask17_342_1892" style="mask-type:luminance" maskUnits="userSpaceOnUse" x="-1" y="-1" width="113" height="113">
<path d="M110.534 66.9516C116.704 36.7084 97.1894 7.18955 66.9463 1.01931C36.7031 -5.15094 7.18425 14.364 1.01401 44.6071C-5.15623 74.8503 14.3587 104.369 44.6018 110.539C74.845 116.71 104.364 97.1947 110.534 66.9516Z" fill="white"/>
</mask>
<g mask="url(#mask17_342_1892)">
<path d="M19.5119 43.4343C19.9499 45.9263 22.2979 47.5973 24.7559 47.1653C27.2149 46.7333 28.8539 44.3643 28.4169 41.8723C27.9789 39.3803 25.6319 37.7103 23.1729 38.1423C20.7139 38.5723 19.0749 40.9423 19.5119 43.4343Z" fill="#CA9561"/>
</g>
<mask id="mask18_342_1892" style="mask-type:luminance" maskUnits="userSpaceOnUse" x="-1" y="-1" width="113" height="113">
<path d="M110.534 66.9516C116.704 36.7084 97.1894 7.18955 66.9463 1.01931C36.7031 -5.15094 7.18425 14.364 1.01401 44.6071C-5.15623 74.8503 14.3587 104.369 44.6018 110.539C74.845 116.71 104.364 97.1947 110.534 66.9516Z" fill="white"/>
</mask>
<g mask="url(#mask18_342_1892)">
<path d="M31.4867 43.772C31.4867 43.772 24.4497 34.238 18.5547 40.176C18.5547 40.176 24.3067 32.05 31.4867 43.772Z" fill="#CA9561"/>
</g>
<mask id="mask19_342_1892" style="mask-type:luminance" maskUnits="userSpaceOnUse" x="-1" y="-1" width="113" height="113">
<path d="M110.534 66.9516C116.704 36.7084 97.1894 7.18955 66.9463 1.01931C36.7031 -5.15094 7.18425 14.364 1.01401 44.6071C-5.15623 74.8503 14.3587 104.369 44.6018 110.539C74.845 116.71 104.364 97.1947 110.534 66.9516Z" fill="white"/>
</mask>
<g mask="url(#mask19_342_1892)">
<path d="M67.3486 40.8645C67.2436 44.2905 70.0356 47.1445 73.5826 47.2385C77.1296 47.3315 80.0906 44.6305 80.1956 41.2045C80.2996 37.7775 77.5086 34.9245 73.9616 34.8305C70.4146 34.7365 67.4536 37.4385 67.3486 40.8645Z" fill="#D68A64"/>
</g>
<mask id="mask20_342_1892" style="mask-type:luminance" maskUnits="userSpaceOnUse" x="-1" y="-1" width="113" height="113">
<path d="M110.534 66.9516C116.704 36.7084 97.1894 7.18955 66.9463 1.01931C36.7031 -5.15094 7.18425 14.364 1.01401 44.6071C-5.15623 74.8503 14.3587 104.369 44.6018 110.539C74.845 116.71 104.364 97.1947 110.534 66.9516Z" fill="white"/>
</mask>
<g mask="url(#mask20_342_1892)">
<path d="M32.243 40.8645C32.139 44.2905 34.9291 47.1445 38.4771 47.2385C42.0241 47.3315 44.985 44.6305 45.09 41.2045C45.194 37.7775 42.403 34.9245 38.856 34.8305C35.309 34.7365 32.348 37.4385 32.243 40.8645Z" fill="#D68A64"/>
</g>
<mask id="mask21_342_1892" style="mask-type:luminance" maskUnits="userSpaceOnUse" x="-1" y="-1" width="113" height="113">
<path d="M110.534 66.9516C116.704 36.7084 97.1894 7.18955 66.9463 1.01931C36.7031 -5.15094 7.18425 14.364 1.01401 44.6071C-5.15623 74.8503 14.3587 104.369 44.6018 110.539C74.845 116.71 104.364 97.1947 110.534 66.9516Z" fill="white"/>
</mask>
<g mask="url(#mask21_342_1892)">
<path d="M75.6913 89.7001C68.7703 97.4581 56.4044 101.038 46.8414 96.1011C43.6764 94.4671 40.2794 89.9071 38.4374 87.1681C37.4444 85.6931 36.1243 84.4691 34.5853 83.5781C34.5853 83.5781 34.4524 109.197 34.6194 119.873C34.8034 131.622 43.9253 131.006 56.5543 131.671C69.1833 132.336 80.7963 129.178 78.4893 119.541C77.4773 115.313 75.9653 100.654 75.6913 89.7001Z" fill="#1A87C4"/>
</g>
<mask id="mask22_342_1892" style="mask-type:luminance" maskUnits="userSpaceOnUse" x="-1" y="-1" width="113" height="113">
<path d="M110.534 66.9516C116.704 36.7084 97.1894 7.18955 66.9463 1.01931C36.7031 -5.15094 7.18425 14.364 1.01401 44.6071C-5.15623 74.8503 14.3587 104.369 44.6018 110.539C74.845 116.71 104.364 97.1947 110.534 66.9516Z" fill="white"/>
</mask>
<g mask="url(#mask22_342_1892)">
<path d="M54.0257 38.7796C55.9207 39.4916 58.0317 39.4476 59.8537 38.5706C59.8827 38.5566 59.9117 38.5426 59.9397 38.5286C62.8187 37.1236 65.4977 41.2896 61.9147 43.7616C58.3327 46.2346 52.8957 45.8946 50.4857 43.1586C48.3777 40.7646 50.3417 37.3936 54.0257 38.7796Z" fill="#2C2C2B"/>
<mask id="mask23_342_1892" style="mask-type:luminance" maskUnits="userSpaceOnUse" x="49" y="38" width="15" height="8">
<path d="M54.0257 38.7796C55.9207 39.4916 58.0317 39.4476 59.8537 38.5706C59.8827 38.5566 59.9117 38.5426 59.9397 38.5286C62.8187 37.1236 65.4977 41.2896 61.9147 43.7616C58.3327 46.2346 52.8957 45.8946 50.4857 43.1586C48.3777 40.7646 50.3417 37.3936 54.0257 38.7796Z" fill="white"/>
</mask>
<g mask="url(#mask23_342_1892)">
<path d="M61.9229 43.8767C61.9229 43.8767 62.2649 40.7907 56.8969 43.2237C56.8969 43.2237 52.4439 40.7937 51.1719 43.8997C51.1719 43.8997 55.5069 47.8147 61.9229 43.8767Z" fill="#D04642"/>
</g>
<mask id="mask24_342_1892" style="mask-type:luminance" maskUnits="userSpaceOnUse" x="49" y="38" width="15" height="8">
<path d="M54.0902 38.7064C55.9852 39.4184 58.0962 39.3744 59.9182 38.4964C59.9472 38.4824 59.9762 38.4684 60.0042 38.4544C62.8832 37.0494 65.5622 41.2154 61.9792 43.6874C58.3972 46.1604 52.9602 45.8204 50.5502 43.0844C48.4422 40.6914 50.4062 37.3204 54.0902 38.7064Z" fill="white"/>
</mask>
<g mask="url(#mask24_342_1892)">
<path d="M63.1905 38.0627C63.1905 38.0627 64.7325 40.0947 60.9955 40.7567C59.7725 40.9737 53.3915 41.3197 52.0945 41.1227C48.4995 40.5747 49.6765 38.4697 49.6765 38.4697C49.6765 38.4697 61.8575 36.5827 63.1905 38.0627Z" fill="white"/>
</g>
</g>
<mask id="mask25_342_1892" style="mask-type:luminance" maskUnits="userSpaceOnUse" x="-1" y="-1" width="113" height="113">
<path d="M110.534 66.9516C116.704 36.7084 97.1894 7.18955 66.9463 1.01931C36.7031 -5.15094 7.18425 14.364 1.01401 44.6071C-5.15623 74.8503 14.3587 104.369 44.6018 110.539C74.845 116.71 104.364 97.1947 110.534 66.9516Z" fill="white"/>
</mask>
<g mask="url(#mask25_342_1892)">
<path d="M83.9159 35.3289C83.9159 35.3289 81.4169 34.8199 77.4169 22.8199C77.4169 22.8199 57.4169 33.8199 35.4169 22.8199C35.4169 22.8199 42.4169 23.8199 45.4169 20.8199C45.4169 20.8199 32.1529 15.238 28.7849 33.029C28.7849 33.029 18.4169 12.8199 52.4169 9.81995C52.4169 9.81995 49.4169 3.81995 54.4169 7.81995C54.4169 7.81995 61.4169 2.81995 58.4169 9.81995C58.4169 9.81995 89.4149 13.8379 83.9159 35.3289Z" fill="#F3EBD1"/>
</g>
<mask id="mask26_342_1892" style="mask-type:luminance" maskUnits="userSpaceOnUse" x="-1" y="-1" width="113" height="113">
<path d="M110.534 66.9516C116.704 36.7084 97.1894 7.18955 66.9463 1.01931C36.7031 -5.15094 7.18425 14.364 1.01401 44.6071C-5.15623 74.8503 14.3587 104.369 44.6018 110.539C74.845 116.71 104.364 97.1947 110.534 66.9516Z" fill="white"/>
</mask>
<g mask="url(#mask26_342_1892)">
<path d="M72.4168 73.8211C72.4168 73.8211 88.4168 69.8211 88.4168 121.821L74.4168 130.821C74.4168 130.821 76.1038 88.2971 61.7598 80.0591L72.4168 73.8211Z" fill="#EF201B"/>
</g>
<mask id="mask27_342_1892" style="mask-type:luminance" maskUnits="userSpaceOnUse" x="-1" y="-1" width="113" height="113">
<path d="M110.534 66.9516C116.704 36.7084 97.1894 7.18955 66.9463 1.01931C36.7031 -5.15094 7.18425 14.364 1.01401 44.6071C-5.15623 74.8503 14.3587 104.369 44.6018 110.539C74.845 116.71 104.364 97.1947 110.534 66.9516Z" fill="white"/>
</mask>
<g mask="url(#mask27_342_1892)">
<path d="M40.416 64.8215C40.416 64.8215 50.126 72.6405 73.771 63.7305L75.3 74.8815C75.3 74.8815 60.416 88.8205 39.416 74.8205L40.416 64.8215Z" fill="#FF3F33"/>
</g>
<mask id="mask28_342_1892" style="mask-type:luminance" maskUnits="userSpaceOnUse" x="-1" y="-1" width="113" height="113">
<path d="M110.534 66.9516C116.704 36.7084 97.1894 7.18955 66.9463 1.01931C36.7031 -5.15094 7.18425 14.364 1.01401 44.6071C-5.15623 74.8503 14.3587 104.369 44.6018 110.539C74.845 116.71 104.364 97.1947 110.534 66.9516Z" fill="white"/>
</mask>
<g mask="url(#mask28_342_1892)">
<path d="M82.1523 24.928C79.6353 24.509 78.0073 22.325 75.8603 21.162C72.5203 19.353 68.8633 21.829 65.6593 22.872C60.7613 24.466 53.2553 23.406 48.9963 20.418C48.0423 19.749 47.4493 18.753 46.6343 17.947C45.1953 16.524 43.9233 16.746 42.0823 16.82C39.1023 16.939 36.0593 17.243 33.1163 16.635C32.9033 16.591 32.7493 16.36 32.7493 16.153C32.7493 16.014 32.7903 15.881 32.8453 15.75C23.5073 22.735 28.7843 33.029 28.7843 33.029C32.1523 15.238 45.4163 20.82 45.4163 20.82C42.4163 23.82 35.4163 22.82 35.4163 22.82C57.4163 33.82 77.4163 22.82 77.4163 22.82C81.4163 34.82 83.9153 35.329 83.9153 35.329C84.9433 31.311 84.6943 27.905 83.6123 25.02C83.1493 25.08 82.6403 25.009 82.1523 24.928Z" fill="#E5D9B7"/>
</g>
</g>
<defs>
<clipPath id="clip0_342_1892">
<rect width="111.78" height="111.78" fill="white"/>
</clipPath>
</defs>
</svg>
