<svg width="112" height="112" viewBox="0 0 112 112" fill="none" xmlns="http://www.w3.org/2000/svg">
<mask id="mask0_341_1331" style="mask-type:luminance" maskUnits="userSpaceOnUse" x="0" y="0" width="112" height="112">
<path d="M55.889 111.778C86.7556 111.778 111.778 86.7556 111.778 55.889C111.778 25.0224 86.7556 0 55.889 0C25.0224 0 0 25.0224 0 55.889C0 86.7556 25.0224 111.778 55.889 111.778Z" fill="white"/>
</mask>
<g mask="url(#mask0_341_1331)">
<path d="M55.889 111.778C86.7556 111.778 111.778 86.7556 111.778 55.889C111.778 25.0224 86.7556 0 55.889 0C25.0224 0 0 25.0224 0 55.889C0 86.7556 25.0224 111.778 55.889 111.778Z" fill="#F27404"/>
</g>
<mask id="mask1_341_1331" style="mask-type:luminance" maskUnits="userSpaceOnUse" x="0" y="0" width="112" height="112">
<path d="M55.889 111.778C86.7556 111.778 111.778 86.7556 111.778 55.889C111.778 25.0224 86.7556 0 55.889 0C25.0224 0 0 25.0224 0 55.889C0 86.7556 25.0224 111.778 55.889 111.778Z" fill="white"/>
</mask>
<g mask="url(#mask1_341_1331)">
<path d="M67.498 79.8888C67.498 79.8888 78.772 78.0988 80.912 89.1238C83.052 100.148 88.706 159.776 88.706 159.776L84.669 161.466L73.742 100.557C73.742 100.557 74.026 84.0298 67.498 79.8888Z" fill="#DEAF76"/>
</g>
<mask id="mask2_341_1331" style="mask-type:luminance" maskUnits="userSpaceOnUse" x="0" y="0" width="112" height="112">
<path d="M55.889 111.778C86.7556 111.778 111.778 86.7556 111.778 55.889C111.778 25.0224 86.7556 0 55.889 0C25.0224 0 0 25.0224 0 55.889C0 86.7556 25.0224 111.778 55.889 111.778Z" fill="white"/>
</mask>
<g mask="url(#mask2_341_1331)">
<path d="M42.4163 79.1855C48.1423 78.2835 55.9473 77.1235 65.6673 79.2485C70.3143 80.2645 73.5203 85.3955 73.4573 90.1525C73.3153 100.692 75.0653 118.57 76.1823 123.235C78.4003 132.502 67.2353 135.537 55.0913 134.897C42.9493 134.258 34.1783 134.851 34.0003 123.554C33.8403 113.288 34.0463 109.808 33.9673 88.6555C33.9483 83.3185 37.1443 80.0155 42.4163 79.1855Z" fill="#18384D"/>
</g>
<mask id="mask3_341_1331" style="mask-type:luminance" maskUnits="userSpaceOnUse" x="0" y="0" width="112" height="112">
<path d="M55.889 111.778C86.7556 111.778 111.778 86.7556 111.778 55.889C111.778 25.0224 86.7556 0 55.889 0C25.0224 0 0 25.0224 0 55.889C0 86.7556 25.0224 111.778 55.889 111.778Z" fill="white"/>
</mask>
<g mask="url(#mask3_341_1331)">
<path d="M73.7411 100.558L74.2241 103.249H82.8471C82.0891 96.8318 81.4061 91.6748 80.9101 89.1238C78.7701 78.0988 67.4961 79.8888 67.4961 79.8888C74.0251 84.0298 73.7411 100.558 73.7411 100.558Z" fill="#18384D"/>
</g>
<mask id="mask4_341_1331" style="mask-type:luminance" maskUnits="userSpaceOnUse" x="0" y="0" width="112" height="112">
<path d="M55.889 111.778C86.7556 111.778 111.778 86.7556 111.778 55.889C111.778 25.0224 86.7556 0 55.889 0C25.0224 0 0 25.0224 0 55.889C0 86.7556 25.0224 111.778 55.889 111.778Z" fill="white"/>
</mask>
<g mask="url(#mask4_341_1331)">
<path d="M41.5908 79.8888C41.5908 79.8888 30.3178 78.0988 28.1768 89.1238C26.0368 100.148 20.3828 159.776 20.3828 159.776L24.4198 161.466L35.3468 100.557C35.3468 100.557 35.0638 84.0298 41.5908 79.8888Z" fill="#DEAF76"/>
</g>
<mask id="mask5_341_1331" style="mask-type:luminance" maskUnits="userSpaceOnUse" x="0" y="0" width="112" height="112">
<path d="M55.889 111.778C86.7556 111.778 111.778 86.7556 111.778 55.889C111.778 25.0224 86.7556 0 55.889 0C25.0224 0 0 25.0224 0 55.889C0 86.7556 25.0224 111.778 55.889 111.778Z" fill="white"/>
</mask>
<g mask="url(#mask5_341_1331)">
<path d="M35.3463 100.558L34.8633 103.249H26.2402C26.9982 96.8318 27.6812 91.6748 28.1762 89.1238C30.3172 78.0988 41.5902 79.8888 41.5902 79.8888C35.0632 84.0298 35.3463 100.558 35.3463 100.558Z" fill="#18384D"/>
</g>
<mask id="mask6_341_1331" style="mask-type:luminance" maskUnits="userSpaceOnUse" x="0" y="0" width="112" height="112">
<path d="M55.889 111.778C86.7556 111.778 111.778 86.7556 111.778 55.889C111.778 25.0224 86.7556 0 55.889 0C25.0224 0 0 25.0224 0 55.889C0 86.7556 25.0224 111.778 55.889 111.778Z" fill="white"/>
</mask>
<g mask="url(#mask6_341_1331)">
<path d="M54.6969 84.3849C57.7949 84.3849 60.3049 81.8739 60.3049 78.7779V70.8869C60.3049 69.6399 59.2939 68.6289 58.0469 68.6289H51.3459C50.0989 68.6289 49.0879 69.6399 49.0879 70.8869V78.7779C49.0879 81.8739 51.5989 84.3849 54.6969 84.3849Z" fill="#DEAF76"/>
</g>
<mask id="mask7_341_1331" style="mask-type:luminance" maskUnits="userSpaceOnUse" x="0" y="0" width="112" height="112">
<path d="M55.889 111.778C86.7556 111.778 111.778 86.7556 111.778 55.889C111.778 25.0224 86.7556 0 55.889 0C25.0224 0 0 25.0224 0 55.889C0 86.7556 25.0224 111.778 55.889 111.778Z" fill="white"/>
</mask>
<g mask="url(#mask7_341_1331)">
<path d="M49.0918 78.0377V72.3867H60.3078V78.3487C56.7138 79.1397 52.6438 79.0117 49.0918 78.0377Z" fill="#CA9561"/>
</g>
<mask id="mask8_341_1331" style="mask-type:luminance" maskUnits="userSpaceOnUse" x="0" y="0" width="112" height="112">
<path d="M55.889 111.778C86.7556 111.778 111.778 86.7556 111.778 55.889C111.778 25.0224 86.7556 0 55.889 0C25.0224 0 0 25.0224 0 55.889C0 86.7556 25.0224 111.778 55.889 111.778Z" fill="white"/>
</mask>
<g mask="url(#mask8_341_1331)">
<path d="M81.3558 38.7505C81.3558 38.7505 83.9268 75.7925 54.8008 75.6245C25.6148 75.4555 28.4648 37.4035 28.4648 37.4035C28.4648 37.4035 28.3078 20.7245 57.4348 20.0305C65.5058 19.8385 73.2958 23.5705 77.8418 30.2425C79.4518 32.6045 80.7508 35.4255 81.3558 38.7505Z" fill="#DEAF76"/>
</g>
<mask id="mask9_341_1331" style="mask-type:luminance" maskUnits="userSpaceOnUse" x="0" y="0" width="112" height="112">
<path d="M55.889 111.778C86.7556 111.778 111.778 86.7556 111.778 55.889C111.778 25.0224 86.7556 0 55.889 0C25.0224 0 0 25.0224 0 55.889C0 86.7556 25.0224 111.778 55.889 111.778Z" fill="white"/>
</mask>
<g mask="url(#mask9_341_1331)">
<path d="M70.9561 66.8061C77.1441 61.8891 80.1342 54.1851 80.2812 46.5091C80.3772 41.5161 79.4771 36.6031 78.5211 31.7031C79.7961 33.4811 80.8282 35.7791 81.3682 38.7501C81.3682 38.7501 83.9391 75.7921 54.8131 75.6241C47.7661 75.5831 42.5872 73.3331 38.7852 69.9441C49.0502 74.3721 62.4611 73.5551 70.9561 66.8061Z" fill="#D0A16F"/>
</g>
<mask id="mask10_341_1331" style="mask-type:luminance" maskUnits="userSpaceOnUse" x="0" y="0" width="112" height="112">
<path d="M55.889 111.778C86.7556 111.778 111.778 86.7556 111.778 55.889C111.778 25.0224 86.7556 0 55.889 0C25.0224 0 0 25.0224 0 55.889C0 86.7556 25.0224 111.778 55.889 111.778Z" fill="white"/>
</mask>
<g mask="url(#mask10_341_1331)">
<path d="M62.9791 40.943C63.0181 42.77 62.5052 44.272 61.8332 44.297C61.1612 44.321 60.5842 42.862 60.5452 41.033C60.5052 39.207 61.0182 37.705 61.6912 37.68C62.3632 37.655 62.9391 39.116 62.9791 40.943Z" fill="#181818"/>
</g>
<mask id="mask11_341_1331" style="mask-type:luminance" maskUnits="userSpaceOnUse" x="0" y="0" width="112" height="112">
<path d="M55.889 111.778C86.7556 111.778 111.778 86.7556 111.778 55.889C111.778 25.0224 86.7556 0 55.889 0C25.0224 0 0 25.0224 0 55.889C0 86.7556 25.0224 111.778 55.889 111.778Z" fill="white"/>
</mask>
<g mask="url(#mask11_341_1331)">
<path d="M49.5181 40.943C49.5571 42.77 49.0441 44.272 48.3731 44.297C47.7011 44.321 47.1241 42.862 47.0841 41.033C47.0451 39.207 47.5581 37.705 48.2291 37.68C48.9011 37.656 49.4781 39.116 49.5181 40.943Z" fill="#181818"/>
</g>
<mask id="mask12_341_1331" style="mask-type:luminance" maskUnits="userSpaceOnUse" x="0" y="0" width="112" height="112">
<path d="M55.889 111.778C86.7556 111.778 111.778 86.7556 111.778 55.889C111.778 25.0224 86.7556 0 55.889 0C25.0224 0 0 25.0224 0 55.889C0 86.7556 25.0224 111.778 55.889 111.778Z" fill="white"/>
</mask>
<g mask="url(#mask12_341_1331)">
<path d="M80.6088 42.7455C80.6088 42.7455 97.2458 31.6665 96.7478 51.4705C96.6598 54.9875 95.2358 58.4205 92.6238 60.6895C89.2418 63.6265 83.5538 65.0015 75.2148 55.9425L80.6088 42.7455Z" fill="#DEAF76"/>
</g>
<mask id="mask13_341_1331" style="mask-type:luminance" maskUnits="userSpaceOnUse" x="0" y="0" width="112" height="112">
<path d="M55.889 111.778C86.7556 111.778 111.778 86.7556 111.778 55.889C111.778 25.0224 86.7556 0 55.889 0C25.0224 0 0 25.0224 0 55.889C0 86.7556 25.0224 111.778 55.889 111.778Z" fill="white"/>
</mask>
<g mask="url(#mask13_341_1331)">
<path d="M87.6128 53.6434C87.2138 55.9214 85.0668 57.4494 82.8188 57.0544C80.5708 56.6594 79.0728 54.4924 79.4728 52.2144C79.8718 49.9364 82.0188 48.4094 84.2668 48.8044C86.5138 49.1994 88.0128 51.3654 87.6128 53.6434Z" fill="#CA9561"/>
</g>
<mask id="mask14_341_1331" style="mask-type:luminance" maskUnits="userSpaceOnUse" x="0" y="0" width="112" height="112">
<path d="M55.889 111.778C86.7556 111.778 111.778 86.7556 111.778 55.889C111.778 25.0224 86.7556 0 55.889 0C25.0224 0 0 25.0224 0 55.889C0 86.7556 25.0224 111.778 55.889 111.778Z" fill="white"/>
</mask>
<g mask="url(#mask14_341_1331)">
<path d="M77.9805 51.0594C77.9805 51.0594 84.7465 41.8934 90.4155 47.6024C90.4155 47.6024 84.8845 39.7884 77.9805 51.0594Z" fill="#CA9561"/>
</g>
<mask id="mask15_341_1331" style="mask-type:luminance" maskUnits="userSpaceOnUse" x="0" y="0" width="112" height="112">
<path d="M55.889 111.778C86.7556 111.778 111.778 86.7556 111.778 55.889C111.778 25.0224 86.7556 0 55.889 0C25.0224 0 0 25.0224 0 55.889C0 86.7556 25.0224 111.778 55.889 111.778Z" fill="white"/>
</mask>
<g mask="url(#mask15_341_1331)">
<path d="M31.1695 41.558C31.1695 41.558 14.5325 30.479 15.0305 50.283C15.1185 53.8 16.5425 57.233 19.1545 59.502C22.5365 62.438 28.2245 63.813 36.5635 54.756L31.1695 41.558Z" fill="#DEAF76"/>
</g>
<mask id="mask16_341_1331" style="mask-type:luminance" maskUnits="userSpaceOnUse" x="0" y="0" width="112" height="112">
<path d="M55.889 111.778C86.7556 111.778 111.778 86.7556 111.778 55.889C111.778 25.0224 86.7556 0 55.889 0C25.0224 0 0 25.0224 0 55.889C0 86.7556 25.0224 111.778 55.889 111.778Z" fill="white"/>
</mask>
<g mask="url(#mask16_341_1331)">
<path d="M19.4743 50.0577C19.8943 52.4537 22.1523 54.0597 24.5163 53.6447C26.8803 53.2297 28.4563 50.9517 28.0363 48.5547C27.6153 46.1587 25.3583 44.5527 22.9943 44.9677C20.6293 45.3827 19.0533 47.6617 19.4743 50.0577Z" fill="#CA9561"/>
</g>
<mask id="mask17_341_1331" style="mask-type:luminance" maskUnits="userSpaceOnUse" x="0" y="0" width="112" height="112">
<path d="M55.889 111.778C86.7556 111.778 111.778 86.7556 111.778 55.889C111.778 25.0224 86.7556 0 55.889 0C25.0224 0 0 25.0224 0 55.889C0 86.7556 25.0224 111.778 55.889 111.778Z" fill="white"/>
</mask>
<g mask="url(#mask17_341_1331)">
<path d="M30.9877 50.3837C30.9877 50.3837 24.2217 41.2167 18.5527 46.9267C18.5527 46.9267 24.0827 39.1127 30.9877 50.3837Z" fill="#CA9561"/>
</g>
<mask id="mask18_341_1331" style="mask-type:luminance" maskUnits="userSpaceOnUse" x="0" y="0" width="112" height="112">
<path d="M55.889 111.778C86.7556 111.778 111.778 86.7556 111.778 55.889C111.778 25.0224 86.7556 0 55.889 0C25.0224 0 0 25.0224 0 55.889C0 86.7556 25.0224 111.778 55.889 111.778Z" fill="white"/>
</mask>
<g mask="url(#mask18_341_1331)">
<path d="M65.4696 47.5855C65.3686 50.8805 68.0526 53.6235 71.4636 53.7145C74.8746 53.8045 77.7216 51.2055 77.8216 47.9115C77.9226 44.6165 75.2386 41.8735 71.8286 41.7835C68.4176 41.6945 65.5716 44.2915 65.4696 47.5855Z" fill="#D68A64"/>
</g>
<mask id="mask19_341_1331" style="mask-type:luminance" maskUnits="userSpaceOnUse" x="0" y="0" width="112" height="112">
<path d="M55.889 111.778C86.7556 111.778 111.778 86.7556 111.778 55.889C111.778 25.0224 86.7556 0 55.889 0C25.0224 0 0 25.0224 0 55.889C0 86.7556 25.0224 111.778 55.889 111.778Z" fill="white"/>
</mask>
<g mask="url(#mask19_341_1331)">
<path d="M31.7157 47.5855C31.6147 50.8805 34.2987 53.6235 37.7097 53.7145C41.1207 53.8045 43.9677 51.2055 44.0677 47.9115C44.1677 44.6165 41.4847 41.8735 38.0737 41.7835C34.6637 41.6945 31.8167 44.2915 31.7157 47.5855Z" fill="#D68A64"/>
</g>
<mask id="mask20_341_1331" style="mask-type:luminance" maskUnits="userSpaceOnUse" x="0" y="0" width="112" height="112">
<path d="M55.889 111.778C86.7556 111.778 111.778 86.7556 111.778 55.889C111.778 25.0224 86.7556 0 55.889 0C25.0224 0 0 25.0224 0 55.889C0 86.7556 25.0224 111.778 55.889 111.778Z" fill="white"/>
</mask>
<g mask="url(#mask20_341_1331)">
<path d="M73.4917 94.5432C66.8377 102.002 54.9467 105.444 45.7527 100.698C42.7097 99.1272 39.4427 94.7422 37.6717 92.1082C36.7167 90.6892 35.4477 89.5123 33.9677 88.6562C33.9677 88.6562 33.8407 113.289 34.0007 123.554C34.1787 134.851 42.9487 134.259 55.0917 134.898C67.2357 135.538 78.4007 132.502 76.1827 123.235C75.2097 119.17 73.7557 105.075 73.4917 94.5432Z" fill="#0F2B3A"/>
</g>
<mask id="mask21_341_1331" style="mask-type:luminance" maskUnits="userSpaceOnUse" x="0" y="0" width="112" height="112">
<path d="M55.889 111.778C86.7556 111.778 111.778 86.7556 111.778 55.889C111.778 25.0224 86.7556 0 55.889 0C25.0224 0 0 25.0224 0 55.889C0 86.7556 25.0224 111.778 55.889 111.778Z" fill="white"/>
</mask>
<g mask="url(#mask21_341_1331)">
<path d="M52.9529 45.7672C54.7489 46.4432 56.7509 46.4012 58.4779 45.5692C58.5049 45.5552 58.5329 45.5432 58.5599 45.5292C61.2889 44.1982 63.8289 48.1472 60.4319 50.4912C57.0359 52.8352 51.8819 52.5122 49.5969 49.9192C47.5989 47.6492 49.4599 44.4542 52.9529 45.7672Z" fill="#2C2C2B"/>
<mask id="mask22_341_1331" style="mask-type:luminance" maskUnits="userSpaceOnUse" x="48" y="45" width="15" height="8">
<path d="M52.9529 45.7672C54.7489 46.4432 56.7509 46.4012 58.4779 45.5692C58.5049 45.5552 58.5329 45.5432 58.5599 45.5292C61.2889 44.1982 63.8289 48.1472 60.4319 50.4912C57.0359 52.8352 51.8819 52.5122 49.5969 49.9192C47.5989 47.6492 49.4599 44.4542 52.9529 45.7672Z" fill="white"/>
</mask>
<g mask="url(#mask22_341_1331)">
<path d="M60.441 50.599C60.441 50.599 60.765 47.673 55.675 49.98C55.675 49.98 51.454 47.676 50.248 50.621C50.248 50.621 54.358 54.332 60.441 50.599Z" fill="#D04642"/>
</g>
<mask id="mask23_341_1331" style="mask-type:luminance" maskUnits="userSpaceOnUse" x="48" y="45" width="15" height="7">
<path d="M53.0159 45.6969C54.8119 46.3729 56.8139 46.3309 58.5409 45.4989C58.5679 45.4849 58.5949 45.4729 58.6229 45.4589C61.3509 44.1279 63.8919 48.0759 60.4949 50.4209C57.0989 52.7649 51.9449 52.4429 49.6599 49.8489C47.6609 47.5789 49.5229 44.3829 53.0159 45.6969Z" fill="white"/>
</mask>
<g mask="url(#mask23_341_1331)">
<path d="M61.6437 45.0879C61.6437 45.0879 63.1057 47.0149 59.5637 47.6419C58.4037 47.8469 52.3537 48.1759 51.1247 47.9889C47.7177 47.4689 48.8327 45.4739 48.8327 45.4739C48.8327 45.4739 60.3807 43.6849 61.6437 45.0879Z" fill="white"/>
</g>
</g>
<mask id="mask24_341_1331" style="mask-type:luminance" maskUnits="userSpaceOnUse" x="0" y="0" width="112" height="112">
<path d="M55.889 111.778C86.7556 111.778 111.778 86.7556 111.778 55.889C111.778 25.0224 86.7556 0 55.889 0C25.0224 0 0 25.0224 0 55.889C0 86.7556 25.0224 111.778 55.889 111.778Z" fill="white"/>
</mask>
<g mask="url(#mask24_341_1331)">
<path d="M28.3899 40.0492C28.3899 40.0492 36.3329 35.9702 40.3329 26.3032C40.3329 26.3032 43.7499 33.3862 60.9169 25.8862C60.9169 25.8862 68.0829 32.9492 69.8949 28.8242C69.8949 28.8242 76.6869 44.8532 81.4269 42.2452C86.1659 39.6372 78.9159 24.3872 78.9159 24.3872C78.9159 24.3872 81.4569 26.1372 80.2069 22.2622C78.9569 18.3872 60.1059 14.0122 60.1059 14.0122C60.1059 14.0122 65.3769 10.2202 62.9799 9.2202C60.5819 8.2202 57.3319 12.3032 57.3319 12.3032C57.3319 12.3032 55.5819 10.0532 54.0819 9.6362C52.5819 9.2192 49.4159 10.3032 54.1659 13.8862C54.1659 13.8862 42.1659 12.5532 34.2489 19.6362C34.2489 19.6362 31.9989 21.4692 35.7489 21.3862C35.7489 21.3862 25.4269 28.1202 23.7539 38.5862C23.7539 38.5862 26.0859 38.8372 28.3899 40.0492Z" fill="#F2CB03"/>
</g>
<mask id="mask25_341_1331" style="mask-type:luminance" maskUnits="userSpaceOnUse" x="0" y="0" width="112" height="112">
<path d="M55.889 111.778C86.7556 111.778 111.778 86.7556 111.778 55.889C111.778 25.0224 86.7556 0 55.889 0C25.0224 0 0 25.0224 0 55.889C0 86.7556 25.0224 111.778 55.889 111.778Z" fill="white"/>
</mask>
<g mask="url(#mask25_341_1331)">
<path d="M52.1453 56.3906C52.1453 56.3906 55.0204 57.7036 58.5834 56.3906C58.5834 56.3906 59.8334 58.6406 59.2714 60.7656L58.5214 59.3906C58.5214 59.3906 58.7294 62.8286 55.7824 63.3286V61.3906C55.7824 61.3906 55.1464 63.8906 53.0214 64.8906C53.0214 64.8906 52.2084 61.2656 52.4584 59.3906L51.6464 61.0156C51.6464 61.0156 50.3953 58.6406 52.1453 56.3906Z" fill="#F2CB03"/>
</g>
<mask id="mask26_341_1331" style="mask-type:luminance" maskUnits="userSpaceOnUse" x="0" y="0" width="112" height="112">
<path d="M55.889 111.778C86.7556 111.778 111.778 86.7556 111.778 55.889C111.778 25.0224 86.7556 0 55.889 0C25.0224 0 0 25.0224 0 55.889C0 86.7556 25.0224 111.778 55.889 111.778Z" fill="white"/>
</mask>
<g mask="url(#mask26_341_1331)">
<path d="M54.1661 13.8891C54.1661 13.8891 48.4361 13.2541 42.2821 15.1981C41.2301 16.0731 40.0731 17.3811 41.7531 18.3531C42.6481 18.8711 44.2231 18.4771 45.1161 18.2411C45.6791 18.0931 45.9701 18.8531 45.5011 19.1551C44.7101 19.6651 43.3411 20.5621 43.0081 21.5091C42.2731 23.6001 44.7931 24.1551 46.4551 23.8131C49.0651 23.2751 51.3481 21.4721 53.3951 19.8701C53.7011 19.6311 54.2841 19.7411 54.2491 20.2241C54.0951 22.3541 56.3361 22.8591 58.0531 22.7231C59.9341 22.5731 62.1361 21.4961 60.2291 19.5781C59.7721 19.1181 60.4611 18.4421 60.9361 18.8711C63.5021 21.1821 67.2901 22.5041 70.6861 21.3651C72.4871 20.7611 73.5471 19.6321 74.0681 18.2551C68.1411 15.8811 60.1061 14.0161 60.1061 14.0161C60.1061 14.0161 65.3771 10.2241 62.9801 9.2241C60.5821 8.2241 57.3321 12.3071 57.3321 12.3071C57.3321 12.3071 55.5821 10.0571 54.0821 9.6401C52.5821 9.2231 49.4161 10.3061 54.1661 13.8891Z" fill="#FFD62C"/>
</g>
<mask id="mask27_341_1331" style="mask-type:luminance" maskUnits="userSpaceOnUse" x="0" y="0" width="112" height="112">
<path d="M55.889 111.778C86.7556 111.778 111.778 86.7556 111.778 55.889C111.778 25.0224 86.7556 0 55.889 0C25.0224 0 0 25.0224 0 55.889C0 86.7556 25.0224 111.778 55.889 111.778Z" fill="white"/>
</mask>
<g mask="url(#mask27_341_1331)">
<path d="M51.9681 56.6446C51.9591 56.6666 51.9401 56.6826 51.9281 56.7036C51.9121 56.7256 51.9031 56.7546 51.8841 56.7716C51.4871 57.8416 51.0511 59.1926 51.5191 59.7156C51.4921 60.0996 51.6851 60.1516 52.0971 59.8726C52.2531 59.6266 52.4011 59.3756 52.5421 59.1206C52.7591 58.7606 52.9641 58.4246 53.2281 58.0986C53.4601 57.8136 53.9951 57.9696 54.0641 58.3196C54.1341 58.6746 54.1711 60.1936 54.4931 60.3806C54.7511 60.5306 55.4041 59.0786 55.6501 58.7006C55.8781 58.3506 56.4531 58.3856 56.5641 58.8196C56.9081 60.1556 57.4381 59.1266 57.8541 58.3836C58.1981 57.7686 58.4461 57.1536 58.6461 56.5156C58.6071 56.4386 58.5811 56.3906 58.5811 56.3906C55.0181 57.7036 52.1431 56.3906 52.1431 56.3906C52.0791 56.4746 52.0261 56.5596 51.9681 56.6446Z" fill="#FFD62C"/>
</g>
<mask id="mask28_341_1331" style="mask-type:luminance" maskUnits="userSpaceOnUse" x="0" y="0" width="112" height="112">
<path d="M55.889 111.778C86.7556 111.778 111.778 86.7556 111.778 55.889C111.778 25.0224 86.7556 0 55.889 0C25.0224 0 0 25.0224 0 55.889C0 86.7556 25.0224 111.778 55.889 111.778Z" fill="white"/>
</mask>
<g mask="url(#mask28_341_1331)">
<path d="M53.0013 88.6562H49.6113V92.0462H53.0013V88.6562Z" fill="#E84C3D"/>
<path d="M49.6117 92.0469H46.2207V95.4379H49.6117V92.0469Z" fill="#E84C3D"/>
<path d="M53.0013 92.0469H49.6113V95.4379H53.0013V92.0469Z" fill="#E84C3D"/>
<path d="M56.391 92.0469H53V95.4379H56.391V92.0469Z" fill="#E84C3D"/>
<path d="M49.6117 95.4375H46.2207V98.8275H49.6117V95.4375Z" fill="#E84C3D"/>
<path d="M46.2201 95.4375H42.8301V98.8275H46.2201V95.4375Z" fill="#E84C3D"/>
<path d="M53.0013 95.4375H49.6113V98.8275H53.0013V95.4375Z" fill="#E84C3D"/>
<path d="M56.391 95.4375H53V98.8275H56.391V95.4375Z" fill="#E84C3D"/>
<path d="M53.0013 98.8281H49.6113V102.219H53.0013V98.8281Z" fill="#E84C3D"/>
<path d="M56.3914 102.215H49.6113V105.605H56.3914V102.215Z" fill="#E84C3D"/>
<path d="M49.6117 98.8281H46.2207V102.219H49.6117V98.8281Z" fill="#E84C3D"/>
<path d="M56.391 98.8281H53V102.219H56.391V98.8281Z" fill="#E84C3D"/>
<path d="M56.391 105.605H53V108.996H56.391V105.605Z" fill="#E84C3D"/>
<path d="M56.3913 92.0469H59.7812V88.6569H56.3913V92.0469Z" fill="#E84C3D"/>
<path d="M59.7809 95.4375H63.1719V92.0465H59.7809V95.4375Z" fill="#E84C3D"/>
<path d="M56.3913 95.4375H59.7812V92.0465H56.3913V95.4375Z" fill="#E84C3D"/>
<path d="M52.9996 95.4375H56.3906V92.0465H52.9996V95.4375Z" fill="#E84C3D"/>
<path d="M59.7809 98.8242H63.1719V95.4342H59.7809V98.8242Z" fill="#E84C3D"/>
<path d="M63.1706 98.8242H66.5605V95.4342H63.1706V98.8242Z" fill="#E84C3D"/>
<path d="M56.3913 98.8242H59.7812V95.4342H56.3913V98.8242Z" fill="#E84C3D"/>
<path d="M52.9996 98.8242H56.3906V95.4342H52.9996V98.8242Z" fill="#E84C3D"/>
<path d="M56.3913 102.215H59.7812V98.8238H56.3913V102.215Z" fill="#E84C3D"/>
<path d="M53.0013 105.605H59.7812V102.215H53.0013V105.605Z" fill="#E84C3D"/>
<path d="M59.7809 102.215H63.1719V98.8238H59.7809V102.215Z" fill="#E84C3D"/>
<path d="M52.9996 102.215H56.3906V98.8238H52.9996V102.215Z" fill="#E84C3D"/>
<path d="M52.9996 108.996H56.3906V105.605H52.9996V108.996Z" fill="#E84C3D"/>
</g>
</svg>
