<svg width="112" height="112" viewBox="0 0 112 112" fill="none" xmlns="http://www.w3.org/2000/svg">
<mask id="mask0_341_1706" style="mask-type:luminance" maskUnits="userSpaceOnUse" x="0" y="0" width="112" height="112">
<path d="M55.889 111.778C86.7556 111.778 111.778 86.7556 111.778 55.889C111.778 25.0224 86.7556 0 55.889 0C25.0224 0 0 25.0224 0 55.889C0 86.7556 25.0224 111.778 55.889 111.778Z" fill="white"/>
</mask>
<g mask="url(#mask0_341_1706)">
<path d="M55.889 111.778C86.7556 111.778 111.778 86.7556 111.778 55.889C111.778 25.0224 86.7556 0 55.889 0C25.0224 0 0 25.0224 0 55.889C0 86.7556 25.0224 111.778 55.889 111.778Z" fill="#54ACD2"/>
</g>
<mask id="mask1_341_1706" style="mask-type:luminance" maskUnits="userSpaceOnUse" x="0" y="0" width="112" height="112">
<path d="M55.889 111.778C86.7556 111.778 111.778 86.7556 111.778 55.889C111.778 25.0224 86.7556 0 55.889 0C25.0224 0 0 25.0224 0 55.889C0 86.7556 25.0224 111.778 55.889 111.778Z" fill="white"/>
</mask>
<g mask="url(#mask1_341_1706)">
<path d="M57.1691 20.6659H56.9081C56.9081 20.6659 18.6521 12.8709 27.4161 73.9689C28.1901 79.3689 30.9391 84.3489 35.2781 87.6579C39.9981 91.2589 47.1711 93.5619 57.0381 88.5419C66.9061 93.5629 74.0791 91.2589 78.7991 87.6579C83.1371 84.3489 85.8861 79.3699 86.6601 73.9689C95.4241 12.8709 57.1691 20.6659 57.1691 20.6659Z" fill="#F27404"/>
</g>
<mask id="mask2_341_1706" style="mask-type:luminance" maskUnits="userSpaceOnUse" x="0" y="0" width="112" height="112">
<path d="M55.889 111.778C86.7556 111.778 111.778 86.7556 111.778 55.889C111.778 25.0224 86.7556 0 55.889 0C25.0224 0 0 25.0224 0 55.889C0 86.7556 25.0224 111.778 55.889 111.778Z" fill="white"/>
</mask>
<g mask="url(#mask2_341_1706)">
<path d="M65.6309 75.2503C65.6309 75.2503 75.0889 73.7493 76.8839 82.9973C78.6799 92.2463 83.4229 142.268 83.4229 142.268L80.0359 143.687L70.8689 92.5893C70.8689 92.5893 71.1069 78.7233 65.6309 75.2503Z" fill="#DEAF76"/>
</g>
<mask id="mask3_341_1706" style="mask-type:luminance" maskUnits="userSpaceOnUse" x="0" y="0" width="112" height="112">
<path d="M55.889 111.778C86.7556 111.778 111.778 86.7556 111.778 55.889C111.778 25.0224 86.7556 0 55.889 0C25.0224 0 0 25.0224 0 55.889C0 86.7556 25.0224 111.778 55.889 111.778Z" fill="white"/>
</mask>
<g mask="url(#mask3_341_1706)">
<path d="M45.5877 74.6619C50.3907 73.9049 56.9387 72.9329 65.0927 74.7149C68.9907 75.5669 71.6817 79.8729 71.6277 83.8629C71.5087 92.7039 72.9767 107.702 73.9137 111.616C75.7737 119.389 66.4067 121.936 56.2207 121.4C46.0327 120.864 38.6757 121.36 38.5277 111.883C38.3927 103.271 38.5657 100.352 38.5007 82.6069C38.4827 78.1289 41.1647 75.3579 45.5877 74.6619Z" fill="#A34373"/>
</g>
<mask id="mask4_341_1706" style="mask-type:luminance" maskUnits="userSpaceOnUse" x="0" y="0" width="112" height="112">
<path d="M55.889 111.778C86.7556 111.778 111.778 86.7556 111.778 55.889C111.778 25.0224 86.7556 0 55.889 0C25.0224 0 0 25.0224 0 55.889C0 86.7556 25.0224 111.778 55.889 111.778Z" fill="white"/>
</mask>
<g mask="url(#mask4_341_1706)">
<path d="M70.8679 92.5903L71.2729 94.8483H78.5069C77.8709 89.4653 77.2979 85.1383 76.8819 82.9973C75.0869 73.7493 65.6289 75.2503 65.6289 75.2503C71.1059 78.7233 70.8679 92.5903 70.8679 92.5903Z" fill="#A34373"/>
</g>
<mask id="mask5_341_1706" style="mask-type:luminance" maskUnits="userSpaceOnUse" x="0" y="0" width="112" height="112">
<path d="M55.889 111.778C86.7556 111.778 111.778 86.7556 111.778 55.889C111.778 25.0224 86.7556 0 55.889 0C25.0224 0 0 25.0224 0 55.889C0 86.7556 25.0224 111.778 55.889 111.778Z" fill="white"/>
</mask>
<g mask="url(#mask5_341_1706)">
<path d="M47.3711 75.2503C47.3711 75.2503 37.9131 73.7493 36.1181 82.9973C34.3221 92.2463 29.5801 142.268 29.5801 142.268L32.9661 143.687L42.1331 92.5893C42.1331 92.5893 41.8941 78.7233 47.3711 75.2503Z" fill="#DEAF76"/>
</g>
<mask id="mask6_341_1706" style="mask-type:luminance" maskUnits="userSpaceOnUse" x="0" y="0" width="112" height="112">
<path d="M55.889 111.778C86.7556 111.778 111.778 86.7556 111.778 55.889C111.778 25.0224 86.7556 0 55.889 0C25.0224 0 0 25.0224 0 55.889C0 86.7556 25.0224 111.778 55.889 111.778Z" fill="white"/>
</mask>
<g mask="url(#mask6_341_1706)">
<path d="M42.1312 92.5903L41.7262 94.8483H34.4922C35.1282 89.4653 35.7012 85.1383 36.1172 82.9973C37.9122 73.7493 47.3702 75.2503 47.3702 75.2503C41.8932 78.7233 42.1312 92.5903 42.1312 92.5903Z" fill="#A34373"/>
</g>
<mask id="mask7_341_1706" style="mask-type:luminance" maskUnits="userSpaceOnUse" x="0" y="0" width="112" height="112">
<path d="M55.889 111.778C86.7556 111.778 111.778 86.7556 111.778 55.889C111.778 25.0224 86.7556 0 55.889 0C25.0224 0 0 25.0224 0 55.889C0 86.7556 25.0224 111.778 55.889 111.778Z" fill="white"/>
</mask>
<g mask="url(#mask7_341_1706)">
<path d="M55.8886 79.0227C58.4876 79.0227 60.5926 76.9167 60.5926 74.3177V67.6987C60.5926 66.6527 59.7446 65.8047 58.6996 65.8047H53.0786C52.0326 65.8047 51.1836 66.6527 51.1836 67.6987V74.3177C51.1836 76.9167 53.2906 79.0227 55.8886 79.0227Z" fill="#DEAF76"/>
</g>
<mask id="mask8_341_1706" style="mask-type:luminance" maskUnits="userSpaceOnUse" x="0" y="0" width="112" height="112">
<path d="M55.889 111.778C86.7556 111.778 111.778 86.7556 111.778 55.889C111.778 25.0224 86.7556 0 55.889 0C25.0224 0 0 25.0224 0 55.889C0 86.7556 25.0224 111.778 55.889 111.778Z" fill="white"/>
</mask>
<g mask="url(#mask8_341_1706)">
<path d="M51.1875 73.698V68.957H60.5965V73.959C57.5825 74.623 54.1685 74.516 51.1875 73.698Z" fill="#CA9561"/>
</g>
<mask id="mask9_341_1706" style="mask-type:luminance" maskUnits="userSpaceOnUse" x="0" y="0" width="112" height="112">
<path d="M55.889 111.778C86.7556 111.778 111.778 86.7556 111.778 55.889C111.778 25.0224 86.7556 0 55.889 0C25.0224 0 0 25.0224 0 55.889C0 86.7556 25.0224 111.778 55.889 111.778Z" fill="white"/>
</mask>
<g mask="url(#mask9_341_1706)">
<path d="M78.2551 40.7402C78.2551 40.7402 80.4112 71.8142 55.9782 71.6742C31.4932 71.5322 33.8841 39.6112 33.8841 39.6112C33.8841 39.6112 33.7512 25.6192 58.1872 25.0372C64.9582 24.8752 71.4931 28.0072 75.3071 33.6032C76.6581 35.5842 77.7481 37.9502 78.2551 40.7402Z" fill="#DEAF76"/>
</g>
<mask id="mask10_341_1706" style="mask-type:luminance" maskUnits="userSpaceOnUse" x="0" y="0" width="112" height="112">
<path d="M55.889 111.778C86.7556 111.778 111.778 86.7556 111.778 55.889C111.778 25.0224 86.7556 0 55.889 0C25.0224 0 0 25.0224 0 55.889C0 86.7556 25.0224 111.778 55.889 111.778Z" fill="white"/>
</mask>
<g mask="url(#mask10_341_1706)">
<path d="M69.5309 64.2761C74.7229 60.1511 77.2309 53.6871 77.3549 47.2481C77.4349 43.0601 76.68 38.9381 75.878 34.8281C76.947 36.3191 77.813 38.2481 78.266 40.7401C78.266 40.7401 80.423 71.8141 55.989 71.6741C50.077 71.6401 45.733 69.7521 42.543 66.9091C51.154 70.6241 62.4049 69.9381 69.5309 64.2761Z" fill="#D0A16F"/>
</g>
<mask id="mask11_341_1706" style="mask-type:luminance" maskUnits="userSpaceOnUse" x="0" y="0" width="112" height="112">
<path d="M55.889 111.778C86.7556 111.778 111.778 86.7556 111.778 55.889C111.778 25.0224 86.7556 0 55.889 0C25.0224 0 0 25.0224 0 55.889C0 86.7556 25.0224 111.778 55.889 111.778Z" fill="white"/>
</mask>
<g mask="url(#mask11_341_1706)">
<path d="M62.8377 42.5781C62.8707 44.1111 62.4407 45.3711 61.8777 45.3921C61.3137 45.4131 60.8297 44.1871 60.7967 42.6541C60.7637 41.1221 61.1927 39.8621 61.7577 39.8401C62.3207 39.8201 62.8047 41.0461 62.8377 42.5781Z" fill="#181818"/>
</g>
<mask id="mask12_341_1706" style="mask-type:luminance" maskUnits="userSpaceOnUse" x="0" y="0" width="112" height="112">
<path d="M55.889 111.778C86.7556 111.778 111.778 86.7556 111.778 55.889C111.778 25.0224 86.7556 0 55.889 0C25.0224 0 0 25.0224 0 55.889C0 86.7556 25.0224 111.778 55.889 111.778Z" fill="white"/>
</mask>
<g mask="url(#mask12_341_1706)">
<path d="M51.5457 42.5781C51.5787 44.1111 51.1487 45.3711 50.5847 45.3921C50.0207 45.4131 49.5367 44.1871 49.5037 42.6551C49.4707 41.1221 49.9007 39.8621 50.4647 39.8401C51.0277 39.8201 51.5117 41.0461 51.5457 42.5781Z" fill="#181818"/>
</g>
<mask id="mask13_341_1706" style="mask-type:luminance" maskUnits="userSpaceOnUse" x="0" y="0" width="112" height="112">
<path d="M55.889 111.778C86.7556 111.778 111.778 86.7556 111.778 55.889C111.778 25.0224 86.7556 0 55.889 0C25.0224 0 0 25.0224 0 55.889C0 86.7556 25.0224 111.778 55.889 111.778Z" fill="white"/>
</mask>
<g mask="url(#mask13_341_1706)">
<path d="M77.6276 44.0919C77.6276 44.0919 91.5836 34.7969 91.1666 51.4109C91.0926 54.3609 89.8975 57.2409 87.7065 59.1439C84.8695 61.6079 80.0976 62.7609 73.1016 55.1629L77.6276 44.0919Z" fill="#DEAF76"/>
</g>
<mask id="mask14_341_1706" style="mask-type:luminance" maskUnits="userSpaceOnUse" x="0" y="0" width="112" height="112">
<path d="M55.889 111.778C86.7556 111.778 111.778 86.7556 111.778 55.889C111.778 25.0224 86.7556 0 55.889 0C25.0224 0 0 25.0224 0 55.889C0 86.7556 25.0224 111.778 55.889 111.778Z" fill="white"/>
</mask>
<g mask="url(#mask14_341_1706)">
<path d="M85.0818 50.7896C84.7288 52.7996 82.8358 54.1466 80.8518 53.7996C78.8688 53.4506 77.5458 51.5396 77.8988 49.5286C78.2518 47.5186 80.1458 46.1716 82.1288 46.5196C84.1128 46.8676 85.4338 48.7796 85.0818 50.7896Z" fill="#CA9561"/>
</g>
<mask id="mask15_341_1706" style="mask-type:luminance" maskUnits="userSpaceOnUse" x="0" y="0" width="112" height="112">
<path d="M55.889 111.778C86.7556 111.778 111.778 86.7556 111.778 55.889C111.778 25.0224 86.7556 0 55.889 0C25.0224 0 0 25.0224 0 55.889C0 86.7556 25.0224 111.778 55.889 111.778Z" fill="white"/>
</mask>
<g mask="url(#mask15_341_1706)">
<path d="M75.4238 51.0662C75.4238 51.0662 81.0998 43.3762 85.8558 48.1662C85.8558 48.1662 81.2148 41.6102 75.4238 51.0662Z" fill="#CA9561"/>
</g>
<mask id="mask16_341_1706" style="mask-type:luminance" maskUnits="userSpaceOnUse" x="0" y="0" width="112" height="112">
<path d="M55.889 111.778C86.7556 111.778 111.778 86.7556 111.778 55.889C111.778 25.0224 86.7556 0 55.889 0C25.0224 0 0 25.0224 0 55.889C0 86.7556 25.0224 111.778 55.889 111.778Z" fill="white"/>
</mask>
<g mask="url(#mask16_341_1706)">
<path d="M36.1536 43.0954C36.1536 43.0954 22.1976 33.8014 22.6146 50.4144C22.6886 53.3644 23.8836 56.2444 26.0746 58.1474C28.9116 60.6114 33.6836 61.7645 40.6796 54.1655L36.1536 43.0954Z" fill="#DEAF76"/>
</g>
<mask id="mask17_341_1706" style="mask-type:luminance" maskUnits="userSpaceOnUse" x="0" y="0" width="112" height="112">
<path d="M55.889 111.778C86.7556 111.778 111.778 86.7556 111.778 55.889C111.778 25.0224 86.7556 0 55.889 0C25.0224 0 0 25.0224 0 55.889C0 86.7556 25.0224 111.778 55.889 111.778Z" fill="white"/>
</mask>
<g mask="url(#mask17_341_1706)">
<path d="M26.3422 50.2232C26.6952 52.2332 28.5892 53.5802 30.5722 53.2332C32.5552 52.8842 33.8782 50.9732 33.5242 48.9622C33.1712 46.9522 31.2782 45.6052 29.2952 45.9532C27.3112 46.3012 25.9892 48.2142 26.3422 50.2232Z" fill="#CA9561"/>
</g>
<mask id="mask18_341_1706" style="mask-type:luminance" maskUnits="userSpaceOnUse" x="0" y="0" width="112" height="112">
<path d="M55.889 111.778C86.7556 111.778 111.778 86.7556 111.778 55.889C111.778 25.0224 86.7556 0 55.889 0C25.0224 0 0 25.0224 0 55.889C0 86.7556 25.0224 111.778 55.889 111.778Z" fill="white"/>
</mask>
<g mask="url(#mask18_341_1706)">
<path d="M35.9994 50.5001C35.9994 50.5001 30.3234 42.8101 25.5684 47.6001C25.5684 47.6001 30.2074 41.0441 35.9994 50.5001Z" fill="#CA9561"/>
</g>
<mask id="mask19_341_1706" style="mask-type:luminance" maskUnits="userSpaceOnUse" x="0" y="0" width="112" height="112">
<path d="M55.889 111.778C86.7556 111.778 111.778 86.7556 111.778 55.889C111.778 25.0224 86.7556 0 55.889 0C25.0224 0 0 25.0224 0 55.889C0 86.7556 25.0224 111.778 55.889 111.778Z" fill="white"/>
</mask>
<g mask="url(#mask19_341_1706)">
<path d="M64.9261 48.1502C64.8421 50.9142 67.0931 53.2152 69.9541 53.2912C72.8151 53.3662 75.2041 51.1882 75.2891 48.4242C75.3721 45.6602 73.1221 43.3592 70.2611 43.2832C67.3991 43.2072 65.0111 45.3862 64.9261 48.1502Z" fill="#D68A64"/>
</g>
<mask id="mask20_341_1706" style="mask-type:luminance" maskUnits="userSpaceOnUse" x="0" y="0" width="112" height="112">
<path d="M55.889 111.778C86.7556 111.778 111.778 86.7556 111.778 55.889C111.778 25.0224 86.7556 0 55.889 0C25.0224 0 0 25.0224 0 55.889C0 86.7556 25.0224 111.778 55.889 111.778Z" fill="white"/>
</mask>
<g mask="url(#mask20_341_1706)">
<path d="M36.6117 48.1502C36.5267 50.9142 38.7777 53.2152 41.6397 53.2912C44.5007 53.3662 46.8887 51.1882 46.9737 48.4242C47.0577 45.6602 44.8067 43.3592 41.9457 43.2832C39.0847 43.2072 36.6957 45.3862 36.6117 48.1502Z" fill="#D68A64"/>
</g>
<mask id="mask21_341_1706" style="mask-type:luminance" maskUnits="userSpaceOnUse" x="0" y="0" width="112" height="112">
<path d="M55.889 111.778C86.7556 111.778 111.778 86.7556 111.778 55.889C111.778 25.0224 86.7556 0 55.889 0C25.0224 0 0 25.0224 0 55.889C0 86.7556 25.0224 111.778 55.889 111.778Z" fill="white"/>
</mask>
<g mask="url(#mask21_341_1706)">
<path d="M71.6574 87.6997C66.0754 93.9577 56.0994 96.8447 48.3864 92.8637C45.8334 91.5457 43.0934 87.8667 41.6074 85.6577C40.8064 84.4677 39.7424 83.4797 38.5014 82.7617C38.5014 82.7617 38.3944 103.427 38.5284 112.039C38.6764 121.516 46.0344 121.019 56.2214 121.556C66.4074 122.092 75.7754 119.545 73.9144 111.771C73.0984 108.36 71.8794 96.5357 71.6574 87.6997Z" fill="#8C3F63"/>
</g>
<mask id="mask22_341_1706" style="mask-type:luminance" maskUnits="userSpaceOnUse" x="0" y="0" width="112" height="112">
<path d="M55.889 111.778C86.7556 111.778 111.778 86.7556 111.778 55.889C111.778 25.0224 86.7556 0 55.889 0C25.0224 0 0 25.0224 0 55.889C0 86.7556 25.0224 111.778 55.889 111.778Z" fill="white"/>
</mask>
<g mask="url(#mask22_341_1706)">
<path d="M77.6272 44.0933C77.6272 44.0933 73.8702 44.7083 74.1232 37.3683C74.1232 37.3683 57.2702 38.2973 61.8162 29.9453C61.8162 29.9453 38.2932 48.5743 42.5412 34.8313C42.5412 34.8313 37.1102 44.3283 34.1482 41.9873C31.1852 39.6463 25.7872 19.1473 57.1682 20.6663C88.5482 22.1843 82.0572 40.6933 77.6272 44.0933Z" fill="#F27404"/>
</g>
<mask id="mask23_341_1706" style="mask-type:luminance" maskUnits="userSpaceOnUse" x="0" y="0" width="112" height="112">
<path d="M55.889 111.778C86.7556 111.778 111.778 86.7556 111.778 55.889C111.778 25.0224 86.7556 0 55.889 0C25.0224 0 0 25.0224 0 55.889C0 86.7556 25.0224 111.778 55.889 111.778Z" fill="white"/>
</mask>
<g mask="url(#mask23_341_1706)">
<path d="M79.2297 40.5228C75.7207 39.0838 76.2217 35.1808 75.8927 32.0778C72.3497 33.5698 68.9288 35.6578 65.1808 33.3478C62.4048 31.6358 62.8267 28.6828 63.3107 25.9258C59.7247 29.7458 55.8937 33.6318 50.8587 35.4248C49.1837 36.0208 46.8487 36.4878 45.3897 35.1538C44.0267 33.9078 44.3827 31.9198 44.2847 30.2188C42.2527 32.8498 40.5998 35.7528 38.2668 38.1548C36.9158 39.5458 35.2487 40.8168 33.4277 41.1228C33.6707 41.5088 33.9167 41.8018 34.1487 41.9848C37.1117 44.3258 42.5417 34.8288 42.5417 34.8288C38.2927 48.5718 61.8167 29.9428 61.8167 29.9428C57.2707 38.2948 74.1237 37.3658 74.1237 37.3658C73.8707 44.7058 77.6277 44.0908 77.6277 44.0908C78.4637 43.4488 79.3727 42.2688 80.0877 40.7668C79.8007 40.7128 79.5147 40.6388 79.2297 40.5228Z" fill="#C95D05"/>
</g>
<mask id="mask24_341_1706" style="mask-type:luminance" maskUnits="userSpaceOnUse" x="0" y="0" width="112" height="112">
<path d="M55.889 111.778C86.7556 111.778 111.778 86.7556 111.778 55.889C111.778 25.0224 86.7556 0 55.889 0C25.0224 0 0 25.0224 0 55.889C0 86.7556 25.0224 111.778 55.889 111.778Z" fill="white"/>
</mask>
<g mask="url(#mask24_341_1706)">
<path d="M54.0285 46.5028C55.6465 47.1118 57.4504 47.0728 59.0054 46.3238C59.0304 46.3118 59.0545 46.3008 59.0795 46.2878C61.5385 45.0888 63.8265 48.6458 60.7655 50.7588C57.7055 52.8698 53.0625 52.5798 51.0035 50.2428C49.2045 48.1978 50.8805 45.3188 54.0285 46.5028Z" fill="#2C2C2B"/>
<mask id="mask25_341_1706" style="mask-type:luminance" maskUnits="userSpaceOnUse" x="50" y="46" width="13" height="7">
<path d="M54.0285 46.5028C55.6465 47.1118 57.4504 47.0728 59.0054 46.3238C59.0304 46.3118 59.0545 46.3008 59.0795 46.2878C61.5385 45.0888 63.8265 48.6458 60.7655 50.7588C57.7055 52.8698 53.0625 52.5798 51.0035 50.2428C49.2045 48.1978 50.8805 45.3188 54.0285 46.5028Z" fill="white"/>
</mask>
<g mask="url(#mask25_341_1706)">
<path d="M60.7728 50.8562C60.7728 50.8562 61.0658 48.2202 56.4798 50.2982C56.4798 50.2982 52.6758 48.2232 51.5898 50.8752C51.5898 50.8752 55.2938 54.2192 60.7728 50.8562Z" fill="#D04642"/>
</g>
<mask id="mask26_341_1706" style="mask-type:luminance" maskUnits="userSpaceOnUse" x="50" y="45" width="13" height="8">
<path d="M54.0852 46.4403C55.7032 47.0493 57.5062 47.0103 59.0632 46.2613C59.0872 46.2493 59.1122 46.2383 59.1362 46.2253C61.5952 45.0263 63.8833 48.5833 60.8243 50.6963C57.7653 52.8073 53.1212 52.5174 51.0622 50.1804C49.2592 48.1354 50.9372 45.2563 54.0852 46.4403Z" fill="white"/>
</mask>
<g mask="url(#mask26_341_1706)">
<path d="M61.8576 45.8942C61.8576 45.8942 63.1736 47.6292 59.9826 48.1952C58.9376 48.3802 53.4876 48.6752 52.3786 48.5072C49.3086 48.0392 50.3136 46.2412 50.3136 46.2412C50.3136 46.2412 60.7186 44.6302 61.8576 45.8942Z" fill="white"/>
</g>
</g>
<mask id="mask27_341_1706" style="mask-type:luminance" maskUnits="userSpaceOnUse" x="0" y="0" width="112" height="112">
<path d="M55.889 111.778C86.7556 111.778 111.778 86.7556 111.778 55.889C111.778 25.0224 86.7556 0 55.889 0C25.0224 0 0 25.0224 0 55.889C0 86.7556 25.0224 111.778 55.889 111.778Z" fill="white"/>
</mask>
<g mask="url(#mask27_341_1706)">
<path d="M36.6774 37.0888C36.6924 39.3018 36.0094 41.0997 35.1544 41.1047C34.2984 41.1107 33.5924 39.3228 33.5784 37.1098C33.5634 34.8978 34.2454 33.0998 35.1014 33.0938C35.9574 33.0888 36.6634 34.8778 36.6774 37.0888Z" fill="#FFFCDB"/>
<path d="M39.4353 41.4345C37.3173 42.0735 35.4003 41.9265 35.1533 41.1065C34.9063 40.2875 36.4233 39.1056 38.5423 38.4676C40.6593 37.8286 42.5773 37.9766 42.8243 38.7956C43.0703 39.6156 41.5533 40.7975 39.4353 41.4345Z" fill="#FFFCDB"/>
<path d="M36.0479 45.3073C34.8379 43.4553 34.4379 41.5752 35.1549 41.1062C35.8719 40.6382 37.4329 41.7602 38.6429 43.6122C39.8529 45.4652 40.2529 47.3452 39.5359 47.8132C38.8189 48.2812 37.2569 47.1593 36.0479 45.3073Z" fill="#FFFCDB"/>
<path d="M31.3763 43.1467C32.8123 41.4627 34.5033 40.5487 35.1543 41.1037C35.8053 41.6597 35.1703 43.4737 33.7343 45.1577C32.2993 46.8417 30.6083 47.7557 29.9573 47.2007C29.3053 46.6447 29.9413 44.8307 31.3763 43.1467Z" fill="#FFFCDB"/>
<path d="M32.1292 38.0582C34.1492 38.9602 35.5032 40.3252 35.1542 41.1062C34.8052 41.8882 32.8842 41.7912 30.8652 40.8882C28.8452 39.9862 27.4902 38.6212 27.8402 37.8402C28.1882 37.0582 30.1082 37.1572 32.1292 38.0582Z" fill="#FFFCDB"/>
<path d="M34.0762 40.9732C34.0762 41.6302 34.6082 42.1622 35.2652 42.1622C35.9212 42.1622 36.4532 41.6302 36.4532 40.9732C36.4532 40.3172 35.9212 39.7852 35.2652 39.7852C34.6082 39.7852 34.0762 40.3172 34.0762 40.9732Z" fill="#FFE41D"/>
</g>
<mask id="mask28_341_1706" style="mask-type:luminance" maskUnits="userSpaceOnUse" x="0" y="0" width="112" height="112">
<path d="M55.889 111.778C86.7556 111.778 111.778 86.7556 111.778 55.889C111.778 25.0224 86.7556 0 55.889 0C25.0224 0 0 25.0224 0 55.889C0 86.7556 25.0224 111.778 55.889 111.778Z" fill="white"/>
</mask>
<g mask="url(#mask28_341_1706)">
<path d="M40.0589 33.9628C40.0649 34.8608 39.7879 35.5888 39.4419 35.5918C39.0949 35.5938 38.8089 34.8678 38.8029 33.9718C38.7959 33.0748 39.0739 32.3458 39.4199 32.3438C39.7669 32.3418 40.0529 33.0668 40.0589 33.9628Z" fill="#FFFCDB"/>
<path d="M41.1785 35.7234C40.3195 35.9824 39.5415 35.9224 39.4425 35.5904C39.3415 35.2574 39.9575 34.7794 40.8165 34.5204C41.6745 34.2614 42.4525 34.3214 42.5515 34.6534C42.6525 34.9854 42.0375 35.4654 41.1785 35.7234Z" fill="#FFFCDB"/>
<path d="M39.8033 37.2969C39.3133 36.5459 39.1503 35.7829 39.4413 35.5939C39.7313 35.4039 40.3653 35.8589 40.8553 36.6099C41.3453 37.3609 41.5083 38.1239 41.2173 38.3129C40.9273 38.5019 40.2943 38.0479 39.8033 37.2969Z" fill="#FFFCDB"/>
<path d="M37.911 36.4216C38.493 35.7386 39.18 35.3676 39.443 35.5936C39.707 35.8186 39.449 36.5536 38.867 37.2366C38.286 37.9196 37.599 38.2906 37.336 38.0646C37.072 37.8386 37.33 37.1036 37.911 36.4216Z" fill="#FFFCDB"/>
<path d="M38.2161 34.3572C39.0341 34.7222 39.5842 35.2762 39.4432 35.5932C39.3012 35.9092 38.5231 35.8692 37.7041 35.5042C36.8851 35.1382 36.3362 34.5852 36.4772 34.2682C36.6182 33.9522 37.3961 33.9912 38.2161 34.3572Z" fill="#FFFCDB"/>
<path d="M39.0059 35.5396C39.0059 35.8066 39.2219 36.0216 39.4879 36.0216C39.7549 36.0216 39.9699 35.8056 39.9699 35.5396C39.9699 35.2736 39.7539 35.0586 39.4879 35.0586C39.2209 35.0576 39.0059 35.2736 39.0059 35.5396Z" fill="#FFE41D"/>
</g>
<mask id="mask29_341_1706" style="mask-type:luminance" maskUnits="userSpaceOnUse" x="0" y="0" width="112" height="112">
<path d="M55.889 111.778C86.7556 111.778 111.778 86.7556 111.778 55.889C111.778 25.0224 86.7556 0 55.889 0C25.0224 0 0 25.0224 0 55.889C0 86.7556 25.0224 111.778 55.889 111.778Z" fill="white"/>
</mask>
<g mask="url(#mask29_341_1706)">
<path d="M32.049 34.12C32.055 35.016 31.7781 35.745 31.4321 35.748C31.0851 35.75 30.7991 35.024 30.7931 34.128C30.7871 33.232 31.0631 32.502 31.4101 32.5C31.7561 32.497 32.043 33.222 32.049 34.12Z" fill="#FFFCDB"/>
<path d="M33.1666 35.8796C32.3076 36.1386 31.5306 36.0786 31.4306 35.7466C31.3306 35.4146 31.9456 34.9346 32.8046 34.6766C33.6626 34.4176 34.4406 34.4776 34.5406 34.8096C34.6396 35.1416 34.0246 35.6216 33.1666 35.8796Z" fill="#FFFCDB"/>
<path d="M31.793 37.4493C31.303 36.6983 31.141 35.9353 31.431 35.7463C31.721 35.5563 32.355 36.0113 32.845 36.7623C33.336 37.5133 33.498 38.2763 33.207 38.4653C32.917 38.6553 32.283 38.2003 31.793 37.4493Z" fill="#FFFCDB"/>
<path d="M29.9003 36.5778C30.4813 35.8948 31.1683 35.5238 31.4313 35.7498C31.6953 35.9748 31.4373 36.7108 30.8563 37.3928C30.2743 38.0758 29.5883 38.4458 29.3243 38.2208C29.0603 37.9958 29.3183 37.2598 29.9003 36.5778Z" fill="#FFFCDB"/>
<path d="M30.2044 34.5129C31.0224 34.8789 31.5724 35.4319 31.4314 35.7489C31.2894 36.0649 30.5114 36.0259 29.6924 35.6599C28.8744 35.2949 28.3244 34.7409 28.4654 34.4249C28.6064 34.1079 29.3844 34.1479 30.2044 34.5129Z" fill="#FFFCDB"/>
<path d="M30.9941 35.6968C30.9941 35.9628 31.2101 36.1778 31.4771 36.1778C31.7441 36.1778 31.9591 35.9618 31.9591 35.6968C31.9591 35.4298 31.7431 35.2148 31.4771 35.2148C31.2111 35.2148 30.9941 35.4298 30.9941 35.6968Z" fill="#FFE41D"/>
</g>
</svg>
