<svg width="112" height="112" viewBox="0 0 112 112" fill="none" xmlns="http://www.w3.org/2000/svg">
<g clip-path="url(#clip0_342_1894)">
<mask id="mask0_342_1894" style="mask-type:luminance" maskUnits="userSpaceOnUse" x="0" y="0" width="113" height="112">
<path d="M78.3064 4.81113C49.9812 -7.45401 17.0763 5.56522 4.81111 33.8904C-7.45404 62.2156 5.56522 95.1206 33.8904 107.386C62.2156 119.651 95.1206 106.632 107.386 78.3064C119.651 49.9812 106.632 17.0763 78.3064 4.81113Z" fill="white"/>
</mask>
<g mask="url(#mask0_342_1894)">
<path d="M110.818 67.4415C117.081 37.2169 97.6563 7.63797 67.4317 1.37513C37.207 -4.88772 7.62811 14.5372 1.36527 44.7618C-4.89757 74.9864 14.5273 104.565 44.7519 110.828C74.9765 117.091 104.555 97.6661 110.818 67.4415Z" fill="#B78682"/>
</g>
<mask id="mask1_342_1894" style="mask-type:luminance" maskUnits="userSpaceOnUse" x="0" y="0" width="112" height="112">
<path d="M110.818 67.4415C117.081 37.2169 97.6562 7.63802 67.4316 1.37518C37.207 -4.88766 7.6281 14.5372 1.36526 44.7618C-4.89757 74.9864 14.5273 104.565 44.7519 110.828C74.9765 117.091 104.555 97.6661 110.818 67.4415Z" fill="white"/>
</mask>
<g mask="url(#mask1_342_1894)">
<path d="M91.0203 44.6039C94.6523 41.7229 83.0873 34.3089 83.0873 34.3089C80.0013 11.4269 57.9773 13.3299 54.5853 13.7609C51.1923 13.3289 29.1693 11.4269 26.0823 34.3089C26.0823 34.3089 14.5173 41.7239 18.1493 44.6039C21.7813 47.4839 27.5243 40.5229 27.5243 40.5229C27.5243 40.5229 12.7283 62.7539 24.9963 72.2969C31.6363 77.4619 33.0553 75.1529 32.9623 71.9489C34.0213 73.9849 35.9553 75.8299 39.5173 76.1569C48.0583 76.9399 47.7653 69.0269 47.7653 69.0269C47.7653 69.0269 47.9673 79.9659 53.7013 77.4329C54.0293 77.2879 54.3213 76.9449 54.5863 76.4409C54.8503 76.9449 55.1433 77.2889 55.4703 77.4329C61.2043 79.9659 61.4063 69.0269 61.4063 69.0269C61.4063 69.0269 61.1123 76.9399 69.6543 76.1569C73.2143 75.8299 75.1493 73.9859 76.2093 71.9499C76.1163 75.1539 77.5343 77.4629 84.1743 72.2979C96.4423 62.7549 81.6463 40.5239 81.6463 40.5239C81.6463 40.5239 87.3893 47.4849 91.0203 44.6039Z" fill="#583F28"/>
</g>
<mask id="mask2_342_1894" style="mask-type:luminance" maskUnits="userSpaceOnUse" x="0" y="0" width="112" height="112">
<path d="M110.818 67.4415C117.081 37.2169 97.6562 7.63802 67.4316 1.37518C37.207 -4.88766 7.6281 14.5372 1.36526 44.7618C-4.89757 74.9864 14.5273 104.565 44.7519 110.828C74.9765 117.091 104.555 97.6661 110.818 67.4415Z" fill="white"/>
</mask>
<g mask="url(#mask2_342_1894)">
<path d="M67.6074 75.405C67.6074 75.405 78.1294 73.735 80.1284 84.024C82.1254 94.314 87.4014 149.966 87.4014 149.966L83.6334 151.544L73.4354 94.696C73.4354 94.696 73.7004 79.27 67.6074 75.405Z" fill="#DEAF76"/>
</g>
<mask id="mask3_342_1894" style="mask-type:luminance" maskUnits="userSpaceOnUse" x="0" y="0" width="112" height="112">
<path d="M110.818 67.4415C117.081 37.2169 97.6562 7.63802 67.4316 1.37518C37.207 -4.88766 7.6281 14.5372 1.36526 44.7618C-4.89757 74.9864 14.5273 104.565 44.7519 110.828C74.9765 117.091 104.555 97.6661 110.818 67.4415Z" fill="white"/>
</mask>
<g mask="url(#mask3_342_1894)">
<path d="M43.0467 75.0791C43.0467 75.0791 32.4487 73.0162 30.4517 83.3062C28.4547 93.5962 23.1777 149.248 23.1777 149.248L26.9457 150.826L37.1437 93.9781C37.1437 93.9781 36.9547 78.9451 43.0467 75.0791Z" fill="#DEAF76"/>
</g>
<mask id="mask4_342_1894" style="mask-type:luminance" maskUnits="userSpaceOnUse" x="0" y="0" width="112" height="112">
<path d="M110.818 67.4415C117.081 37.2169 97.6562 7.63802 67.4316 1.37518C37.207 -4.88766 7.6281 14.5372 1.36526 44.7618C-4.89757 74.9864 14.5273 104.565 44.7519 110.828C74.9765 117.091 104.555 97.6661 110.818 67.4415Z" fill="white"/>
</mask>
<g mask="url(#mask4_342_1894)">
<path d="M44.1992 74.7459C49.5432 73.9039 56.8282 72.8219 65.8992 74.8059C70.2372 75.7539 73.2302 80.5439 73.1702 84.9839C73.0382 94.8199 74.6712 111.506 75.7132 115.86C77.7842 124.509 67.3622 127.342 56.0292 126.746C44.6952 126.15 36.5092 126.702 36.3442 116.158C36.1942 106.577 36.3862 103.329 36.3132 83.5869C36.2952 78.6039 39.2772 75.5209 44.1992 74.7459Z" fill="#A7382D"/>
</g>
<mask id="mask5_342_1894" style="mask-type:luminance" maskUnits="userSpaceOnUse" x="0" y="0" width="112" height="112">
<path d="M110.818 67.4415C117.081 37.2169 97.6562 7.63802 67.4316 1.37518C37.207 -4.88766 7.6281 14.5372 1.36526 44.7618C-4.89757 74.9864 14.5273 104.565 44.7519 110.828C74.9765 117.091 104.555 97.6661 110.818 67.4415Z" fill="white"/>
</mask>
<g mask="url(#mask5_342_1894)">
<path d="M73.4364 94.6932L73.8874 97.2042H81.9364C81.2284 91.2152 80.5904 86.4022 80.1284 84.0202C78.1304 73.7302 67.6074 75.4012 67.6074 75.4012C73.7004 79.2672 73.4364 94.6932 73.4364 94.6932Z" fill="#A7382D"/>
</g>
<mask id="mask6_342_1894" style="mask-type:luminance" maskUnits="userSpaceOnUse" x="0" y="0" width="112" height="112">
<path d="M110.818 67.4415C117.081 37.2169 97.6562 7.63802 67.4316 1.37518C37.207 -4.88766 7.6281 14.5372 1.36526 44.7618C-4.89757 74.9864 14.5273 104.565 44.7519 110.828C74.9765 117.091 104.555 97.6661 110.818 67.4415Z" fill="white"/>
</mask>
<g mask="url(#mask6_342_1894)">
<path d="M36.5646 97.2052L37.1436 93.9781C37.1436 93.9781 36.9546 78.9441 43.0466 75.0791C43.0466 75.0791 32.4486 73.0162 30.4516 83.3062C29.9716 85.7812 29.3006 90.8862 28.5586 97.2052H36.5646Z" fill="#A7382D"/>
</g>
<mask id="mask7_342_1894" style="mask-type:luminance" maskUnits="userSpaceOnUse" x="0" y="0" width="112" height="112">
<path d="M110.818 67.4415C117.081 37.2169 97.6562 7.63802 67.4316 1.37518C37.207 -4.88766 7.6281 14.5372 1.36526 44.7618C-4.89757 74.9864 14.5273 104.565 44.7519 110.828C74.9765 117.091 104.555 97.6661 110.818 67.4415Z" fill="white"/>
</mask>
<g mask="url(#mask7_342_1894)">
<path d="M73.2014 89.0799C66.9904 96.0419 55.8924 99.2549 47.3114 94.8249C44.4704 93.3589 41.4224 89.2659 39.7684 86.8079C38.8774 85.4839 37.6933 84.3859 36.3123 83.5859C36.3123 83.5859 36.1934 106.576 36.3434 116.157C36.5084 126.7 44.6944 126.149 56.0284 126.745C67.3614 127.342 77.7834 124.508 75.7124 115.859C74.8044 112.066 73.4474 98.9099 73.2014 89.0799Z" fill="#840F09"/>
</g>
<mask id="mask8_342_1894" style="mask-type:luminance" maskUnits="userSpaceOnUse" x="0" y="0" width="112" height="112">
<path d="M110.818 67.4415C117.081 37.2169 97.6562 7.63802 67.4316 1.37518C37.207 -4.88766 7.6281 14.5372 1.36526 44.7618C-4.89757 74.9864 14.5273 104.565 44.7519 110.828C74.9765 117.091 104.555 97.6661 110.818 67.4415Z" fill="white"/>
</mask>
<g mask="url(#mask8_342_1894)">
<path d="M55.6598 79.5995C58.5508 79.5995 60.8938 77.2555 60.8938 74.3655V67.0015C60.8938 65.8375 59.9508 64.8945 58.7868 64.8945H52.5328C51.3698 64.8945 50.4258 65.8375 50.4258 67.0015V74.3655C50.4268 77.2555 52.7698 79.5995 55.6598 79.5995Z" fill="#DEAF76"/>
</g>
<mask id="mask9_342_1894" style="mask-type:luminance" maskUnits="userSpaceOnUse" x="0" y="0" width="112" height="112">
<path d="M110.818 67.4415C117.081 37.2169 97.6562 7.63802 67.4316 1.37518C37.207 -4.88766 7.6281 14.5372 1.36526 44.7618C-4.89757 74.9864 14.5273 104.565 44.7519 110.828C74.9765 117.091 104.555 97.6661 110.818 67.4415Z" fill="white"/>
</mask>
<g mask="url(#mask9_342_1894)">
<path d="M50.4297 73.6763V68.4023H60.8977V73.9663C57.5427 74.7053 53.7447 74.5863 50.4297 73.6763Z" fill="#CA9561"/>
</g>
<mask id="mask10_342_1894" style="mask-type:luminance" maskUnits="userSpaceOnUse" x="0" y="0" width="112" height="112">
<path d="M110.818 67.4415C117.081 37.2169 97.6562 7.63802 67.4316 1.37518C37.207 -4.88766 7.6281 14.5372 1.36526 44.7618C-4.89757 74.9864 14.5273 104.565 44.7519 110.828C74.9765 117.091 104.555 97.6661 110.818 67.4415Z" fill="white"/>
</mask>
<g mask="url(#mask10_342_1894)">
<path d="M80.5434 37.0098C80.5434 37.0098 82.9424 71.5818 55.7594 71.4248C28.5184 71.2678 31.1784 35.7528 31.1784 35.7528C31.1784 35.7528 31.0314 20.1858 58.2164 19.5378C65.7494 19.3588 73.0204 22.8428 77.2634 29.0688C78.7664 31.2718 79.9794 33.9058 80.5434 37.0098Z" fill="#DEAF76"/>
</g>
<mask id="mask11_342_1894" style="mask-type:luminance" maskUnits="userSpaceOnUse" x="0" y="0" width="112" height="112">
<path d="M110.818 67.4415C117.081 37.2169 97.6562 7.63802 67.4316 1.37518C37.207 -4.88766 7.6281 14.5372 1.36526 44.7618C-4.89757 74.9864 14.5273 104.565 44.7519 110.828C74.9765 117.091 104.555 97.6661 110.818 67.4415Z" fill="white"/>
</mask>
<g mask="url(#mask11_342_1894)">
<path d="M70.8376 63.1956C76.6136 58.6066 79.4035 51.4156 79.5415 44.2516C79.6305 39.5916 78.7916 35.0056 77.8986 30.4336C79.0886 32.0926 80.0505 34.2376 80.5555 37.0106C80.5555 37.0106 82.9545 71.5826 55.7705 71.4256C49.1935 71.3876 44.3605 69.2876 40.8105 66.1246C50.3925 70.2576 62.9086 69.4946 70.8376 63.1956Z" fill="#D0A16F"/>
</g>
<mask id="mask12_342_1894" style="mask-type:luminance" maskUnits="userSpaceOnUse" x="0" y="0" width="112" height="112">
<path d="M110.818 67.4415C117.081 37.2169 97.6562 7.63802 67.4316 1.37518C37.207 -4.88766 7.6281 14.5372 1.36526 44.7618C-4.89757 74.9864 14.5273 104.565 44.7519 110.828C74.9765 117.091 104.555 97.6661 110.818 67.4415Z" fill="white"/>
</mask>
<g mask="url(#mask12_342_1894)">
<path d="M63.3902 39.0531C63.4262 40.7581 62.9482 42.1601 62.3212 42.1831C61.6942 42.2061 61.1552 40.8431 61.1192 39.1381C61.0822 37.4331 61.5602 36.0311 62.1882 36.0081C62.8132 35.9841 63.3532 37.3471 63.3902 39.0531Z" fill="#181818"/>
</g>
<mask id="mask13_342_1894" style="mask-type:luminance" maskUnits="userSpaceOnUse" x="0" y="0" width="112" height="112">
<path d="M110.818 67.4415C117.081 37.2169 97.6562 7.63802 67.4316 1.37518C37.207 -4.88766 7.6281 14.5372 1.36526 44.7618C-4.89757 74.9864 14.5273 104.565 44.7519 110.828C74.9765 117.091 104.555 97.6661 110.818 67.4415Z" fill="white"/>
</mask>
<g mask="url(#mask13_342_1894)">
<path d="M50.8257 39.0531C50.8627 40.7581 50.3847 42.1601 49.7577 42.1831C49.1297 42.2061 48.5917 40.8431 48.5547 39.1381C48.5177 37.4331 48.9967 36.0311 49.6237 36.0081C50.2507 35.9841 50.7897 37.3471 50.8257 39.0531Z" fill="#181818"/>
</g>
<mask id="mask14_342_1894" style="mask-type:luminance" maskUnits="userSpaceOnUse" x="0" y="0" width="112" height="112">
<path d="M110.818 67.4415C117.081 37.2169 97.6562 7.63802 67.4316 1.37518C37.207 -4.88766 7.6281 14.5372 1.36526 44.7618C-4.89757 74.9864 14.5273 104.565 44.7519 110.828C74.9765 117.091 104.555 97.6661 110.818 67.4415Z" fill="white"/>
</mask>
<g mask="url(#mask14_342_1894)">
<path d="M79.8436 40.7346C79.8436 40.7346 95.3706 30.3946 94.9076 48.8786C94.8246 52.1606 93.4966 55.3656 91.0576 57.4826C87.9016 60.2236 82.5916 61.5066 74.8086 53.0526L79.8436 40.7346Z" fill="#DEAF76"/>
</g>
<mask id="mask15_342_1894" style="mask-type:luminance" maskUnits="userSpaceOnUse" x="0" y="0" width="112" height="112">
<path d="M110.818 67.4415C117.081 37.2169 97.6562 7.63802 67.4316 1.37518C37.207 -4.88766 7.6281 14.5372 1.36526 44.7618C-4.89757 74.9864 14.5273 104.565 44.7519 110.828C74.9765 117.091 104.555 97.6661 110.818 67.4415Z" fill="white"/>
</mask>
<g mask="url(#mask15_342_1894)">
<path d="M88.1366 48.1869C87.7436 50.4229 85.6376 51.9219 83.4306 51.5349C81.2236 51.1479 79.7526 49.0209 80.1456 46.7839C80.5376 44.5479 82.6456 43.0489 84.8516 43.4359C87.0586 43.8249 88.5286 45.9509 88.1366 48.1869Z" fill="#CA9561"/>
</g>
<mask id="mask16_342_1894" style="mask-type:luminance" maskUnits="userSpaceOnUse" x="0" y="0" width="112" height="112">
<path d="M110.818 67.4415C117.081 37.2169 97.6562 7.63802 67.4316 1.37518C37.207 -4.88766 7.6281 14.5372 1.36526 44.7618C-4.89757 74.9864 14.5273 104.565 44.7519 110.828C74.9765 117.091 104.555 97.6661 110.818 67.4415Z" fill="white"/>
</mask>
<g mask="url(#mask16_342_1894)">
<path d="M77.3926 48.4933C77.3926 48.4933 83.7066 39.9373 88.9966 45.2663C88.9966 45.2663 83.8356 37.9733 77.3926 48.4933Z" fill="#CA9561"/>
</g>
<mask id="mask17_342_1894" style="mask-type:luminance" maskUnits="userSpaceOnUse" x="0" y="0" width="112" height="112">
<path d="M110.818 67.4415C117.081 37.2169 97.6562 7.63802 67.4316 1.37518C37.207 -4.88766 7.6281 14.5372 1.36526 44.7618C-4.89757 74.9864 14.5273 104.565 44.7519 110.828C74.9765 117.091 104.555 97.6661 110.818 67.4415Z" fill="white"/>
</mask>
<g mask="url(#mask17_342_1894)">
<path d="M33.702 39.6293C33.702 39.6293 18.1761 29.2893 18.6391 47.7723C18.7211 51.0553 20.0501 54.2593 22.4881 56.3763C25.6441 59.1173 30.9551 60.4003 38.7371 51.9463L33.702 39.6293Z" fill="#DEAF76"/>
</g>
<mask id="mask18_342_1894" style="mask-type:luminance" maskUnits="userSpaceOnUse" x="0" y="0" width="112" height="112">
<path d="M110.818 67.4415C117.081 37.2169 97.6562 7.63802 67.4316 1.37518C37.207 -4.88766 7.6281 14.5372 1.36526 44.7618C-4.89757 74.9864 14.5273 104.565 44.7519 110.828C74.9765 117.091 104.555 97.6661 110.818 67.4415Z" fill="white"/>
</mask>
<g mask="url(#mask18_342_1894)">
<path d="M33.5327 47.8644C33.5327 47.8644 27.2177 39.3094 21.9277 44.6374C21.9277 44.6374 27.0887 37.3444 33.5327 47.8644Z" fill="#CA9561"/>
</g>
<mask id="mask19_342_1894" style="mask-type:luminance" maskUnits="userSpaceOnUse" x="0" y="0" width="112" height="112">
<path d="M110.818 67.4415C117.081 37.2169 97.6562 7.63802 67.4316 1.37518C37.207 -4.88766 7.6281 14.5372 1.36526 44.7618C-4.89757 74.9864 14.5273 104.565 44.7519 110.828C74.9765 117.091 104.555 97.6661 110.818 67.4415Z" fill="white"/>
</mask>
<g mask="url(#mask19_342_1894)">
<path d="M65.7155 45.2531C65.6215 48.3281 68.1265 50.8881 71.3105 50.9731C74.4945 51.0571 77.1515 48.6321 77.2455 45.5581C77.3395 42.4831 74.8344 39.9221 71.6504 39.8381C68.4664 39.7531 65.8095 42.1791 65.7155 45.2531Z" fill="#D68A64"/>
</g>
<mask id="mask20_342_1894" style="mask-type:luminance" maskUnits="userSpaceOnUse" x="0" y="0" width="112" height="112">
<path d="M110.818 67.4415C117.081 37.2169 97.6562 7.63802 67.4316 1.37518C37.207 -4.88766 7.6281 14.5372 1.36526 44.7618C-4.89757 74.9864 14.5273 104.565 44.7519 110.828C74.9765 117.091 104.555 97.6661 110.818 67.4415Z" fill="white"/>
</mask>
<g mask="url(#mask20_342_1894)">
<path d="M34.2115 45.2531C34.1175 48.3281 36.6225 50.8881 39.8065 50.9731C42.9905 51.0571 45.6475 48.6321 45.7415 45.5581C45.8355 42.4831 43.3305 39.9221 40.1465 39.8381C36.9625 39.7531 34.3055 42.1791 34.2115 45.2531Z" fill="#D68A64"/>
</g>
<mask id="mask21_342_1894" style="mask-type:luminance" maskUnits="userSpaceOnUse" x="0" y="0" width="112" height="112">
<path d="M110.818 67.4415C117.081 37.2169 97.6562 7.63802 67.4316 1.37518C37.207 -4.88766 7.6281 14.5372 1.36526 44.7618C-4.89757 74.9864 14.5273 104.565 44.7519 110.828C74.9765 117.091 104.555 97.6661 110.818 67.4415Z" fill="white"/>
</mask>
<g mask="url(#mask21_342_1894)">
<path d="M80.5824 40.2864C80.5824 40.2864 76.2544 43.3694 75.9774 32.6714C75.9774 32.6714 69.7874 37.1754 70.3504 29.1514C70.3504 29.1514 63.9434 39.4754 49.6904 26.3364C49.6904 26.3364 50.4164 30.7004 45.7434 28.2364C45.7434 28.2364 45.5744 35.6974 41.2804 31.8964C41.2804 31.8964 35.5044 43.1374 31.1074 38.2214C31.1074 38.2214 24.0824 14.8424 55.6634 15.2394C87.2434 15.6374 80.5824 40.2864 80.5824 40.2864Z" fill="#583F28"/>
</g>
<mask id="mask22_342_1894" style="mask-type:luminance" maskUnits="userSpaceOnUse" x="0" y="0" width="112" height="112">
<path d="M110.818 67.4415C117.081 37.2169 97.6562 7.63802 67.4316 1.37518C37.207 -4.88766 7.6281 14.5372 1.36526 44.7618C-4.89757 74.9864 14.5273 104.565 44.7519 110.828C74.9765 117.091 104.555 97.6661 110.818 67.4415Z" fill="white"/>
</mask>
<g mask="url(#mask22_342_1894)">
<path d="M41.8787 22.9931C41.8787 23.3821 41.5627 23.6971 41.1747 23.6971C40.7857 23.6971 40.4707 23.3821 40.4707 22.9931C40.4707 22.6041 40.7857 22.2891 41.1747 22.2891C41.5627 22.2891 41.8787 22.6041 41.8787 22.9931Z" fill="#704E32"/>
</g>
<mask id="mask23_342_1894" style="mask-type:luminance" maskUnits="userSpaceOnUse" x="0" y="0" width="112" height="112">
<path d="M110.818 67.4415C117.081 37.2169 97.6562 7.63802 67.4316 1.37518C37.207 -4.88766 7.6281 14.5372 1.36526 44.7618C-4.89757 74.9864 14.5273 104.565 44.7519 110.828C74.9765 117.091 104.555 97.6661 110.818 67.4415Z" fill="white"/>
</mask>
<g mask="url(#mask23_342_1894)">
<path d="M46.8768 24.1191C46.8768 25.1301 46.0578 25.9491 45.0468 25.9491C44.0358 25.9491 43.2168 25.1301 43.2168 24.1191C43.2168 23.1081 44.0358 22.2891 45.0468 22.2891C46.0578 22.2881 46.8768 23.1081 46.8768 24.1191Z" fill="#704E32"/>
</g>
<mask id="mask24_342_1894" style="mask-type:luminance" maskUnits="userSpaceOnUse" x="0" y="0" width="112" height="112">
<path d="M110.818 67.4415C117.081 37.2169 97.6562 7.63802 67.4316 1.37518C37.207 -4.88766 7.6281 14.5372 1.36526 44.7618C-4.89757 74.9864 14.5273 104.565 44.7519 110.828C74.9765 117.091 104.555 97.6661 110.818 67.4415Z" fill="white"/>
</mask>
<g mask="url(#mask24_342_1894)">
<path d="M74.809 28.4704C74.809 29.1314 74.274 29.6664 73.613 29.6664C72.952 29.6664 72.416 29.1304 72.416 28.4704C72.416 27.8094 72.952 27.2734 73.613 27.2734C74.274 27.2734 74.809 27.8094 74.809 28.4704Z" fill="#704E32"/>
</g>
<mask id="mask25_342_1894" style="mask-type:luminance" maskUnits="userSpaceOnUse" x="0" y="0" width="112" height="112">
<path d="M110.818 67.4415C117.081 37.2169 97.6562 7.63802 67.4316 1.37518C37.207 -4.88766 7.6281 14.5372 1.36526 44.7618C-4.89757 74.9864 14.5273 104.565 44.7519 110.828C74.9765 117.091 104.555 97.6661 110.818 67.4415Z" fill="white"/>
</mask>
<g mask="url(#mask25_342_1894)">
<path d="M77.4838 29.4103C77.4838 29.5533 77.3688 29.6683 77.2258 29.6683C77.0838 29.6683 76.9668 29.5533 76.9668 29.4103C76.9668 29.2673 77.0828 29.1524 77.2258 29.1524C77.3688 29.1514 77.4838 29.2673 77.4838 29.4103Z" fill="#704E32"/>
</g>
<mask id="mask26_342_1894" style="mask-type:luminance" maskUnits="userSpaceOnUse" x="0" y="0" width="112" height="112">
<path d="M110.818 67.4415C117.081 37.2169 97.6562 7.63802 67.4316 1.37518C37.207 -4.88766 7.6281 14.5372 1.36526 44.7618C-4.89757 74.9864 14.5273 104.565 44.7519 110.828C74.9765 117.091 104.555 97.6661 110.818 67.4415Z" fill="white"/>
</mask>
<g mask="url(#mask26_342_1894)">
<path d="M53.9138 43.6216C55.4698 44.2066 57.2048 44.1706 58.7008 43.4496C58.7238 43.4376 58.7488 43.4266 58.7718 43.4156C61.1368 42.2616 63.3378 45.6836 60.3948 47.7146C57.4518 49.7456 52.9848 49.4666 51.0048 47.2186C49.2738 45.2526 50.8868 42.4826 53.9138 43.6216Z" fill="#2C2C2B"/>
<mask id="mask27_342_1894" style="mask-type:luminance" maskUnits="userSpaceOnUse" x="50" y="43" width="12" height="7">
<path d="M53.9138 43.6216C55.4698 44.2066 57.2048 44.1706 58.7008 43.4496C58.7238 43.4376 58.7488 43.4266 58.7718 43.4156C61.1368 42.2616 63.3378 45.6836 60.3948 47.7146C57.4518 49.7456 52.9848 49.4666 51.0048 47.2186C49.2738 45.2526 50.8868 42.4826 53.9138 43.6216Z" fill="white"/>
</mask>
<g mask="url(#mask27_342_1894)">
<path d="M60.4014 47.8087C60.4014 47.8087 60.6824 45.2727 56.2714 47.2717C56.2714 47.2717 52.6134 45.2747 51.5684 47.8267C51.5684 47.8267 55.1304 51.0427 60.4014 47.8087Z" fill="#D04642"/>
</g>
<mask id="mask28_342_1894" style="mask-type:luminance" maskUnits="userSpaceOnUse" x="50" y="43" width="12" height="7">
<path d="M53.9672 43.5601C55.5242 44.1451 57.2582 44.1091 58.7552 43.3881C58.7782 43.3761 58.8022 43.3651 58.8262 43.3531C61.1902 42.1991 63.3912 45.6211 60.4482 47.6531C57.5052 49.6841 53.0392 49.4051 51.0582 47.1571C49.3262 45.1911 50.9392 42.4211 53.9672 43.5601Z" fill="white"/>
</mask>
<g mask="url(#mask28_342_1894)">
<path d="M61.4426 43.032C61.4426 43.032 62.7106 44.701 59.6396 45.245C58.6346 45.423 53.3926 45.708 52.3266 45.545C49.3746 45.095 50.3406 43.366 50.3406 43.366C50.3406 43.366 60.3496 41.816 61.4426 43.032Z" fill="white"/>
</g>
</g>
<mask id="mask29_342_1894" style="mask-type:luminance" maskUnits="userSpaceOnUse" x="0" y="0" width="112" height="112">
<path d="M110.818 67.4415C117.081 37.2169 97.6562 7.63802 67.4316 1.37518C37.207 -4.88766 7.6281 14.5372 1.36526 44.7618C-4.89757 74.9864 14.5273 104.565 44.7519 110.828C74.9765 117.091 104.555 97.6661 110.818 67.4415Z" fill="white"/>
</mask>
<g mask="url(#mask29_342_1894)">
<path d="M65.713 31.2539C61.682 31.2539 58.39 34.3849 58.115 38.3459H54.472C54.199 34.3849 50.907 31.2539 46.875 31.2539C42.665 31.2539 39.252 34.6669 39.252 38.8769C39.252 43.0869 42.665 46.5009 46.875 46.5009C50.906 46.5009 54.198 43.3699 54.472 39.4089H58.115C58.389 43.3709 61.681 46.5009 65.713 46.5009C69.923 46.5009 73.336 43.0879 73.336 38.8769C73.336 34.6669 69.923 31.2539 65.713 31.2539Z" fill="#2C2C2B"/>
</g>
<mask id="mask30_342_1894" style="mask-type:luminance" maskUnits="userSpaceOnUse" x="0" y="0" width="112" height="112">
<path d="M110.818 67.4415C117.081 37.2169 97.6562 7.63802 67.4316 1.37518C37.207 -4.88766 7.6281 14.5372 1.36526 44.7618C-4.89757 74.9864 14.5273 104.565 44.7519 110.828C74.9765 117.091 104.555 97.6661 110.818 67.4415Z" fill="white"/>
</mask>
<g mask="url(#mask30_342_1894)">
<path d="M46.2573 37.0505C46.2573 38.3795 45.1803 39.4565 43.8513 39.4565C42.5223 39.4565 41.4453 38.3785 41.4453 37.0505C41.4453 35.7215 42.5223 34.6445 43.8513 34.6445C45.1803 34.6435 46.2573 35.7215 46.2573 37.0505Z" fill="#F9F9F9"/>
</g>
<mask id="mask31_342_1894" style="mask-type:luminance" maskUnits="userSpaceOnUse" x="0" y="0" width="112" height="112">
<path d="M110.818 67.4415C117.081 37.2169 97.6562 7.63802 67.4316 1.37518C37.207 -4.88766 7.6281 14.5372 1.36526 44.7618C-4.89757 74.9864 14.5273 104.565 44.7519 110.828C74.9765 117.091 104.555 97.6661 110.818 67.4415Z" fill="white"/>
</mask>
<g mask="url(#mask31_342_1894)">
<path d="M46.2563 33.4885C46.2563 33.7475 46.0464 33.9575 45.7874 33.9575C45.5284 33.9575 45.3184 33.7475 45.3184 33.4885C45.3184 33.2295 45.5284 33.0195 45.7874 33.0195C46.0464 33.0195 46.2563 33.2295 46.2563 33.4885Z" fill="#F9F9F9"/>
</g>
<mask id="mask32_342_1894" style="mask-type:luminance" maskUnits="userSpaceOnUse" x="0" y="0" width="112" height="112">
<path d="M110.818 67.4415C117.081 37.2169 97.6562 7.63802 67.4316 1.37518C37.207 -4.88766 7.6281 14.5372 1.36526 44.7618C-4.89757 74.9864 14.5273 104.565 44.7519 110.828C74.9765 117.091 104.555 97.6661 110.818 67.4415Z" fill="white"/>
</mask>
<g mask="url(#mask32_342_1894)">
<path d="M65.2241 37.0505C65.2241 38.3795 64.1471 39.4565 62.8181 39.4565C61.4901 39.4565 60.4121 38.3785 60.4121 37.0505C60.4121 35.7215 61.4901 34.6445 62.8181 34.6445C64.1461 34.6435 65.2241 35.7215 65.2241 37.0505Z" fill="#F9F9F9"/>
</g>
<mask id="mask33_342_1894" style="mask-type:luminance" maskUnits="userSpaceOnUse" x="0" y="0" width="112" height="112">
<path d="M110.818 67.4415C117.081 37.2169 97.6562 7.63802 67.4316 1.37518C37.207 -4.88766 7.6281 14.5372 1.36526 44.7618C-4.89757 74.9864 14.5273 104.565 44.7519 110.828C74.9765 117.091 104.555 97.6661 110.818 67.4415Z" fill="white"/>
</mask>
<g mask="url(#mask33_342_1894)">
<path d="M65.2251 33.4885C65.2251 33.7475 65.0161 33.9575 64.7561 33.9575C64.4971 33.9575 64.2871 33.7475 64.2871 33.4885C64.2871 33.2295 64.4971 33.0195 64.7561 33.0195C65.0161 33.0195 65.2251 33.2295 65.2251 33.4885Z" fill="#F9F9F9"/>
</g>
<mask id="mask34_342_1894" style="mask-type:luminance" maskUnits="userSpaceOnUse" x="0" y="0" width="112" height="112">
<path d="M110.818 67.4415C117.081 37.2169 97.6562 7.63802 67.4316 1.37518C37.207 -4.88766 7.6281 14.5372 1.36526 44.7618C-4.89757 74.9864 14.5273 104.565 44.7519 110.828C74.9765 117.091 104.555 97.6661 110.818 67.4415Z" fill="white"/>
</mask>
<g mask="url(#mask34_342_1894)">
<path d="M22.7879 47.558C23.1799 49.794 25.2869 51.293 27.4939 50.906C29.6999 50.518 31.1709 48.392 30.7779 46.155C30.3849 43.919 28.2789 42.42 26.0719 42.807C23.8659 43.194 22.3959 45.321 22.7879 47.558Z" fill="#CA9561"/>
</g>
</g>
<defs>
<clipPath id="clip0_342_1894">
<rect width="111.78" height="111.78" fill="white"/>
</clipPath>
</defs>
</svg>
