<svg width="112" height="112" viewBox="0 0 112 112" fill="none" xmlns="http://www.w3.org/2000/svg">
<mask id="mask0_341_1601" style="mask-type:luminance" maskUnits="userSpaceOnUse" x="0" y="0" width="112" height="112">
<path d="M55.889 111.778C86.7556 111.778 111.778 86.7556 111.778 55.889C111.778 25.0224 86.7556 0 55.889 0C25.0224 0 0 25.0224 0 55.889C0 86.7556 25.0224 111.778 55.889 111.778Z" fill="white"/>
</mask>
<g mask="url(#mask0_341_1601)">
<path d="M55.889 111.778C86.7556 111.778 111.778 86.7556 111.778 55.889C111.778 25.0224 86.7556 0 55.889 0C25.0224 0 0 25.0224 0 55.889C0 86.7556 25.0224 111.778 55.889 111.778Z" fill="#FBA026"/>
</g>
<mask id="mask1_341_1601" style="mask-type:luminance" maskUnits="userSpaceOnUse" x="0" y="0" width="112" height="112">
<path d="M55.889 111.778C86.7556 111.778 111.778 86.7556 111.778 55.889C111.778 25.0224 86.7556 0 55.889 0C25.0224 0 0 25.0224 0 55.889C0 86.7556 25.0224 111.778 55.889 111.778Z" fill="white"/>
</mask>
<g mask="url(#mask1_341_1601)">
<path d="M41.9746 83.7059C41.9746 83.7059 30.2846 81.4309 28.0816 92.7799C25.8786 104.13 20.0586 165.515 20.0586 165.515L24.2136 167.255L35.4626 104.551C35.4626 104.551 35.2536 87.9689 41.9746 83.7059Z" fill="#DEAF76"/>
</g>
<mask id="mask2_341_1601" style="mask-type:luminance" maskUnits="userSpaceOnUse" x="0" y="0" width="112" height="112">
<path d="M55.889 111.778C86.7556 111.778 111.778 86.7556 111.778 55.889C111.778 25.0224 86.7556 0 55.889 0C25.0224 0 0 25.0224 0 55.889C0 86.7556 25.0224 111.778 55.889 111.778Z" fill="white"/>
</mask>
<g mask="url(#mask2_341_1601)">
<path d="M43.2434 83.336C49.1384 82.407 57.1734 81.214 67.1794 83.401C71.9634 84.447 75.2644 89.73 75.1994 94.628C75.0534 105.478 76.8544 123.882 78.0044 128.685C80.2884 138.225 68.7934 141.35 56.2924 140.692C43.7914 140.034 34.7624 140.643 34.5804 129.013C34.4154 118.446 34.6274 114.863 34.5464 93.086C34.5254 87.591 37.8154 84.19 43.2434 83.336Z" fill="#161616"/>
</g>
<mask id="mask3_341_1601" style="mask-type:luminance" maskUnits="userSpaceOnUse" x="0" y="0" width="112" height="112">
<path d="M55.889 111.778C86.7556 111.778 111.778 86.7556 111.778 55.889C111.778 25.0224 86.7556 0 55.889 0C25.0224 0 0 25.0224 0 55.889C0 86.7556 25.0224 111.778 55.889 111.778Z" fill="white"/>
</mask>
<g mask="url(#mask3_341_1601)">
<path d="M34.8222 108.107L35.4602 104.548C35.4602 104.548 35.2522 87.9649 41.9722 83.7019C41.9722 83.7019 30.2822 81.427 28.0792 92.776C27.5492 95.506 26.8092 101.136 25.9922 108.106H34.8222V108.107Z" fill="#B8372F"/>
</g>
<mask id="mask4_341_1601" style="mask-type:luminance" maskUnits="userSpaceOnUse" x="0" y="0" width="112" height="112">
<path d="M55.889 111.778C86.7556 111.778 111.778 86.7556 111.778 55.889C111.778 25.0224 86.7556 0 55.889 0C25.0224 0 0 25.0224 0 55.889C0 86.7556 25.0224 111.778 55.889 111.778Z" fill="white"/>
</mask>
<g mask="url(#mask4_341_1601)">
<path d="M75.2344 99.1459C68.3834 106.826 56.1434 110.37 46.6774 105.483C43.5444 103.866 40.1814 99.352 38.3584 96.64C37.3754 95.18 36.0694 93.9679 34.5454 93.0859C34.5454 93.0859 34.4144 118.445 34.5794 129.013C34.7624 140.643 43.7904 140.034 56.2914 140.692C68.7924 141.35 80.2874 138.225 78.0034 128.685C77.0024 124.501 75.5064 109.989 75.2344 99.1459Z" fill="#070707"/>
</g>
<mask id="mask5_341_1601" style="mask-type:luminance" maskUnits="userSpaceOnUse" x="0" y="0" width="112" height="112">
<path d="M55.889 111.778C86.7556 111.778 111.778 86.7556 111.778 55.889C111.778 25.0224 86.7556 0 55.889 0C25.0224 0 0 25.0224 0 55.889C0 86.7556 25.0224 111.778 55.889 111.778Z" fill="white"/>
</mask>
<g mask="url(#mask5_341_1601)">
<path d="M41.9746 83.7059C41.9746 83.7059 30.2846 81.4309 28.0816 92.7799C25.8786 104.13 20.0586 165.515 20.0586 165.515L24.2136 167.255L35.4626 104.551C35.4626 104.551 35.2536 87.9689 41.9746 83.7059Z" fill="#161616"/>
</g>
<mask id="mask6_341_1601" style="mask-type:luminance" maskUnits="userSpaceOnUse" x="0" y="0" width="112" height="112">
<path d="M55.889 111.778C86.7556 111.778 111.778 86.7556 111.778 55.889C111.778 25.0224 86.7556 0 55.889 0C25.0224 0 0 25.0224 0 55.889C0 86.7556 25.0224 111.778 55.889 111.778Z" fill="white"/>
</mask>
<g mask="url(#mask6_341_1601)">
<path d="M67.3379 83.7059C67.3379 83.7059 79.0269 81.4309 81.2309 92.7799C83.4339 104.13 89.2539 165.515 89.2539 165.515L85.0979 167.255L73.8489 104.551C73.8489 104.551 74.0579 87.9689 67.3379 83.7059Z" fill="#161616"/>
</g>
<mask id="mask7_341_1601" style="mask-type:luminance" maskUnits="userSpaceOnUse" x="0" y="0" width="112" height="112">
<path d="M55.889 111.778C86.7556 111.778 111.778 86.7556 111.778 55.889C111.778 25.0224 86.7556 0 55.889 0C25.0224 0 0 25.0224 0 55.889C0 86.7556 25.0224 111.778 55.889 111.778Z" fill="white"/>
</mask>
<g mask="url(#mask7_341_1601)">
<path d="M55.8853 88.6888C59.0733 88.6888 61.6583 86.1037 61.6583 82.9157V74.7928C61.6583 73.5088 60.6173 72.4688 59.3333 72.4688H52.4353C51.1513 72.4688 50.1113 73.5088 50.1113 74.7928V82.9157C50.1123 86.1037 52.6973 88.6888 55.8853 88.6888Z" fill="#C1915D"/>
</g>
<mask id="mask8_341_1601" style="mask-type:luminance" maskUnits="userSpaceOnUse" x="0" y="0" width="112" height="112">
<path d="M55.889 111.778C86.7556 111.778 111.778 86.7556 111.778 55.889C111.778 25.0224 86.7556 0 55.889 0C25.0224 0 0 25.0224 0 55.889C0 86.7556 25.0224 111.778 55.889 111.778Z" fill="white"/>
</mask>
<g mask="url(#mask8_341_1601)">
<path d="M50.1152 82.1539V76.3359H61.6622V82.4739C57.9622 83.2889 53.7722 83.1569 50.1152 82.1539Z" fill="#B7824E"/>
</g>
<mask id="mask9_341_1601" style="mask-type:luminance" maskUnits="userSpaceOnUse" x="0" y="0" width="112" height="112">
<path d="M55.889 111.778C86.7556 111.778 111.778 86.7556 111.778 55.889C111.778 25.0224 86.7556 0 55.889 0C25.0224 0 0 25.0224 0 55.889C0 86.7556 25.0224 111.778 55.889 111.778Z" fill="white"/>
</mask>
<g mask="url(#mask9_341_1601)">
<path d="M83.3301 41.7129C83.3301 41.7129 85.9771 79.8469 55.9931 79.6739C25.9461 79.4999 28.8811 40.3259 28.8811 40.3259C28.8811 40.3259 28.7181 23.1559 58.7041 22.4409C67.0131 22.2429 75.0331 26.0859 79.7131 32.9539C81.3701 35.3839 82.7081 38.2899 83.3301 41.7129Z" fill="#C1915D"/>
</g>
<mask id="mask10_341_1601" style="mask-type:luminance" maskUnits="userSpaceOnUse" x="0" y="0" width="112" height="112">
<path d="M55.889 111.778C86.7556 111.778 111.778 86.7556 111.778 55.889C111.778 25.0224 86.7556 0 55.889 0C25.0224 0 0 25.0224 0 55.889C0 86.7556 25.0224 111.778 55.889 111.778Z" fill="white"/>
</mask>
<g mask="url(#mask10_341_1601)">
<path opacity="0.51" d="M72.6268 70.5911C78.9978 65.5281 82.0758 57.5981 82.2278 49.6951C82.3268 44.5541 81.3998 39.4971 80.4158 34.4531C81.7288 36.2841 82.7898 38.6491 83.3458 41.7081C83.3458 41.7081 85.9928 79.8421 56.0088 79.6691C48.7538 79.6271 43.4228 77.3111 39.5078 73.8211C50.0748 78.3811 63.8818 77.5401 72.6268 70.5911Z" fill="#B7824E"/>
</g>
<mask id="mask11_341_1601" style="mask-type:luminance" maskUnits="userSpaceOnUse" x="0" y="0" width="112" height="112">
<path d="M55.889 111.778C86.7556 111.778 111.778 86.7556 111.778 55.889C111.778 25.0224 86.7556 0 55.889 0C25.0224 0 0 25.0224 0 55.889C0 86.7556 25.0224 111.778 55.889 111.778Z" fill="white"/>
</mask>
<g mask="url(#mask11_341_1601)">
<path d="M64.4125 43.9677C64.4535 45.8497 63.9255 47.3957 63.2335 47.4207C62.5415 47.4457 61.9475 45.9427 61.9065 44.0617C61.8655 42.1807 62.3935 40.6347 63.0865 40.6097C63.7785 40.5827 64.3725 42.0867 64.4125 43.9677Z" fill="#181818"/>
</g>
<mask id="mask12_341_1601" style="mask-type:luminance" maskUnits="userSpaceOnUse" x="0" y="0" width="112" height="112">
<path d="M55.889 111.778C86.7556 111.778 111.778 86.7556 111.778 55.889C111.778 25.0224 86.7556 0 55.889 0C25.0224 0 0 25.0224 0 55.889C0 86.7556 25.0224 111.778 55.889 111.778Z" fill="white"/>
</mask>
<g mask="url(#mask12_341_1601)">
<path d="M50.555 43.9687C50.595 45.8497 50.067 47.3957 49.376 47.4207C48.684 47.4457 48.09 45.9427 48.049 44.0617C48.009 42.1807 48.536 40.6347 49.229 40.6097C49.92 40.5847 50.514 42.0877 50.555 43.9687Z" fill="#181818"/>
</g>
<mask id="mask13_341_1601" style="mask-type:luminance" maskUnits="userSpaceOnUse" x="0" y="0" width="112" height="112">
<path d="M55.889 111.778C86.7556 111.778 111.778 86.7556 111.778 55.889C111.778 25.0224 86.7556 0 55.889 0C25.0224 0 0 25.0224 0 55.889C0 86.7556 25.0224 111.778 55.889 111.778Z" fill="white"/>
</mask>
<g mask="url(#mask13_341_1601)">
<path d="M82.5608 45.8207C82.5608 45.8207 99.6868 34.4157 99.1758 54.8027C99.0848 58.4227 97.6188 61.9567 94.9298 64.2927C91.4488 67.3157 85.5918 68.7317 77.0078 59.4057L82.5608 45.8207Z" fill="#C1915D"/>
</g>
<mask id="mask14_341_1601" style="mask-type:luminance" maskUnits="userSpaceOnUse" x="0" y="0" width="112" height="112">
<path d="M55.889 111.778C86.7556 111.778 111.778 86.7556 111.778 55.889C111.778 25.0224 86.7556 0 55.889 0C25.0224 0 0 25.0224 0 55.889C0 86.7556 25.0224 111.778 55.889 111.778Z" fill="white"/>
</mask>
<g mask="url(#mask14_341_1601)">
<path d="M91.7082 54.0415C91.2752 56.5085 88.9512 58.1616 86.5172 57.7336C84.0832 57.3066 82.4612 54.9605 82.8942 52.4945C83.3272 50.0275 85.6512 48.3746 88.0852 48.8016C90.5192 49.2286 92.1412 51.5745 91.7082 54.0415Z" fill="#CA9561"/>
</g>
<mask id="mask15_341_1601" style="mask-type:luminance" maskUnits="userSpaceOnUse" x="0" y="0" width="112" height="112">
<path d="M55.889 111.778C86.7556 111.778 111.778 86.7556 111.778 55.889C111.778 25.0224 86.7556 0 55.889 0C25.0224 0 0 25.0224 0 55.889C0 86.7556 25.0224 111.778 55.889 111.778Z" fill="white"/>
</mask>
<g mask="url(#mask15_341_1601)">
<path d="M79.8555 54.3805C79.8555 54.3805 86.8205 44.9425 92.6555 50.8205C92.6555 50.8205 86.9625 42.7765 79.8555 54.3805Z" fill="#CA9561"/>
</g>
<mask id="mask16_341_1601" style="mask-type:luminance" maskUnits="userSpaceOnUse" x="0" y="0" width="112" height="112">
<path d="M55.889 111.778C86.7556 111.778 111.778 86.7556 111.778 55.889C111.778 25.0224 86.7556 0 55.889 0C25.0224 0 0 25.0224 0 55.889C0 86.7556 25.0224 111.778 55.889 111.778Z" fill="white"/>
</mask>
<g mask="url(#mask16_341_1601)">
<path d="M31.6653 44.5982C31.6653 44.5982 14.5393 33.1932 15.0503 53.5792C15.1413 57.2002 16.6073 60.7342 19.2963 63.0692C22.7773 66.0922 28.6343 67.5092 37.2193 58.1832L31.6653 44.5982Z" fill="#C1915D"/>
</g>
<mask id="mask17_341_1601" style="mask-type:luminance" maskUnits="userSpaceOnUse" x="0" y="0" width="112" height="112">
<path d="M55.889 111.778C86.7556 111.778 111.778 86.7556 111.778 55.889C111.778 25.0224 86.7556 0 55.889 0C25.0224 0 0 25.0224 0 55.889C0 86.7556 25.0224 111.778 55.889 111.778Z" fill="white"/>
</mask>
<g mask="url(#mask17_341_1601)">
<path d="M19.6266 53.3455C20.0596 55.8125 22.3836 57.4655 24.8176 57.0385C27.2516 56.6105 28.8736 54.2655 28.4416 51.7985C28.0086 49.3315 25.6846 47.6785 23.2506 48.1065C20.8156 48.5335 19.1936 50.8785 19.6266 53.3455Z" fill="#B7824E"/>
</g>
<mask id="mask18_341_1601" style="mask-type:luminance" maskUnits="userSpaceOnUse" x="0" y="0" width="112" height="112">
<path d="M55.889 111.778C86.7556 111.778 111.778 86.7556 111.778 55.889C111.778 25.0224 86.7556 0 55.889 0C25.0224 0 0 25.0224 0 55.889C0 86.7556 25.0224 111.778 55.889 111.778Z" fill="white"/>
</mask>
<g mask="url(#mask18_341_1601)">
<path d="M31.4777 53.6844C31.4777 53.6844 24.5127 44.2484 18.6777 50.1244C18.6777 50.1244 24.3707 42.0814 31.4777 53.6844Z" fill="#B7824E"/>
</g>
<mask id="mask19_341_1601" style="mask-type:luminance" maskUnits="userSpaceOnUse" x="0" y="0" width="112" height="112">
<path d="M55.889 111.778C86.7556 111.778 111.778 86.7556 111.778 55.889C111.778 25.0224 86.7556 0 55.889 0C25.0224 0 0 25.0224 0 55.889C0 86.7556 25.0224 111.778 55.889 111.778Z" fill="white"/>
</mask>
<g mask="url(#mask19_341_1601)">
<path d="M66.9775 50.8035C66.8735 54.1955 69.6365 57.0194 73.1474 57.1124C76.6595 57.2054 79.5894 54.5304 79.6934 51.1394C79.7964 47.7464 77.0345 44.9234 73.5224 44.8304C70.0115 44.7384 67.0805 47.4135 66.9775 50.8035Z" fill="#D68A64"/>
</g>
<mask id="mask20_341_1601" style="mask-type:luminance" maskUnits="userSpaceOnUse" x="0" y="0" width="112" height="112">
<path d="M55.889 111.778C86.7556 111.778 111.778 86.7556 111.778 55.889C111.778 25.0224 86.7556 0 55.889 0C25.0224 0 0 25.0224 0 55.889C0 86.7556 25.0224 111.778 55.889 111.778Z" fill="white"/>
</mask>
<g mask="url(#mask20_341_1601)">
<path d="M32.2275 50.8035C32.1235 54.1955 34.8865 57.0194 38.3974 57.1124C41.9095 57.2054 44.8394 54.5304 44.9434 51.1394C45.0464 47.7464 42.2844 44.9234 38.7734 44.8304C35.2624 44.7384 32.3315 47.4135 32.2275 50.8035Z" fill="#D68A64"/>
</g>
<mask id="mask21_341_1601" style="mask-type:luminance" maskUnits="userSpaceOnUse" x="0" y="0" width="112" height="112">
<path d="M55.889 111.778C86.7556 111.778 111.778 86.7556 111.778 55.889C111.778 25.0224 86.7556 0 55.889 0C25.0224 0 0 25.0224 0 55.889C0 86.7556 25.0224 111.778 55.889 111.778Z" fill="white"/>
</mask>
<g mask="url(#mask21_341_1601)">
<path d="M53.7715 49.8577C55.6655 50.5707 57.7765 50.5257 59.5985 49.6487C59.6265 49.6337 59.6555 49.6207 59.6855 49.6067C62.5635 48.2017 65.2425 52.3677 61.6605 54.8397C58.0785 57.3127 52.6425 56.9727 50.2325 54.2367C48.1235 51.8427 50.0875 48.4717 53.7715 49.8577Z" fill="#2C2C2B"/>
<mask id="mask22_341_1601" style="mask-type:luminance" maskUnits="userSpaceOnUse" x="49" y="49" width="15" height="8">
<path d="M53.7715 49.8577C55.6655 50.5707 57.7765 50.5257 59.5985 49.6487C59.6265 49.6337 59.6555 49.6207 59.6855 49.6067C62.5635 48.2017 65.2425 52.3677 61.6605 54.8397C58.0785 57.3127 52.6425 56.9727 50.2325 54.2367C48.1235 51.8427 50.0875 48.4717 53.7715 49.8577Z" fill="white"/>
</mask>
<g mask="url(#mask22_341_1601)">
<path d="M61.668 54.9548C61.668 54.9548 62.01 51.8688 56.642 54.3018C56.642 54.3018 52.189 51.8718 50.918 54.9778C50.918 54.9778 55.253 58.8908 61.668 54.9548Z" fill="#D04642"/>
</g>
<mask id="mask23_341_1601" style="mask-type:luminance" maskUnits="userSpaceOnUse" x="49" y="49" width="15" height="8">
<path d="M53.8365 49.7835C55.7305 50.4965 57.8415 50.4515 59.6635 49.5745C59.6915 49.5595 59.7204 49.5465 59.7494 49.5325C62.6284 48.1275 65.3075 52.2935 61.7245 54.7645C58.1425 57.2375 52.7065 56.8975 50.2965 54.1615C48.1885 51.7675 50.1515 48.3975 53.8365 49.7835Z" fill="white"/>
</mask>
<g mask="url(#mask23_341_1601)">
<path d="M62.9353 49.1406C62.9353 49.1406 64.4773 51.1716 60.7413 51.8336C59.5173 52.0506 53.1373 52.3966 51.8403 52.1986C48.2463 51.6506 49.4223 49.5466 49.4223 49.5466C49.4223 49.5466 61.6033 47.6616 62.9353 49.1406Z" fill="white"/>
</g>
</g>
<mask id="mask24_341_1601" style="mask-type:luminance" maskUnits="userSpaceOnUse" x="0" y="0" width="112" height="112">
<path d="M55.889 111.778C86.7556 111.778 111.778 86.7556 111.778 55.889C111.778 25.0224 86.7556 0 55.889 0C25.0224 0 0 25.0224 0 55.889C0 86.7556 25.0224 111.778 55.889 111.778Z" fill="white"/>
</mask>
<g mask="url(#mask24_341_1601)">
<path d="M55.8849 93.0859L59.2729 99.9509L66.8489 101.051L61.3669 106.394L62.6609 113.939L55.8849 110.377L49.1089 113.939L50.4029 106.394L44.9219 101.051L52.4969 99.9509L55.8849 93.0859Z" fill="#F2CB03"/>
</g>
</svg>
