<svg width="112" height="112" viewBox="0 0 112 112" fill="none" xmlns="http://www.w3.org/2000/svg">
<mask id="mask0_341_1484" style="mask-type:luminance" maskUnits="userSpaceOnUse" x="0" y="0" width="112" height="112">
<path d="M55.889 111.778C86.7556 111.778 111.778 86.7556 111.778 55.889C111.778 25.0224 86.7556 0 55.889 0C25.0224 0 0 25.0224 0 55.889C0 86.7556 25.0224 111.778 55.889 111.778Z" fill="white"/>
</mask>
<g mask="url(#mask0_341_1484)">
<path d="M55.889 111.778C86.7556 111.778 111.778 86.7556 111.778 55.889C111.778 25.0224 86.7556 0 55.889 0C25.0224 0 0 25.0224 0 55.889C0 86.7556 25.0224 111.778 55.889 111.778Z" fill="#41A85F"/>
</g>
<mask id="mask1_341_1484" style="mask-type:luminance" maskUnits="userSpaceOnUse" x="0" y="0" width="112" height="112">
<path d="M55.889 111.778C86.7556 111.778 111.778 86.7556 111.778 55.889C111.778 25.0224 86.7556 0 55.889 0C25.0224 0 0 25.0224 0 55.889C0 86.7556 25.0224 111.778 55.889 111.778Z" fill="white"/>
</mask>
<g mask="url(#mask1_341_1484)">
<path d="M35.8275 30.7774C35.8275 30.7774 14.9945 22.2314 45.4945 14.3984C45.4945 14.3984 65.0615 1.06543 73.7785 14.3984C82.4945 27.7314 37.2195 31.4424 35.8275 30.7774Z" fill="#DF5605"/>
</g>
<mask id="mask2_341_1484" style="mask-type:luminance" maskUnits="userSpaceOnUse" x="0" y="0" width="112" height="112">
<path d="M55.889 111.778C86.7556 111.778 111.778 86.7556 111.778 55.889C111.778 25.0224 86.7556 0 55.889 0C25.0224 0 0 25.0224 0 55.889C0 86.7556 25.0224 111.778 55.889 111.778Z" fill="white"/>
</mask>
<g mask="url(#mask2_341_1484)">
<path d="M73.778 14.397C72.458 12.378 70.886 10.979 69.174 10.043C68.998 11.429 68.68 12.761 68.18 13.931C65.748 19.609 59.211 22.631 53.769 24.531C47.773 26.624 41.071 28.862 35.048 25.589C32.657 24.289 31.198 22.433 30.956 20.398C24.301 26.046 35.827 30.776 35.827 30.776C37.219 31.441 82.494 27.731 73.778 14.397Z" fill="#C94A0A"/>
</g>
<mask id="mask3_341_1484" style="mask-type:luminance" maskUnits="userSpaceOnUse" x="0" y="0" width="112" height="112">
<path d="M55.889 111.778C86.7556 111.778 111.778 86.7556 111.778 55.889C111.778 25.0224 86.7556 0 55.889 0C25.0224 0 0 25.0224 0 55.889C0 86.7556 25.0224 111.778 55.889 111.778Z" fill="white"/>
</mask>
<g mask="url(#mask3_341_1484)">
<path d="M65.1992 74.3972C65.1992 74.3972 75.3382 72.7272 77.2622 83.0172C79.1862 93.3062 84.2712 148.958 84.2712 148.958L80.6412 150.536L70.8142 93.6881C70.8142 93.6881 71.0692 78.2622 65.1992 74.3972Z" fill="#DEAF76"/>
</g>
<mask id="mask4_341_1484" style="mask-type:luminance" maskUnits="userSpaceOnUse" x="0" y="0" width="112" height="112">
<path d="M55.889 111.778C86.7556 111.778 111.778 86.7556 111.778 55.889C111.778 25.0224 86.7556 0 55.889 0C25.0224 0 0 25.0224 0 55.889C0 86.7556 25.0224 111.778 55.889 111.778Z" fill="white"/>
</mask>
<g mask="url(#mask4_341_1484)">
<path d="M44.1245 74.0752C44.1245 74.0752 33.9125 72.0122 31.9875 82.3022C30.0635 92.5922 24.9785 148.244 24.9785 148.244L28.6085 149.822L38.4345 92.9732C38.4345 92.9732 38.2545 77.9392 44.1245 74.0752Z" fill="#DEAF76"/>
</g>
<mask id="mask5_341_1484" style="mask-type:luminance" maskUnits="userSpaceOnUse" x="0" y="0" width="112" height="112">
<path d="M55.889 111.778C86.7556 111.778 111.778 86.7556 111.778 55.889C111.778 25.0224 86.7556 0 55.889 0C25.0224 0 0 25.0224 0 55.889C0 86.7556 25.0224 111.778 55.889 111.778Z" fill="white"/>
</mask>
<g mask="url(#mask5_341_1484)">
<path d="M70.8132 93.6891L71.2482 96.2011H79.0032C78.3222 90.2121 77.7072 85.3982 77.2622 83.0172C75.3372 72.7272 65.1992 74.3972 65.1992 74.3972C71.0682 78.2622 70.8132 93.6891 70.8132 93.6891Z" fill="#18384D"/>
</g>
<mask id="mask6_341_1484" style="mask-type:luminance" maskUnits="userSpaceOnUse" x="0" y="0" width="112" height="112">
<path d="M55.889 111.778C86.7556 111.778 111.778 86.7556 111.778 55.889C111.778 25.0224 86.7556 0 55.889 0C25.0224 0 0 25.0224 0 55.889C0 86.7556 25.0224 111.778 55.889 111.778Z" fill="white"/>
</mask>
<g mask="url(#mask6_341_1484)">
<path d="M37.879 96.2012L38.437 92.9732C38.437 92.9732 38.255 77.9392 44.126 74.0752C44.126 74.0752 33.914 72.0122 31.989 82.3022C31.526 84.7782 30.88 89.8812 30.166 96.2012H37.879Z" fill="#18384D"/>
</g>
<mask id="mask7_341_1484" style="mask-type:luminance" maskUnits="userSpaceOnUse" x="0" y="0" width="112" height="112">
<path d="M55.889 111.778C86.7556 111.778 111.778 86.7556 111.778 55.889C111.778 25.0224 86.7556 0 55.889 0C25.0224 0 0 25.0224 0 55.889C0 86.7556 25.0224 111.778 55.889 111.778Z" fill="white"/>
</mask>
<g mask="url(#mask7_341_1484)">
<path d="M44.2285 72.9585C49.2085 72.1745 55.9975 71.1655 64.4515 73.0145C68.4935 73.8985 71.2825 78.3625 71.2265 82.4985C71.1025 91.6645 72.6245 107.214 73.5965 111.271C75.5255 119.331 65.8145 121.971 55.2525 121.416C44.6905 120.86 37.0625 121.374 36.9085 111.549C36.7685 102.62 36.9485 99.5945 36.8795 81.1965C36.8625 76.5535 39.6415 73.6815 44.2285 72.9585Z" fill="#18384D"/>
</g>
<mask id="mask8_341_1484" style="mask-type:luminance" maskUnits="userSpaceOnUse" x="0" y="0" width="112" height="112">
<path d="M55.889 111.778C86.7556 111.778 111.778 86.7556 111.778 55.889C111.778 25.0224 86.7556 0 55.889 0C25.0224 0 0 25.0224 0 55.889C0 86.7556 25.0224 111.778 55.889 111.778Z" fill="white"/>
</mask>
<g mask="url(#mask8_341_1484)">
<path d="M71.2556 86.3182C65.4686 92.8062 55.1266 95.8002 47.1296 91.6722C44.4836 90.3062 41.6416 86.4922 40.1006 84.2012C39.2706 82.9682 38.1666 81.9432 36.8796 81.1992C36.8796 81.1992 36.7686 102.623 36.9086 111.552C37.0626 121.377 44.6906 120.864 55.2526 121.419C65.8146 121.975 75.5256 119.334 73.5966 111.274C72.7496 107.738 71.4866 95.4782 71.2556 86.3182Z" fill="#0E2735"/>
</g>
<mask id="mask9_341_1484" style="mask-type:luminance" maskUnits="userSpaceOnUse" x="0" y="0" width="112" height="112">
<path d="M55.889 111.778C86.7556 111.778 111.778 86.7556 111.778 55.889C111.778 25.0224 86.7556 0 55.889 0C25.0224 0 0 25.0224 0 55.889C0 86.7556 25.0224 111.778 55.889 111.778Z" fill="white"/>
</mask>
<g mask="url(#mask9_341_1484)">
<path d="M54.8172 77.4114C57.5972 77.4114 59.8502 75.1584 59.8502 72.3794V65.2994C59.8502 64.1804 58.9432 63.2734 57.8242 63.2734H51.8112C50.6922 63.2734 49.7852 64.1804 49.7852 65.2994V72.3794C49.7852 75.1584 52.0382 77.4114 54.8172 77.4114Z" fill="#DEAF76"/>
</g>
<mask id="mask10_341_1484" style="mask-type:luminance" maskUnits="userSpaceOnUse" x="0" y="0" width="112" height="112">
<path d="M55.889 111.778C86.7556 111.778 111.778 86.7556 111.778 55.889C111.778 25.0224 86.7556 0 55.889 0C25.0224 0 0 25.0224 0 55.889C0 86.7556 25.0224 111.778 55.889 111.778Z" fill="white"/>
</mask>
<g mask="url(#mask10_341_1484)">
<path d="M49.7891 71.7155V66.6445H59.8541V71.9945C56.6281 72.7055 52.9761 72.5895 49.7891 71.7155Z" fill="#CA9561"/>
</g>
<mask id="mask11_341_1484" style="mask-type:luminance" maskUnits="userSpaceOnUse" x="0" y="0" width="112" height="112">
<path d="M55.889 111.778C86.7556 111.778 111.778 86.7556 111.778 55.889C111.778 25.0224 86.7556 0 55.889 0C25.0224 0 0 25.0224 0 55.889C0 86.7556 25.0224 111.778 55.889 111.778Z" fill="white"/>
</mask>
<g mask="url(#mask11_341_1484)">
<path d="M78.7402 36.4645C78.7402 36.4645 81.0482 69.7025 54.9122 69.5525C28.7222 69.4015 31.2792 35.2555 31.2792 35.2555C31.2792 35.2555 31.1382 20.2895 57.2742 19.6665C64.5172 19.4935 71.5072 22.8435 75.5872 28.8295C77.0322 30.9495 78.1982 33.4805 78.7402 36.4645Z" fill="#DEAF76"/>
</g>
<mask id="mask12_341_1484" style="mask-type:luminance" maskUnits="userSpaceOnUse" x="0" y="0" width="112" height="112">
<path d="M55.889 111.778C86.7556 111.778 111.778 86.7556 111.778 55.889C111.778 25.0224 86.7556 0 55.889 0C25.0224 0 0 25.0224 0 55.889C0 86.7556 25.0224 111.778 55.889 111.778Z" fill="white"/>
</mask>
<g mask="url(#mask12_341_1484)">
<path d="M69.411 61.6396C74.964 57.2276 77.646 50.3146 77.779 43.4266C77.865 38.9466 77.057 34.5366 76.2 30.1406C77.345 31.7366 78.269 33.7986 78.754 36.4646C78.754 36.4646 81.062 69.7026 54.926 69.5526C48.602 69.5166 43.956 67.4966 40.543 64.4556C49.754 68.4296 61.788 67.6966 69.411 61.6396Z" fill="#D0A16F"/>
</g>
<mask id="mask13_341_1484" style="mask-type:luminance" maskUnits="userSpaceOnUse" x="0" y="0" width="112" height="112">
<path d="M55.889 111.778C86.7556 111.778 111.778 86.7556 111.778 55.889C111.778 25.0224 86.7556 0 55.889 0C25.0224 0 0 25.0224 0 55.889C0 86.7556 25.0224 111.778 55.889 111.778Z" fill="white"/>
</mask>
<g mask="url(#mask13_341_1484)">
<path d="M62.2503 38.4292C62.2853 40.0692 61.8253 41.4162 61.2223 41.4392C60.6183 41.4612 60.1013 40.1503 60.0663 38.5103C60.0313 36.8703 60.4913 35.5232 61.0943 35.5002C61.6973 35.4792 62.2143 36.7892 62.2503 38.4292Z" fill="#181818"/>
</g>
<mask id="mask14_341_1484" style="mask-type:luminance" maskUnits="userSpaceOnUse" x="0" y="0" width="112" height="112">
<path d="M55.889 111.778C86.7556 111.778 111.778 86.7556 111.778 55.889C111.778 25.0224 86.7556 0 55.889 0C25.0224 0 0 25.0224 0 55.889C0 86.7556 25.0224 111.778 55.889 111.778Z" fill="white"/>
</mask>
<g mask="url(#mask14_341_1484)">
<path d="M50.1723 38.4292C50.2073 40.0692 49.7473 41.4162 49.1443 41.4392C48.5413 41.4612 48.0233 40.1503 47.9883 38.5103C47.9523 36.8713 48.4133 35.5232 49.0163 35.5002C49.6183 35.4792 50.1363 36.7892 50.1723 38.4292Z" fill="#181818"/>
</g>
<mask id="mask15_341_1484" style="mask-type:luminance" maskUnits="userSpaceOnUse" x="0" y="0" width="112" height="112">
<path d="M55.889 111.778C86.7556 111.778 111.778 86.7556 111.778 55.889C111.778 25.0224 86.7556 0 55.889 0C25.0224 0 0 25.0224 0 55.889C0 86.7556 25.0224 111.778 55.889 111.778Z" fill="white"/>
</mask>
<g mask="url(#mask15_341_1484)">
<path d="M78.0695 40.0453C78.0695 40.0453 92.9985 30.1043 92.5515 47.8743C92.4725 51.0293 91.1945 54.1103 88.8505 56.1463C85.8165 58.7823 80.7105 60.0153 73.2285 51.8873L78.0695 40.0453Z" fill="#DEAF76"/>
</g>
<mask id="mask16_341_1484" style="mask-type:luminance" maskUnits="userSpaceOnUse" x="0" y="0" width="112" height="112">
<path d="M55.889 111.778C86.7556 111.778 111.778 86.7556 111.778 55.889C111.778 25.0224 86.7556 0 55.889 0C25.0224 0 0 25.0224 0 55.889C0 86.7556 25.0224 111.778 55.889 111.778Z" fill="white"/>
</mask>
<g mask="url(#mask16_341_1484)">
<path d="M86.0417 47.2114C85.6647 49.3614 83.6397 50.8024 81.5177 50.4304C79.3967 50.0584 77.9827 48.0134 78.3597 45.8634C78.7377 43.7134 80.7627 42.2724 82.8847 42.6444C85.0057 43.0164 86.4197 45.0614 86.0417 47.2114Z" fill="#CA9561"/>
</g>
<mask id="mask17_341_1484" style="mask-type:luminance" maskUnits="userSpaceOnUse" x="0" y="0" width="112" height="112">
<path d="M55.889 111.778C86.7556 111.778 111.778 86.7556 111.778 55.889C111.778 25.0224 86.7556 0 55.889 0C25.0224 0 0 25.0224 0 55.889C0 86.7556 25.0224 111.778 55.889 111.778Z" fill="white"/>
</mask>
<g mask="url(#mask17_341_1484)">
<path d="M75.7129 47.5085C75.7129 47.5085 81.7839 39.2815 86.8699 44.4055C86.8699 44.4055 81.9089 37.3935 75.7129 47.5085Z" fill="#CA9561"/>
</g>
<mask id="mask18_341_1484" style="mask-type:luminance" maskUnits="userSpaceOnUse" x="0" y="0" width="112" height="112">
<path d="M55.889 111.778C86.7556 111.778 111.778 86.7556 111.778 55.889C111.778 25.0224 86.7556 0 55.889 0C25.0224 0 0 25.0224 0 55.889C0 86.7556 25.0224 111.778 55.889 111.778Z" fill="white"/>
</mask>
<g mask="url(#mask18_341_1484)">
<path d="M33.7086 38.9828C33.7086 38.9828 18.7796 29.0418 19.2266 46.8118C19.3056 49.9668 20.5826 53.0478 22.9276 55.0838C25.9626 57.7188 31.0676 58.9518 38.5506 50.8238L33.7086 38.9828Z" fill="#DEAF76"/>
</g>
<mask id="mask19_341_1484" style="mask-type:luminance" maskUnits="userSpaceOnUse" x="0" y="0" width="112" height="112">
<path d="M55.889 111.778C86.7556 111.778 111.778 86.7556 111.778 55.889C111.778 25.0224 86.7556 0 55.889 0C25.0224 0 0 25.0224 0 55.889C0 86.7556 25.0224 111.778 55.889 111.778Z" fill="white"/>
</mask>
<g mask="url(#mask19_341_1484)">
<path d="M23.2132 46.6052C23.5912 48.7552 25.6162 50.1972 27.7372 49.8252C29.8592 49.4522 31.2732 47.4072 30.8962 45.2582C30.5182 43.1082 28.4932 41.6662 26.3712 42.0392C24.2502 42.4112 22.8362 44.4562 23.2132 46.6052Z" fill="#CA9561"/>
</g>
<mask id="mask20_341_1484" style="mask-type:luminance" maskUnits="userSpaceOnUse" x="0" y="0" width="112" height="112">
<path d="M55.889 111.778C86.7556 111.778 111.778 86.7556 111.778 55.889C111.778 25.0224 86.7556 0 55.889 0C25.0224 0 0 25.0224 0 55.889C0 86.7556 25.0224 111.778 55.889 111.778Z" fill="white"/>
</mask>
<g mask="url(#mask20_341_1484)">
<path d="M33.5437 46.9029C33.5437 46.9029 27.4727 38.6779 22.3867 43.7999C22.3867 43.7999 27.3477 36.7889 33.5437 46.9029Z" fill="#CA9561"/>
</g>
<mask id="mask21_341_1484" style="mask-type:luminance" maskUnits="userSpaceOnUse" x="0" y="0" width="112" height="112">
<path d="M55.889 111.778C86.7556 111.778 111.778 86.7556 111.778 55.889C111.778 25.0224 86.7556 0 55.889 0C25.0224 0 0 25.0224 0 55.889C0 86.7556 25.0224 111.778 55.889 111.778Z" fill="white"/>
</mask>
<g mask="url(#mask21_341_1484)">
<path d="M64.4868 44.3926C64.3968 47.3486 66.8048 49.8106 69.8658 49.8916C72.9268 49.9716 75.4808 47.6406 75.5718 44.6846C75.6618 41.7286 73.2538 39.2666 70.1928 39.1856C67.1318 39.1046 64.5778 41.4366 64.4868 44.3926Z" fill="#D68A64"/>
</g>
<mask id="mask22_341_1484" style="mask-type:luminance" maskUnits="userSpaceOnUse" x="0" y="0" width="112" height="112">
<path d="M55.889 111.778C86.7556 111.778 111.778 86.7556 111.778 55.889C111.778 25.0224 86.7556 0 55.889 0C25.0224 0 0 25.0224 0 55.889C0 86.7556 25.0224 111.778 55.889 111.778Z" fill="white"/>
</mask>
<g mask="url(#mask22_341_1484)">
<path d="M34.1978 44.3926C34.1078 47.3486 36.5158 49.8106 39.5758 49.8916C42.6368 49.9716 45.1918 47.6406 45.2818 44.6846C45.3718 41.7286 42.9638 39.2666 39.9038 39.1856C36.8428 39.1046 34.2878 41.4366 34.1978 44.3926Z" fill="#D68A64"/>
</g>
<mask id="mask23_341_1484" style="mask-type:luminance" maskUnits="userSpaceOnUse" x="0" y="0" width="112" height="112">
<path d="M55.889 111.778C86.7556 111.778 111.778 86.7556 111.778 55.889C111.778 25.0224 86.7556 0 55.889 0C25.0224 0 0 25.0224 0 55.889C0 86.7556 25.0224 111.778 55.889 111.778Z" fill="white"/>
</mask>
<g mask="url(#mask23_341_1484)">
<path d="M52.4123 42.503C54.1443 43.154 56.0753 43.113 57.7413 42.312C57.7673 42.299 57.7943 42.287 57.8203 42.274C60.4523 40.989 62.9013 44.798 59.6263 47.059C56.3513 49.32 51.3793 49.009 49.1763 46.507C47.2473 44.318 49.0433 41.236 52.4123 42.503Z" fill="#2C2C2B"/>
<mask id="mask24_341_1484" style="mask-type:luminance" maskUnits="userSpaceOnUse" x="48" y="42" width="14" height="7">
<path d="M52.4123 42.503C54.1443 43.154 56.0753 43.113 57.7413 42.312C57.7673 42.299 57.7943 42.287 57.8203 42.274C60.4523 40.989 62.9013 44.798 59.6263 47.059C56.3513 49.32 51.3793 49.009 49.1763 46.507C47.2473 44.318 49.0433 41.236 52.4123 42.503Z" fill="white"/>
</mask>
<g mask="url(#mask24_341_1484)">
<path d="M59.6327 47.1623C59.6327 47.1623 59.9457 44.3412 55.0367 46.5652C55.0367 46.5652 50.9647 44.3423 49.8027 47.1823C49.8027 47.1823 53.7657 50.7623 59.6327 47.1623Z" fill="#D04642"/>
</g>
<mask id="mask25_341_1484" style="mask-type:luminance" maskUnits="userSpaceOnUse" x="48" y="41" width="14" height="8">
<path d="M52.4709 42.4363C54.2029 43.0883 56.1339 43.0473 57.7999 42.2453C57.8249 42.2323 57.8519 42.2203 57.8779 42.2073C60.5109 40.9233 62.9599 44.7313 59.6849 46.9923C56.4089 49.2533 51.4379 48.9423 49.2349 46.4403C47.3059 44.2513 49.1019 41.1693 52.4709 42.4363Z" fill="white"/>
</mask>
<g mask="url(#mask25_341_1484)">
<path d="M60.7911 41.8496C60.7911 41.8496 62.2011 43.7076 58.7841 44.3136C57.6661 44.5106 51.8311 44.8286 50.6451 44.6476C47.3581 44.1466 48.4341 42.2216 48.4341 42.2216C48.4341 42.2216 59.5741 40.4976 60.7911 41.8496Z" fill="white"/>
</g>
</g>
<mask id="mask26_341_1484" style="mask-type:luminance" maskUnits="userSpaceOnUse" x="0" y="0" width="112" height="112">
<path d="M55.889 111.778C86.7556 111.778 111.778 86.7556 111.778 55.889C111.778 25.0224 86.7556 0 55.889 0C25.0224 0 0 25.0224 0 55.889C0 86.7556 25.0224 111.778 55.889 111.778Z" fill="white"/>
</mask>
<g mask="url(#mask26_341_1484)">
<path d="M78.7938 39.5604L77.7338 40.8695C77.7338 40.8695 76.1838 27.3045 70.0278 25.6795C70.0278 25.6795 54.6228 30.8544 46.7478 30.1414L56.9978 27.3045C56.9978 27.3045 52.3418 23.1054 41.2478 30.1414C41.2478 30.1414 43.7478 24.5545 51.2478 23.5545C51.2478 23.5545 38.4318 21.1234 31.2148 37.2764L28.8828 36.7394C28.8828 36.7394 30.0878 16.7215 54.3728 16.0545L49.7858 15.0545C49.7858 15.0545 83.5898 14.1914 78.7938 39.5604Z" fill="#271910"/>
</g>
<mask id="mask27_341_1484" style="mask-type:luminance" maskUnits="userSpaceOnUse" x="0" y="0" width="112" height="112">
<path d="M55.889 111.778C86.7556 111.778 111.778 86.7556 111.778 55.889C111.778 25.0224 86.7556 0 55.889 0C25.0224 0 0 25.0224 0 55.889C0 86.7556 25.0224 111.778 55.889 111.778Z" fill="white"/>
</mask>
<g mask="url(#mask27_341_1484)">
<path d="M41.4062 13.7357C41.4062 14.7567 42.8163 15.5857 44.5563 15.5857C46.2963 15.5857 47.7063 14.7577 47.7063 13.7357C47.7063 12.7147 46.2963 11.8867 44.5563 11.8867C42.8163 11.8867 41.4062 12.7147 41.4062 13.7357Z" fill="#DF5605"/>
</g>
</svg>
