<svg width="112" height="112" viewBox="0 0 112 112" fill="none" xmlns="http://www.w3.org/2000/svg">
<g clip-path="url(#clip0_342_1893)">
<mask id="mask0_342_1893" style="mask-type:luminance" maskUnits="userSpaceOnUse" x="0" y="0" width="112" height="112">
<path d="M78.1172 4.67601C49.7686 -7.53723 16.8868 5.54301 4.67357 33.8916C-7.53967 62.2401 5.54059 95.122 33.8891 107.335C62.2377 119.548 95.1195 106.468 107.333 78.1196C119.546 49.7711 106.466 16.8892 78.1172 4.67601Z" fill="white"/>
</mask>
<g mask="url(#mask0_342_1893)">
<path d="M110.734 67.3063C116.969 37.0755 97.5164 7.5141 67.2856 1.27904C37.0548 -4.95603 7.49339 14.4964 1.25833 44.7272C-4.97673 74.9579 14.4756 104.519 44.7064 110.754C74.9372 116.989 104.499 97.5371 110.734 67.3063Z" fill="#58D9CD"/>
</g>
<mask id="mask1_342_1893" style="mask-type:luminance" maskUnits="userSpaceOnUse" x="0" y="0" width="112" height="112">
<path d="M110.734 67.3063C116.969 37.0755 97.5164 7.5141 67.2856 1.27903C37.0548 -4.95603 7.49339 14.4964 1.25833 44.7271C-4.97673 74.9579 14.4756 104.519 44.7064 110.754C74.9372 116.989 104.499 97.5371 110.734 67.3063Z" fill="white"/>
</mask>
<g mask="url(#mask1_342_1893)">
<path d="M63.6309 76.6533C63.6309 76.6533 73.5699 75.0763 75.4559 84.7943C77.3419 94.5123 82.3259 147.075 82.3259 147.075L78.7669 148.565L69.1349 94.8733C69.1349 94.8733 69.3859 80.3033 63.6309 76.6533Z" fill="#C1915D"/>
<path d="M46.5192 76.6533C46.5192 76.6533 36.5812 75.0763 34.6942 84.7943C32.8082 94.5123 27.8242 147.075 27.8242 147.075L31.3832 148.565L41.0152 94.8733C41.0152 94.8733 40.7642 80.3033 46.5192 76.6533Z" fill="#C1915D"/>
<path d="M97.0326 41.361C98.0536 36.165 95.0476 31.123 90.1856 29.432C91.0706 23.879 87.4156 18.578 81.8536 17.484C80.2016 17.159 78.5666 17.252 77.0456 17.671C75.6446 14.852 73.0046 12.687 69.6756 12.032C67.1676 11.539 64.6936 11.986 62.6126 13.125C61.2636 11.936 59.5986 11.07 57.7086 10.699C54.1846 10.006 50.7296 11.167 48.3406 13.499C47.3766 12.948 46.3126 12.535 45.1616 12.309C39.9376 11.282 34.8666 14.328 33.2036 19.236C28.0316 18.917 23.2926 22.457 22.2656 27.681C21.9546 29.263 22.0286 30.829 22.4026 32.294C21.5016 33.509 20.8416 34.93 20.5296 36.512C20.1576 38.403 20.3286 40.272 20.9186 41.97C19.0776 43.464 17.7266 45.585 17.2336 48.094C16.4246 52.211 18.1486 56.23 21.3156 58.566C20.4926 64.082 24.1336 69.324 29.6626 70.411C31.9876 70.868 34.2786 70.509 36.2576 69.549C37.5086 70.518 38.9906 71.226 40.6496 71.551C41.8396 71.785 43.0196 71.797 44.1556 71.635C45.5416 72.931 47.2876 73.876 49.2866 74.269C51.1696 74.639 53.0306 74.472 54.7226 73.888C56.2016 76.317 58.6466 78.147 61.6576 78.739C66.2356 79.639 70.6996 77.412 72.8526 73.544C76.4186 72.436 79.2786 69.459 80.0486 65.539C80.0826 65.364 80.0986 65.191 80.1236 65.017C80.2946 65.059 80.4606 65.11 80.6356 65.145C86.3256 66.264 91.8456 62.558 92.9636 56.868C93.5386 53.942 92.8306 51.065 91.2406 48.805C94.1346 47.422 96.3666 44.748 97.0326 41.361ZM75.3816 47.284C75.7796 43.367 75.0766 39.555 73.5176 36.167C74.3696 36.81 75.3276 37.327 76.3716 37.69C75.9266 40.484 76.6286 43.211 78.1496 45.374C77.1316 45.859 76.1956 46.501 75.3816 47.284Z" fill="#271910"/>
<path d="M94.3676 32.1562C94.3496 32.5592 94.3256 32.9553 94.2876 33.3293C94.0066 36.0783 93.0436 38.4313 90.7726 40.1413C89.5306 41.0753 88.2836 41.4073 87.1486 41.0773C89.1126 45.0183 90.1726 50.6562 87.3956 53.9962C85.3576 56.4482 81.9316 56.1563 79.8996 54.2173C80.2896 58.1923 79.3486 62.8493 76.2526 65.3053C74.4066 66.7683 71.7516 66.9693 70.5836 65.3983C69.7876 68.5573 68.0446 71.7772 64.5596 72.1712C60.4466 72.6352 57.1796 69.7063 56.4736 65.9593C53.2156 70.0363 45.0446 68.9382 45.4106 63.1212C42.3686 64.0532 34.5586 66.0963 33.5696 62.7812C28.7666 66.7023 18.1366 55.8772 24.8616 51.4012C19.3976 47.8422 21.5146 40.1903 26.5526 37.0573C24.8796 35.9703 23.0236 34.8452 21.7476 33.2982C21.1826 34.2712 20.7606 35.3472 20.5316 36.5132C20.1596 38.4042 20.3306 40.2733 20.9206 41.9713C19.0796 43.4653 17.7286 45.5862 17.2356 48.0952C16.4266 52.2122 18.1506 56.2312 21.3176 58.5672C20.4946 64.0832 24.1356 69.3252 29.6646 70.4122C31.9896 70.8692 34.2806 70.5102 36.2596 69.5502C37.5106 70.5192 38.9926 71.2272 40.6516 71.5522C41.8416 71.7862 43.0216 71.7982 44.1576 71.6362C45.5436 72.9322 47.2896 73.8772 49.2886 74.2702C51.1716 74.6402 53.0316 74.4733 54.7246 73.8893C56.2036 76.3183 58.6486 78.1482 61.6596 78.7402C66.2376 79.6402 70.7016 77.4133 72.8546 73.5453C76.4206 72.4373 79.2806 69.4603 80.0506 65.5403C80.0846 65.3663 80.1006 65.1923 80.1256 65.0193C80.2966 65.0613 80.4626 65.1122 80.6376 65.1472C86.3276 66.2662 91.8476 62.5603 92.9656 56.8703C93.5406 53.9443 92.8326 51.0673 91.2426 48.8073C94.1356 47.4253 96.3666 44.7523 97.0326 41.3643C97.7116 37.9103 96.6056 34.5343 94.3676 32.1562Z" fill="#0F0906"/>
<path d="M44.7141 75.8822C49.7611 75.0872 56.6421 74.0652 65.2101 75.9382C69.3071 76.8342 72.1341 81.3572 72.0771 85.5512C71.9521 94.8412 73.4941 110.6 74.4781 114.713C76.4341 122.882 66.5911 125.558 55.8871 124.995C45.1831 124.432 37.4521 124.953 37.2961 114.995C37.1541 105.946 37.3361 102.878 37.2671 84.2322C37.2491 79.5252 40.0661 76.6142 44.7141 75.8822Z" fill="#F2395B"/>
<path d="M55.5387 80.4661C58.2687 80.4661 60.4827 78.2531 60.4827 75.5231V68.5681C60.4827 67.4691 59.5907 66.5781 58.4927 66.5781H52.5857C51.4857 66.5781 50.5957 67.4691 50.5957 68.5681V75.5231C50.5957 78.2531 52.8087 80.4661 55.5387 80.4661Z" fill="#C1915D"/>
<path d="M50.5977 74.8716V69.8906H60.4847V75.1466C57.3157 75.8446 53.7287 75.7316 50.5977 74.8716Z" fill="#AA7443"/>
<path d="M79.0398 40.2426C79.0398 40.2426 81.3068 72.8946 55.6318 72.7466C29.9028 72.5976 32.4168 39.0546 32.4168 39.0546C32.4168 39.0546 32.2778 24.3516 57.9538 23.7406C65.0678 23.5716 71.9348 26.8616 75.9428 32.7426C77.3608 34.8246 78.5058 37.3106 79.0398 40.2426Z" fill="#C1915D"/>
<path d="M39.1212 38.6493C40.4672 37.8303 41.4732 36.4853 42.9392 35.8663C44.9692 35.0093 47.3352 35.1293 49.4442 34.5143C51.6772 33.8623 53.7642 32.8423 55.6992 31.5643C55.8952 31.4353 56.1402 31.5063 56.3052 31.6423C57.8932 32.9533 59.9902 31.5513 61.3242 30.6893C61.5222 30.5613 61.7622 30.6303 61.9302 30.7673C63.3172 31.9003 64.6702 31.9833 66.3412 32.2693C66.6742 32.3263 66.9362 32.2563 67.2542 32.4233C68.7622 33.2153 69.0452 35.2623 70.5172 36.2463C72.8332 37.7953 75.9562 38.3443 78.4162 37.3763C77.8112 35.5723 76.9772 33.9633 76.0122 32.5473C72.0042 26.6663 65.1382 23.3763 58.0232 23.5453C32.3472 24.1573 32.4862 38.8603 32.4862 38.8603C32.4862 38.8603 32.4682 39.1093 32.4512 39.5333C34.6272 40.3723 36.9662 39.9603 39.1212 38.6493Z" fill="#B7824E"/>
<path d="M69.8736 64.9703C75.3296 60.6363 77.9646 53.8443 78.0946 47.0783C78.1796 42.6773 77.3856 38.3463 76.5436 34.0273C77.6676 35.5943 78.5756 37.6203 79.0526 40.2393C79.0526 40.2393 81.3196 72.8913 55.6446 72.7433C49.4326 72.7073 44.8676 70.7233 41.5156 67.7363C50.5636 71.6403 62.3846 70.9203 69.8736 64.9703Z" fill="#B7824E"/>
<path d="M62.8392 42.1742C62.8742 43.7852 62.4222 45.1092 61.8302 45.1302C61.2372 45.1522 60.7282 43.8642 60.6932 42.2542C60.6592 40.6442 61.1112 39.3192 61.7042 39.2972C62.2972 39.2752 62.8052 40.5632 62.8392 42.1742Z" fill="#181818"/>
<path d="M50.9741 42.1741C51.0091 43.7851 50.5571 45.1091 49.9641 45.1301C49.3721 45.1521 48.8631 43.8641 48.8281 42.2541C48.7931 40.6431 49.2451 39.3191 49.8381 39.2971C50.4301 39.2761 50.9391 40.5631 50.9741 42.1741Z" fill="#181818"/>
<path d="M78.7111 40.8794C78.7111 40.8794 93.3761 31.1134 92.9381 48.5704C92.8611 51.6704 91.6061 54.6974 89.3021 56.6964C86.3221 59.2854 81.3071 60.4974 73.9551 52.5124L78.7111 40.8794Z" fill="#C1915D"/>
<path d="M86.5444 47.9186C86.1744 50.0306 84.1844 51.4466 82.1004 51.0816C80.0164 50.7156 78.6264 48.7076 78.9974 46.5946C79.3674 44.4826 81.3574 43.0666 83.4414 43.4326C85.5254 43.7986 86.9154 45.8076 86.5444 47.9186Z" fill="#AA7443"/>
<path d="M76.3965 48.2045C76.3965 48.2045 82.3605 40.1245 87.3575 45.1575C87.3575 45.1575 82.4825 38.2685 76.3965 48.2045Z" fill="#AA7443"/>
<path d="M34.8011 42.7153C34.8011 42.7153 20.1361 32.9493 20.5741 50.4063C20.6521 53.5063 21.9071 56.5333 24.2101 58.5323C27.1911 61.1213 32.2061 62.3333 39.5571 54.3483L34.8011 42.7153Z" fill="#C1915D"/>
<path d="M24.4916 50.2048C24.8626 52.3168 26.8516 53.7328 28.9356 53.3668C31.0196 53.0008 32.4096 50.9928 32.0386 48.8798C31.6676 46.7678 29.6786 45.3518 27.5936 45.7178C25.5096 46.0838 24.1206 48.0928 24.4916 50.2048Z" fill="#AA7443"/>
<path d="M34.6397 50.494C34.6397 50.494 28.6757 42.413 23.6797 47.446C23.6797 47.446 28.5537 40.558 34.6397 50.494Z" fill="#AA7443"/>
<path d="M65.0376 48.0271C64.9486 50.9311 67.3136 53.3501 70.3206 53.4291C73.3276 53.5081 75.8376 51.2181 75.9256 48.3141C76.0136 45.4101 73.6486 42.9921 70.6416 42.9121C67.6356 42.8331 65.1266 45.1241 65.0376 48.0271Z" fill="#C16A44"/>
<path d="M35.2817 48.0271C35.1927 50.9311 37.5587 53.3501 40.5657 53.4291C43.5727 53.5081 46.0817 51.2181 46.1707 48.3141C46.2587 45.4101 43.8937 42.9921 40.8867 42.9121C37.8797 42.8331 35.3707 45.1241 35.2817 48.0271Z" fill="#C16A44"/>
<path d="M72.1068 89.4234C66.2408 95.9994 55.7588 99.0334 47.6538 94.8494C44.9708 93.4644 42.0918 89.5984 40.5298 87.2774C39.6878 86.0264 38.5698 84.9894 37.2648 84.2344C37.2648 84.2344 37.1528 105.948 37.2938 114.997C37.4498 124.955 45.1808 124.434 55.8848 124.997C66.5898 125.56 76.4318 122.884 74.4758 114.715C73.6208 111.132 72.3388 98.7064 72.1068 89.4234Z" fill="#DD224B"/>
<path d="M53.8197 47.063C55.3767 47.648 57.1107 47.612 58.6077 46.891C58.6307 46.88 58.6547 46.868 58.6777 46.857C61.0427 45.703 63.2437 49.125 60.3007 51.156C57.3577 53.187 52.8917 52.908 50.9117 50.66C49.1797 48.694 50.7927 45.925 53.8197 47.063Z" fill="#2C2C2B"/>
<mask id="mask2_342_1893" style="mask-type:luminance" maskUnits="userSpaceOnUse" x="50" y="46" width="12" height="7">
<path d="M53.8197 47.063C55.3767 47.648 57.1107 47.612 58.6077 46.891C58.6307 46.88 58.6547 46.868 58.6777 46.857C61.0427 45.703 63.2437 49.125 60.3007 51.156C57.3577 53.187 52.8917 52.908 50.9117 50.66C49.1797 48.694 50.7927 45.925 53.8197 47.063Z" fill="white"/>
</mask>
<g mask="url(#mask2_342_1893)">
<path d="M60.3086 51.2501C60.3086 51.2501 60.5896 48.7141 56.1796 50.7131C56.1796 50.7131 52.5206 48.7161 51.4766 51.2681C51.4766 51.2681 55.0376 54.4851 60.3086 51.2501Z" fill="#D04642"/>
</g>
<mask id="mask3_342_1893" style="mask-type:luminance" maskUnits="userSpaceOnUse" x="50" y="46" width="12" height="7">
<path d="M53.8725 47.0015C55.4295 47.5865 57.1635 47.5505 58.6605 46.8295C58.6835 46.8175 58.7085 46.8065 58.7315 46.7945C61.0965 45.6405 63.2975 49.0625 60.3545 51.0945C57.4115 53.1255 52.9445 52.8465 50.9645 50.5985C49.2325 48.6325 50.8455 45.8635 53.8725 47.0015Z" fill="white"/>
</mask>
<g mask="url(#mask3_342_1893)">
<path d="M61.3492 46.4734C61.3492 46.4734 62.6162 48.1424 59.5462 48.6864C58.5402 48.8644 53.2982 49.1494 52.2332 48.9864C49.2802 48.5364 50.2471 46.8074 50.2471 46.8074C50.2471 46.8074 60.2552 45.2574 61.3492 46.4734Z" fill="white"/>
</g>
<path d="M80.9668 54.3092C80.9668 55.6822 82.0788 56.7942 83.4508 56.7942C84.8238 56.7942 85.9358 55.6822 85.9358 54.3092C85.9358 52.9372 84.8238 51.8242 83.4508 51.8242C82.0798 51.8242 80.9668 52.9372 80.9668 54.3092Z" fill="#F2CB03"/>
<path d="M29.1588 59.2005C30.5313 59.2005 31.6438 58.0879 31.6438 56.7155C31.6438 55.343 30.5313 54.2305 29.1588 54.2305C27.7864 54.2305 26.6738 55.343 26.6738 56.7155C26.6738 58.0879 27.7864 59.2005 29.1588 59.2005Z" fill="#F2CB03"/>
<path d="M32.098 41.2717C32.098 41.2717 37.827 42.2457 41.827 30.2457C41.827 30.2457 42.827 38.2457 57.827 27.2457C57.827 27.2457 58.827 32.2457 62.826 28.2457C62.826 28.2457 66.826 34.2457 67.826 30.2457C67.826 30.2457 74.017 46.3727 77.923 42.8087C81.826 39.2457 82.826 37.2457 80.826 35.2457C78.826 33.2457 76.826 19.2457 56.827 21.2457C36.826 23.2457 23.369 31.2987 32.098 41.2717Z" fill="#271910"/>
<path d="M29.3275 56.0117L31.8945 61.2127L37.6335 62.0467L33.4815 66.0947L34.4615 71.8117L29.3275 69.1127L24.1945 71.8117L25.1745 66.0947L21.0215 62.0467L26.7605 61.2127L29.3275 56.0117Z" fill="#F2CB03"/>
<path d="M83.3275 56.0117L85.8945 61.2127L91.6335 62.0467L87.4805 66.0947L88.4615 71.8117L83.3275 69.1127L78.1945 71.8117L79.1745 66.0947L75.0215 62.0467L80.7605 61.2127L83.3275 56.0117Z" fill="#F2CB03"/>
<path d="M54.0655 47.0691C54.0655 47.0691 53.8265 46.2461 55.8265 46.2461C57.8265 46.2461 57.8485 47.1451 57.8485 47.1451C57.8485 47.1451 56.6985 47.4891 55.8685 47.4021C55.0375 47.3161 54.0655 47.0691 54.0655 47.0691Z" fill="#F2395B"/>
<path d="M54.4941 52.4328C54.4941 52.4328 54.9741 53.1628 56.5571 53.1208C58.1411 53.0788 58.4081 52.0898 58.4081 52.0898C58.4081 52.0898 56.8271 52.7238 54.4941 52.4328Z" fill="#F2395B"/>
<path d="M74.3989 37.6073C73.5709 36.6123 73.1169 35.4143 72.8139 34.1673C72.5039 32.8933 72.6709 31.2633 72.2219 30.0623C72.0049 29.4843 72.1539 29.6823 71.7349 29.3143C71.4829 29.0933 70.6399 28.9032 70.3299 28.6712C69.4989 28.0502 69.0279 27.1293 68.6729 26.1803C66.4239 27.1873 64.5969 27.0182 63.1579 24.9062C61.4249 25.8742 58.2629 27.7773 57.0219 25.8783C53.4349 28.5273 45.6149 32.7033 42.0989 28.8173C39.2389 32.8133 35.6829 38.0592 30.7969 39.5372C31.1589 40.1082 31.5879 40.6853 32.0989 41.2693C32.0989 41.2693 37.8279 42.2433 41.8279 30.2433C41.8279 30.2433 42.8279 38.2433 57.8279 27.2433C57.8279 27.2433 58.8279 32.2433 62.8269 28.2433C62.8269 28.2433 66.8269 34.2433 67.8269 30.2433C67.8269 30.2433 74.0179 46.3703 77.9239 42.8063C80.7709 40.2073 82.0659 38.4412 81.7869 36.8992C79.7619 39.2302 76.8579 40.5613 74.3989 37.6073Z" fill="#0F0906"/>
</g>
</g>
<defs>
<clipPath id="clip0_342_1893">
<rect width="111.78" height="111.78" fill="white"/>
</clipPath>
</defs>
</svg>
