<svg width="150" height="150" viewBox="0 0 150 150" fill="none" xmlns="http://www.w3.org/2000/svg">
<path d="M85.9883 31.4507C85.9883 32.1466 86.9096 32.3935 87.2576 31.7908L102.643 5.14279C102.831 4.81745 103.247 4.70597 103.572 4.8938L121.427 15.2019C121.753 15.3897 121.864 15.8057 121.676 16.1311L106.292 42.7781C105.944 43.3808 106.618 44.0553 107.221 43.7073L133.868 28.3235C134.193 28.1357 134.609 28.2471 134.797 28.5725L145.105 46.4265C145.293 46.7519 145.182 47.1679 144.856 47.3557L118.206 62.7424C117.604 63.0904 117.85 64.0117 118.546 64.0117H149.32C149.695 64.0117 150 64.3163 150 64.692V85.308C150 85.6837 149.695 85.9883 149.32 85.9883H118.548C117.852 85.9883 117.606 86.9096 118.208 87.2576L144.857 102.643C145.183 102.831 145.294 103.247 145.106 103.572L134.798 121.427C134.61 121.753 134.194 121.864 133.869 121.676L107.217 106.289C106.614 105.941 105.94 106.615 106.288 107.218L121.675 133.869C121.863 134.194 121.752 134.61 121.427 134.798L103.572 145.106C103.247 145.294 102.831 145.183 102.643 144.857L87.2576 118.208C86.9096 117.606 85.9883 117.852 85.9883 118.548V149.32C85.9883 149.695 85.6837 150 85.308 150H64.692C64.3163 150 64.0117 149.695 64.0117 149.32V118.548C64.0117 117.852 63.0904 117.606 62.7424 118.208L47.3567 144.857C47.1689 145.183 46.7529 145.294 46.4275 145.106L28.5725 134.798C28.2471 134.61 28.1357 134.194 28.3235 133.869L43.7102 107.216C44.0581 106.614 43.3836 105.939 42.7809 106.287L16.1311 121.675C15.8058 121.863 15.3897 121.752 15.2019 121.426L4.89383 103.572C4.70599 103.247 4.81746 102.831 5.14281 102.643L31.7917 87.2576C32.3944 86.9096 32.1475 85.9883 31.4516 85.9883H0.680234C0.304552 85.9883 0 85.6837 0 85.308V64.692C0 64.3163 0.304551 64.0117 0.680233 64.0117H31.4535C32.1494 64.0117 32.3963 63.0904 31.7936 62.7424L5.14282 47.3557C4.81746 47.1679 4.70599 46.7519 4.89383 46.4265L15.2019 28.5725C15.3897 28.2471 15.8057 28.1357 16.1311 28.3235L42.7791 43.7083C43.3818 44.0563 44.0563 43.3818 43.7083 42.7791L28.3235 16.1311C28.1357 15.8057 28.2471 15.3897 28.5725 15.2019L46.4265 4.89382C46.7519 4.70598 47.1679 4.81746 47.3557 5.1428L62.7424 31.7927C63.0904 32.3954 64.0117 32.1485 64.0117 31.4526V0.680233C64.0117 0.304551 64.3163 0 64.692 0H85.308C85.6837 0 85.9883 0.304551 85.9883 0.680233V31.4507Z" fill="#FFF5ED"/>
</svg>
