<svg width="132" height="34" viewBox="0 0 132 34" fill="none" xmlns="http://www.w3.org/2000/svg">
<path d="M18.917 6.7616C18.917 6.95789 19.1768 7.02753 19.275 6.85754L22.5603 1.16807C22.6133 1.07632 22.7306 1.04488 22.8224 1.09785L26.6776 3.32302C26.7693 3.37599 26.8008 3.49335 26.7478 3.58513L23.4625 9.27451C23.3644 9.44449 23.5546 9.63474 23.7246 9.53662L29.4149 6.25216C29.5067 6.19919 29.624 6.23065 29.677 6.32242L31.9021 10.1776C31.9551 10.2694 31.9237 10.3867 31.8319 10.4397L26.1416 13.725C25.9716 13.8231 26.0412 14.083 26.2375 14.083H32.8081C32.9141 14.083 33 14.1689 33 14.2749V18.7251C33 18.8311 32.9141 18.917 32.8081 18.917H26.2375C26.0412 18.917 25.9716 19.1769 26.1416 19.275L31.8319 22.5603C31.9237 22.6133 31.9551 22.7306 31.9021 22.8224L29.677 26.6776C29.624 26.7693 29.5067 26.8008 29.4149 26.7478L23.7246 23.4625C23.5546 23.3644 23.3644 23.5546 23.4625 23.7246L26.7478 29.4149C26.8008 29.5067 26.7693 29.624 26.6776 29.677L22.8224 31.9021C22.7306 31.9551 22.6133 31.9237 22.5603 31.8319L19.275 26.1416C19.1769 25.9716 18.917 26.0412 18.917 26.2375V32.8081C18.917 32.9141 18.8311 33 18.7251 33H14.2749C14.1689 33 14.083 32.9141 14.083 32.8081V26.2375C14.083 26.0412 13.8231 25.9716 13.725 26.1416L10.4397 31.8319C10.3867 31.9237 10.2694 31.9551 10.1776 31.9021L6.32243 29.677C6.23065 29.624 6.1992 29.5067 6.25217 29.4149L9.53749 23.7237C9.63563 23.5537 9.44537 23.3635 9.27538 23.4616L3.58513 26.7478C3.49335 26.8008 3.37599 26.7693 3.32301 26.6775L1.09785 22.8224C1.04489 22.7306 1.07633 22.6133 1.16809 22.5603L6.85842 19.275C7.02841 19.1769 6.95878 18.917 6.76248 18.917H0.191861C0.0858991 18.917 0 18.8311 0 18.7251V14.2749C0 14.1689 0.0858989 14.083 0.19186 14.083H6.76248C6.95878 14.083 7.02841 13.8231 6.85842 13.725L1.16809 10.4397C1.07633 10.3867 1.04489 10.2694 1.09785 10.1776L3.32303 6.32243C3.376 6.23065 3.49335 6.1992 3.58512 6.25218L9.27453 9.53661C9.44452 9.63474 9.63474 9.44452 9.53661 9.27453L6.25218 3.58512C6.1992 3.49335 6.23065 3.376 6.32243 3.32303L10.1776 1.09785C10.2694 1.04488 10.3867 1.07632 10.4397 1.16807L13.725 6.85754C13.8232 7.02753 14.083 6.95789 14.083 6.7616V0.191861C14.083 0.085899 14.1689 0 14.2749 0H18.7251C18.8311 0 18.917 0.0858989 18.917 0.19186V6.7616Z" fill="#FFF5ED"/>
<path d="M44.4594 14.2269C44.4594 18.4829 46.1691 20.7283 49.3317 20.7283C52.0614 20.7283 54.0867 19.2387 54.2701 16.8099H49.1336V13.4932H59.4213V24.7201H54.3728V19.8404C53.2134 23.1351 50.6599 25.1604 47.3652 25.1604C42.5515 25.1604 39 20.7943 39 14.2269C39 7.60084 43.3073 3.29351 49.3391 3.29351C54.3655 3.29351 58.3793 6.39743 59.2452 11.4385H53.8739C53.3015 9.01705 51.6211 7.82832 49.3464 7.82832C46.1984 7.82832 44.4594 10.0297 44.4594 14.2269Z" fill="#FFF5ED"/>
<path d="M66.2389 8.54009V13.4051C66.8993 9.96364 68.697 8.09982 71.4121 8.09982C75.1837 8.09982 77.7887 11.578 77.7887 16.6264C77.7887 21.6749 75.1837 25.1604 71.4121 25.1604C68.697 25.1604 66.8993 23.2892 66.2389 19.8477V30.2749H61.1317V8.54009H66.2389ZM66.2389 16.6264C66.2389 19.3268 67.3836 20.7943 69.4602 20.7943C71.5588 20.7943 72.6375 19.3855 72.6375 16.6264C72.6375 13.8674 71.5588 12.4658 69.4602 12.4658C67.3836 12.4658 66.2389 13.9261 66.2389 16.6264Z" fill="#FFF5ED"/>
<path d="M84.2109 3V24.7201H79.1037V3H84.2109Z" fill="#FFF5ED"/>
<path d="M85.905 14.6158C85.905 10.5947 88.9502 8.09982 93.8886 8.09982C98.9077 8.09982 101.836 10.6827 101.836 15.1222V24.7201H96.7284V20.6843C96.0386 23.4506 93.7859 25.1604 90.748 25.1604C87.556 25.1604 85.4281 23.2672 85.4281 20.4348C85.4281 17.3162 87.9816 15.4964 92.355 15.4964H96.7284V15.1222C96.7284 13.1116 95.6717 11.9449 93.7639 11.9449C91.8487 11.9449 90.9902 12.9428 90.9902 14.6158H85.905ZM96.7284 18.2554H93.0448C91.4158 18.2554 90.5572 18.8131 90.5572 19.8698C90.5572 20.9337 91.4304 21.5501 92.9494 21.5501C95.092 21.5501 96.7284 20.332 96.7284 18.7471V18.2554Z" fill="#FFF5ED"/>
<path d="M108.518 16.3623V24.7201H103.41V8.54009H108.518V13.4932C109.149 9.94896 111.049 8.09982 114.043 8.09982C117.433 8.09982 119.157 10.4773 119.157 15.1442V24.7201H114.05V16.2449C114.05 13.728 113.192 12.4952 111.409 12.4952C109.545 12.4952 108.518 13.8307 108.518 16.3623Z" fill="#FFF5ED"/>
<path d="M131.395 24.5953C129.964 24.9696 128.716 25.1604 127.623 25.1604C123.903 25.1604 121.987 22.9884 121.987 18.7104V12.5319H120.05V8.54009H121.987V4.81245H127.095V8.54009H131.395V12.5319H127.095V18.7177C127.095 20.4274 127.682 21.1759 129.061 21.1759C129.626 21.1759 130.36 21.0512 131.395 20.7943V24.5953Z" fill="#FFF5ED"/>
</svg>
